<?xml version="1.0" encoding="UTF-8"?><svg width="408" height="408" viewBox="-4 -4 408 408" xmlns="http://www.w3.org/2000/svg"><style>circle{fill:black;r:1.3}polyline{fill:none;stroke:black;stroke-width:1.0}line{stroke:black;stroke-width:1.0}</style><rect width="400" height="400" style="fill:white;stroke:black;stroke-width:0.5"/><line x1="0" y1="8" x2="400" y2="8" style="stroke-width:0.5"/><line x1="0" y1="16" x2="400" y2="16" style="stroke-width:0.5"/><line x1="0" y1="24" x2="400" y2="24" style="stroke-width:0.5"/><line x1="0" y1="32" x2="400" y2="32" style="stroke-width:0.5"/><line x1="0" y1="40" x2="400" y2="40" style="stroke-width:0.5"/><line x1="0" y1="48" x2="400" y2="48" style="stroke-width:0.5"/><line x1="0" y1="56" x2="400" y2="56" style="stroke-width:0.5"/><line x1="0" y1="64" x2="400" y2="64" style="stroke-width:0.5"/><line x1="0" y1="72" x2="400" y2="72" style="stroke-width:0.5"/><line x1="0" y1="80" x2="400" y2="80" style="stroke-width:0.5"/><line x1="0" y1="88" x2="400" y2="88" style="stroke-width:0.5"/><line x1="0" y1="96" x2="400" y2="96" style="stroke-width:0.5"/><line x1="0" y1="104" x2="400" y2="104" style="stroke-width:0.5"/><line x1="0" y1="112" x2="400" y2="112" style="stroke-width:0.5"/><line x1="0" y1="120" x2="400" y2="120" style="stroke-width:0.5"/><line x1="0" y1="128" x2="400" y2="128" style="stroke-width:0.5"/><line x1="0" y1="136" x2="400" y2="136" style="stroke-width:0.5"/><line x1="0" y1="144" x2="400" y2="144" style="stroke-width:0.5"/><line x1="0" y1="152" x2="400" y2="152" style="stroke-width:0.5"/><line x1="0" y1="160" x2="400" y2="160" style="stroke-width:0.5"/><line x1="0" y1="168" x2="400" y2="168" style="stroke-width:0.5"/><line x1="0" y1="176" x2="400" y2="176" style="stroke-width:0.5"/><line x1="0" y1="184" x2="400" y2="184" style="stroke-width:0.5"/><line x1="0" y1="192" x2="400" y2="192" style="stroke-width:0.5"/><line x1="0" y1="200" x2="400" y2="200" style="stroke-width:0.5"/><line x1="0" y1="208" x2="400" y2="208" style="stroke-width:0.5"/><line x1="0" y1="216" x2="400" y2="216" style="stroke-width:0.5"/><line x1="0" y1="224" x2="400" y2="224" style="stroke-width:0.5"/><line x1="0" y1="232" x2="400" y2="232" style="stroke-width:0.5"/><line x1="0" y1="240" x2="400" y2="240" style="stroke-width:0.5"/><line x1="0" y1="248" x2="400" y2="248" style="stroke-width:0.5"/><line x1="0" y1="256" x2="400" y2="256" style="stroke-width:0.5"/><line x1="0" y1="264" x2="400" y2="264" style="stroke-width:0.5"/><line x1="0" y1="272" x2="400" y2="272" style="stroke-width:0.5"/><line x1="0" y1="280" x2="400" y2="280" style="stroke-width:0.5"/><line x1="0" y1="288" x2="400" y2="288" style="stroke-width:0.5"/><line x1="0" y1="296" x2="400" y2="296" style="stroke-width:0.5"/><line x1="0" y1="304" x2="400" y2="304" style="stroke-width:0.5"/><line x1="0" y1="312" x2="400" y2="312" style="stroke-width:0.5"/><line x1="0" y1="320" x2="400" y2="320" style="stroke-width:0.5"/><line x1="0" y1="328" x2="400" y2="328" style="stroke-width:0.5"/><line x1="0" y1="336" x2="400" y2="336" style="stroke-width:0.5"/><line x1="0" y1="344" x2="400" y2="344" style="stroke-width:0.5"/><line x1="0" y1="352" x2="400" y2="352" style="stroke-width:0.5"/><line x1="0" y1="360" x2="400" y2="360" style="stroke-width:0.5"/><line x1="0" y1="368" x2="400" y2="368" style="stroke-width:0.5"/><line x1="0" y1="376" x2="400" y2="376" style="stroke-width:0.5"/><line x1="0" y1="384" x2="400" y2="384" style="stroke-width:0.5"/><line x1="0" y1="392" x2="400" y2="392" style="stroke-width:0.5"/><line x1="8" y1="0" x2="8" y2="400" style="stroke-width:0.5"/><line x1="16" y1="0" x2="16" y2="400" style="stroke-width:0.5"/><line x1="24" y1="0" x2="24" y2="400" style="stroke-width:0.5"/><line x1="32" y1="0" x2="32" y2="400" style="stroke-width:0.5"/><line x1="40" y1="0" x2="40" y2="400" style="stroke-width:0.5"/><line x1="48" y1="0" x2="48" y2="400" style="stroke-width:0.5"/><line x1="56" y1="0" x2="56" y2="400" style="stroke-width:0.5"/><line x1="64" y1="0" x2="64" y2="400" style="stroke-width:0.5"/><line x1="72" y1="0" x2="72" y2="400" style="stroke-width:0.5"/><line x1="80" y1="0" x2="80" y2="400" style="stroke-width:0.5"/><line x1="88" y1="0" x2="88" y2="400" style="stroke-width:0.5"/><line x1="96" y1="0" x2="96" y2="400" style="stroke-width:0.5"/><line x1="104" y1="0" x2="104" y2="400" style="stroke-width:0.5"/><line x1="112" y1="0" x2="112" y2="400" style="stroke-width:0.5"/><line x1="120" y1="0" x2="120" y2="400" style="stroke-width:0.5"/><line x1="128" y1="0" x2="128" y2="400" style="stroke-width:0.5"/><line x1="136" y1="0" x2="136" y2="400" style="stroke-width:0.5"/><line x1="144" y1="0" x2="144" y2="400" style="stroke-width:0.5"/><line x1="152" y1="0" x2="152" y2="400" style="stroke-width:0.5"/><line x1="160" y1="0" x2="160" y2="400" style="stroke-width:0.5"/><line x1="168" y1="0" x2="168" y2="400" style="stroke-width:0.5"/><line x1="176" y1="0" x2="176" y2="400" style="stroke-width:0.5"/><line x1="184" y1="0" x2="184" y2="400" style="stroke-width:0.5"/><line x1="192" y1="0" x2="192" y2="400" style="stroke-width:0.5"/><line x1="200" y1="0" x2="200" y2="400" style="stroke-width:0.5"/><line x1="208" y1="0" x2="208" y2="400" style="stroke-width:0.5"/><line x1="216" y1="0" x2="216" y2="400" style="stroke-width:0.5"/><line x1="224" y1="0" x2="224" y2="400" style="stroke-width:0.5"/><line x1="232" y1="0" x2="232" y2="400" style="stroke-width:0.5"/><line x1="240" y1="0" x2="240" y2="400" style="stroke-width:0.5"/><line x1="248" y1="0" x2="248" y2="400" style="stroke-width:0.5"/><line x1="256" y1="0" x2="256" y2="400" style="stroke-width:0.5"/><line x1="264" y1="0" x2="264" y2="400" style="stroke-width:0.5"/><line x1="272" y1="0" x2="272" y2="400" style="stroke-width:0.5"/><line x1="280" y1="0" x2="280" y2="400" style="stroke-width:0.5"/><line x1="288" y1="0" x2="288" y2="400" style="stroke-width:0.5"/><line x1="296" y1="0" x2="296" y2="400" style="stroke-width:0.5"/><line x1="304" y1="0" x2="304" y2="400" style="stroke-width:0.5"/><line x1="312" y1="0" x2="312" y2="400" style="stroke-width:0.5"/><line x1="320" y1="0" x2="320" y2="400" style="stroke-width:0.5"/><line x1="328" y1="0" x2="328" y2="400" style="stroke-width:0.5"/><line x1="336" y1="0" x2="336" y2="400" style="stroke-width:0.5"/><line x1="344" y1="0" x2="344" y2="400" style="stroke-width:0.5"/><line x1="352" y1="0" x2="352" y2="400" style="stroke-width:0.5"/><line x1="360" y1="0" x2="360" y2="400" style="stroke-width:0.5"/><line x1="368" y1="0" x2="368" y2="400" style="stroke-width:0.5"/><line x1="376" y1="0" x2="376" y2="400" style="stroke-width:0.5"/><line x1="384" y1="0" x2="384" y2="400" style="stroke-width:0.5"/><line x1="392" y1="0" x2="392" y2="400" style="stroke-width:0.5"/><circle cx="4" cy="4"/><circle cx="20" cy="12"/><circle cx="4" cy="20"/><circle cx="12" cy="4"/><circle cx="28" cy="12"/><circle cx="44" cy="4"/><circle cx="60" cy="12"/><circle cx="76" cy="4"/><circle cx="92" cy="12"/><circle cx="108" cy="4"/><circle cx="124" cy="12"/><circle cx="140" cy="4"/><circle cx="156" cy="12"/><circle cx="172" cy="4"/><circle cx="188" cy="12"/><circle cx="196" cy="28"/><circle cx="188" cy="44"/><circle cx="180" cy="28"/><circle cx="172" cy="12"/><circle cx="188" cy="4"/><circle cx="196" cy="20"/><circle cx="204" cy="36"/><circle cx="220" cy="28"/><circle cx="204" cy="20"/><circle cx="212" cy="4"/><circle cx="228" cy="12"/><circle cx="244" cy="4"/><circle cx="236" cy="20"/><circle cx="228" cy="4"/><circle cx="212" cy="12"/><circle cx="196" cy="4"/><circle cx="180" cy="12"/><circle cx="164" cy="4"/><circle cx="172" cy="20"/><circle cx="188" cy="28"/><circle cx="196" cy="12"/><circle cx="180" cy="4"/><circle cx="188" cy="20"/><circle cx="204" cy="12"/><circle cx="212" cy="28"/><circle cx="196" cy="36"/><circle cx="204" cy="52"/><circle cx="220" cy="44"/><circle cx="236" cy="36"/><circle cx="252" cy="28"/><circle cx="260" cy="12"/><circle cx="276" cy="4"/><circle cx="268" cy="20"/><circle cx="260" cy="4"/><circle cx="244" cy="12"/><circle cx="228" cy="20"/><circle cx="220" cy="4"/><circle cx="212" cy="20"/><circle cx="204" cy="4"/><circle cx="220" cy="12"/><circle cx="236" cy="4"/><circle cx="252" cy="12"/><circle cx="268" cy="4"/><circle cx="284" cy="12"/><circle cx="300" cy="4"/><circle cx="316" cy="12"/><circle cx="332" cy="4"/><circle cx="348" cy="12"/><circle cx="364" cy="4"/><circle cx="380" cy="12"/><circle cx="396" cy="4"/><circle cx="388" cy="20"/><circle cx="380" cy="4"/><circle cx="396" cy="12"/><circle cx="388" cy="28"/><circle cx="372" cy="20"/><circle cx="356" cy="28"/><circle cx="364" cy="44"/><circle cx="372" cy="60"/><circle cx="356" cy="52"/><circle cx="364" cy="36"/><circle cx="372" cy="52"/><circle cx="380" cy="36"/><circle cx="396" cy="44"/><circle cx="388" cy="60"/><circle cx="396" cy="76"/><circle cx="388" cy="92"/><circle cx="396" cy="108"/><circle cx="388" cy="124"/><circle cx="396" cy="140"/><circle cx="388" cy="156"/><circle cx="396" cy="172"/><circle cx="388" cy="188"/><circle cx="396" cy="204"/><circle cx="380" cy="212"/><circle cx="388" cy="196"/><circle cx="396" cy="180"/><circle cx="380" cy="172"/><circle cx="372" cy="188"/><circle cx="364" cy="204"/><circle cx="380" cy="196"/><circle cx="396" cy="188"/><circle cx="388" cy="204"/><circle cx="372" cy="196"/><circle cx="380" cy="180"/><circle cx="388" cy="164"/><circle cx="396" cy="148"/><circle cx="380" cy="140"/><circle cx="372" cy="156"/><circle cx="364" cy="172"/><circle cx="380" cy="164"/><circle cx="396" cy="156"/><circle cx="388" cy="172"/><circle cx="380" cy="188"/><circle cx="372" cy="204"/><circle cx="364" cy="220"/><circle cx="348" cy="212"/><circle cx="356" cy="196"/><circle cx="364" cy="180"/><circle cx="372" cy="164"/><circle cx="380" cy="148"/><circle cx="388" cy="132"/><circle cx="396" cy="116"/><circle cx="380" cy="108"/><circle cx="372" cy="124"/><circle cx="364" cy="140"/><circle cx="380" cy="132"/><circle cx="396" cy="124"/><circle cx="388" cy="140"/><circle cx="380" cy="156"/><circle cx="372" cy="172"/><circle cx="364" cy="188"/><circle cx="348" cy="180"/><circle cx="356" cy="164"/><circle cx="364" cy="148"/><circle cx="372" cy="132"/><circle cx="380" cy="116"/><circle cx="388" cy="100"/><circle cx="396" cy="84"/><circle cx="380" cy="76"/><circle cx="364" cy="68"/><circle cx="348" cy="60"/><circle cx="364" cy="52"/><circle cx="372" cy="36"/><circle cx="380" cy="52"/><circle cx="364" cy="60"/><circle cx="372" cy="76"/><circle cx="364" cy="92"/><circle cx="356" cy="108"/><circle cx="348" cy="124"/><circle cx="340" cy="140"/><circle cx="324" cy="132"/><circle cx="340" cy="124"/><circle cx="348" cy="108"/><circle cx="356" cy="92"/><circle cx="364" cy="76"/><circle cx="348" cy="68"/><circle cx="356" cy="84"/><circle cx="372" cy="92"/><circle cx="364" cy="108"/><circle cx="380" cy="100"/><circle cx="396" cy="92"/><circle cx="388" cy="108"/><circle cx="372" cy="116"/><circle cx="356" cy="124"/><circle cx="348" cy="140"/><circle cx="356" cy="156"/><circle cx="372" cy="148"/><circle cx="364" cy="132"/><circle cx="380" cy="124"/><circle cx="372" cy="140"/><circle cx="364" cy="156"/><circle cx="348" cy="164"/><circle cx="332" cy="172"/><circle cx="340" cy="188"/><circle cx="356" cy="180"/><circle cx="364" cy="196"/><circle cx="348" cy="204"/><circle cx="356" cy="220"/><circle cx="372" cy="212"/><circle cx="356" cy="204"/><circle cx="340" cy="196"/><circle cx="356" cy="188"/><circle cx="348" cy="172"/><circle cx="340" cy="156"/><circle cx="332" cy="140"/><circle cx="324" cy="124"/><circle cx="316" cy="108"/><circle cx="308" cy="92"/><circle cx="292" cy="100"/><circle cx="300" cy="116"/><circle cx="284" cy="108"/><circle cx="268" cy="100"/><circle cx="284" cy="92"/><circle cx="292" cy="108"/><circle cx="300" cy="124"/><circle cx="284" cy="116"/><circle cx="300" cy="108"/><circle cx="284" cy="100"/><circle cx="268" cy="108"/><circle cx="276" cy="92"/><circle cx="292" cy="84"/><circle cx="300" cy="100"/><circle cx="308" cy="116"/><circle cx="316" cy="132"/><circle cx="324" cy="116"/><circle cx="332" cy="132"/><circle cx="340" cy="148"/><circle cx="356" cy="140"/><circle cx="364" cy="124"/><circle cx="348" cy="116"/><circle cx="340" cy="132"/><circle cx="332" cy="116"/><circle cx="324" cy="100"/><circle cx="340" cy="108"/><circle cx="332" cy="124"/><circle cx="324" cy="108"/><circle cx="332" cy="92"/><circle cx="316" cy="84"/><circle cx="332" cy="76"/><circle cx="324" cy="92"/><circle cx="308" cy="84"/><circle cx="292" cy="76"/><circle cx="308" cy="68"/><circle cx="324" cy="76"/><circle cx="316" cy="60"/><circle cx="300" cy="68"/><circle cx="316" cy="76"/><circle cx="332" cy="68"/><circle cx="340" cy="84"/><circle cx="348" cy="100"/><circle cx="340" cy="116"/><circle cx="332" cy="100"/><circle cx="348" cy="92"/><circle cx="356" cy="76"/><circle cx="340" cy="68"/><circle cx="332" cy="52"/><circle cx="348" cy="44"/><circle cx="356" cy="60"/><circle cx="372" cy="68"/><circle cx="364" cy="84"/><circle cx="348" cy="76"/><circle cx="340" cy="60"/><circle cx="356" cy="68"/><circle cx="340" cy="76"/><circle cx="324" cy="84"/><circle cx="340" cy="92"/><circle cx="332" cy="108"/><circle cx="316" cy="100"/><circle cx="300" cy="92"/><circle cx="308" cy="76"/><circle cx="324" cy="68"/><circle cx="332" cy="84"/><circle cx="340" cy="100"/><circle cx="348" cy="84"/><circle cx="356" cy="100"/><circle cx="372" cy="108"/><circle cx="380" cy="92"/><circle cx="388" cy="76"/><circle cx="396" cy="60"/><circle cx="380" cy="68"/><circle cx="372" cy="84"/><circle cx="364" cy="100"/><circle cx="356" cy="116"/><circle cx="348" cy="132"/><circle cx="356" cy="148"/><circle cx="364" cy="164"/><circle cx="372" cy="180"/><circle cx="356" cy="172"/><circle cx="340" cy="180"/><circle cx="348" cy="196"/><circle cx="356" cy="212"/><circle cx="364" cy="228"/><circle cx="372" cy="244"/><circle cx="380" cy="260"/><circle cx="388" cy="276"/><circle cx="396" cy="292"/><circle cx="380" cy="300"/><circle cx="396" cy="308"/><circle cx="388" cy="292"/><circle cx="372" cy="284"/><circle cx="364" cy="268"/><circle cx="380" cy="276"/><circle cx="396" cy="284"/><circle cx="388" cy="268"/><circle cx="380" cy="252"/><circle cx="364" cy="244"/><circle cx="372" cy="260"/><circle cx="356" cy="252"/><circle cx="348" cy="236"/><circle cx="340" cy="220"/><circle cx="332" cy="204"/><circle cx="324" cy="188"/><circle cx="316" cy="172"/><circle cx="308" cy="156"/><circle cx="300" cy="140"/><circle cx="292" cy="124"/><circle cx="276" cy="116"/><circle cx="284" cy="132"/><circle cx="268" cy="124"/><circle cx="252" cy="116"/><circle cx="260" cy="100"/><circle cx="244" cy="108"/><circle cx="260" cy="116"/><circle cx="276" cy="108"/><circle cx="292" cy="116"/><circle cx="308" cy="124"/><circle cx="316" cy="140"/><circle cx="324" cy="156"/><circle cx="308" cy="148"/><circle cx="324" cy="140"/><circle cx="332" cy="156"/><circle cx="340" cy="172"/><circle cx="348" cy="188"/><circle cx="332" cy="180"/><circle cx="324" cy="164"/><circle cx="316" cy="148"/><circle cx="308" cy="132"/><circle cx="316" cy="116"/><circle cx="308" cy="100"/><circle cx="300" cy="84"/><circle cx="316" cy="92"/><circle cx="308" cy="108"/><circle cx="316" cy="124"/><circle cx="300" cy="132"/><circle cx="284" cy="124"/><circle cx="292" cy="140"/><circle cx="300" cy="156"/><circle cx="308" cy="140"/><circle cx="324" cy="148"/><circle cx="316" cy="164"/><circle cx="324" cy="180"/><circle cx="332" cy="164"/><circle cx="348" cy="156"/><circle cx="332" cy="148"/><circle cx="340" cy="164"/><circle cx="348" cy="148"/><circle cx="356" cy="132"/><circle cx="364" cy="116"/><circle cx="372" cy="100"/><circle cx="380" cy="84"/><circle cx="388" cy="68"/><circle cx="396" cy="52"/><circle cx="388" cy="36"/><circle cx="396" cy="20"/><circle cx="388" cy="4"/><circle cx="380" cy="20"/><circle cx="396" cy="28"/><circle cx="388" cy="12"/><circle cx="372" cy="4"/><circle cx="356" cy="12"/><circle cx="364" cy="28"/><circle cx="372" cy="12"/><circle cx="356" cy="4"/><circle cx="340" cy="12"/><circle cx="324" cy="4"/><circle cx="316" cy="20"/><circle cx="324" cy="36"/><circle cx="340" cy="44"/><circle cx="332" cy="60"/><circle cx="348" cy="52"/><circle cx="332" cy="44"/><circle cx="324" cy="60"/><circle cx="340" cy="52"/><circle cx="356" cy="44"/><circle cx="340" cy="36"/><circle cx="324" cy="44"/><circle cx="308" cy="52"/><circle cx="316" cy="68"/><circle cx="300" cy="60"/><circle cx="316" cy="52"/><circle cx="308" cy="36"/><circle cx="324" cy="28"/><circle cx="332" cy="12"/><circle cx="340" cy="28"/><circle cx="356" cy="36"/><circle cx="372" cy="44"/><circle cx="380" cy="60"/><circle cx="388" cy="44"/><circle cx="380" cy="28"/><circle cx="364" cy="20"/><circle cx="348" cy="28"/><circle cx="332" cy="36"/><circle cx="340" cy="20"/><circle cx="348" cy="36"/><circle cx="356" cy="20"/><circle cx="348" cy="4"/><circle cx="364" cy="12"/><circle cx="372" cy="28"/><circle cx="380" cy="44"/><circle cx="396" cy="36"/><circle cx="388" cy="52"/><circle cx="396" cy="68"/><circle cx="388" cy="84"/><circle cx="396" cy="100"/><circle cx="388" cy="116"/><circle cx="396" cy="132"/><circle cx="388" cy="148"/><circle cx="396" cy="164"/><circle cx="388" cy="180"/><circle cx="396" cy="196"/><circle cx="380" cy="204"/><circle cx="396" cy="212"/><circle cx="388" cy="228"/><circle cx="396" cy="244"/><circle cx="380" cy="236"/><circle cx="396" cy="228"/><circle cx="388" cy="212"/><circle cx="372" cy="220"/><circle cx="356" cy="228"/><circle cx="364" cy="212"/><circle cx="380" cy="220"/><circle cx="372" cy="236"/><circle cx="388" cy="244"/><circle cx="396" cy="260"/><circle cx="380" cy="268"/><circle cx="396" cy="276"/><circle cx="388" cy="260"/><circle cx="372" cy="252"/><circle cx="364" cy="236"/><circle cx="380" cy="228"/><circle cx="396" cy="220"/><circle cx="388" cy="236"/><circle cx="396" cy="252"/><circle cx="380" cy="244"/><circle cx="372" cy="228"/><circle cx="388" cy="220"/><circle cx="396" cy="236"/><circle cx="388" cy="252"/><circle cx="396" cy="268"/><circle cx="388" cy="284"/><circle cx="372" cy="276"/><circle cx="364" cy="260"/><circle cx="356" cy="244"/><circle cx="348" cy="228"/><circle cx="340" cy="212"/><circle cx="332" cy="196"/><circle cx="316" cy="204"/><circle cx="332" cy="212"/><circle cx="348" cy="220"/><circle cx="340" cy="204"/><circle cx="324" cy="196"/><circle cx="308" cy="188"/><circle cx="300" cy="172"/><circle cx="316" cy="180"/><circle cx="332" cy="188"/><circle cx="324" cy="172"/><circle cx="308" cy="164"/><circle cx="292" cy="156"/><circle cx="276" cy="148"/><circle cx="284" cy="164"/><circle cx="268" cy="156"/><circle cx="260" cy="140"/><circle cx="244" cy="132"/><circle cx="252" cy="148"/><circle cx="260" cy="164"/><circle cx="244" cy="156"/><circle cx="236" cy="140"/><circle cx="228" cy="124"/><circle cx="212" cy="116"/><circle cx="220" cy="132"/><circle cx="228" cy="148"/><circle cx="244" cy="140"/><circle cx="236" cy="124"/><circle cx="252" cy="132"/><circle cx="260" cy="148"/><circle cx="276" cy="156"/><circle cx="292" cy="148"/><circle cx="276" cy="140"/><circle cx="260" cy="132"/><circle cx="268" cy="148"/><circle cx="252" cy="140"/><circle cx="236" cy="132"/><circle cx="220" cy="124"/><circle cx="212" cy="140"/><circle cx="228" cy="132"/><circle cx="236" cy="116"/><circle cx="252" cy="124"/><circle cx="268" cy="132"/><circle cx="284" cy="140"/><circle cx="300" cy="148"/><circle cx="316" cy="156"/><circle cx="308" cy="172"/><circle cx="292" cy="164"/><circle cx="284" cy="148"/><circle cx="292" cy="132"/><circle cx="276" cy="124"/><circle cx="268" cy="140"/><circle cx="260" cy="124"/><circle cx="276" cy="132"/><circle cx="268" cy="116"/><circle cx="252" cy="108"/><circle cx="244" cy="124"/><circle cx="228" cy="116"/><circle cx="212" cy="124"/><circle cx="196" cy="132"/><circle cx="180" cy="140"/><circle cx="164" cy="148"/><circle cx="156" cy="132"/><circle cx="172" cy="124"/><circle cx="188" cy="116"/><circle cx="204" cy="108"/><circle cx="220" cy="100"/><circle cx="236" cy="108"/><circle cx="220" cy="116"/><circle cx="228" cy="100"/><circle cx="244" cy="92"/><circle cx="260" cy="84"/><circle cx="276" cy="76"/><circle cx="292" cy="68"/><circle cx="284" cy="84"/><circle cx="268" cy="92"/><circle cx="252" cy="100"/><circle cx="244" cy="116"/><circle cx="260" cy="108"/><circle cx="276" cy="100"/><circle cx="292" cy="92"/><circle cx="300" cy="76"/><circle cx="284" cy="68"/><circle cx="292" cy="52"/><circle cx="300" cy="36"/><circle cx="316" cy="44"/><circle cx="308" cy="60"/><circle cx="324" cy="52"/><circle cx="308" cy="44"/><circle cx="316" cy="28"/><circle cx="332" cy="20"/><circle cx="340" cy="4"/><circle cx="348" cy="20"/><circle cx="332" cy="28"/><circle cx="316" cy="36"/><circle cx="324" cy="20"/><circle cx="308" cy="28"/><circle cx="300" cy="44"/><circle cx="284" cy="52"/><circle cx="268" cy="60"/><circle cx="252" cy="68"/><circle cx="236" cy="76"/><circle cx="220" cy="84"/><circle cx="212" cy="68"/><circle cx="196" cy="60"/><circle cx="180" cy="52"/><circle cx="164" cy="44"/><circle cx="148" cy="52"/><circle cx="164" cy="60"/><circle cx="180" cy="68"/><circle cx="196" cy="76"/><circle cx="212" cy="84"/><circle cx="228" cy="76"/><circle cx="244" cy="84"/><circle cx="228" cy="92"/><circle cx="244" cy="100"/><circle cx="252" cy="84"/><circle cx="260" cy="68"/><circle cx="276" cy="60"/><circle cx="268" cy="76"/><circle cx="260" cy="92"/><circle cx="276" cy="84"/><circle cx="260" cy="76"/><circle cx="276" cy="68"/><circle cx="292" cy="60"/><circle cx="284" cy="76"/><circle cx="268" cy="84"/><circle cx="252" cy="92"/><circle cx="244" cy="76"/><circle cx="236" cy="92"/><circle cx="228" cy="108"/><circle cx="212" cy="100"/><circle cx="204" cy="84"/><circle cx="220" cy="92"/><circle cx="212" cy="76"/><circle cx="196" cy="68"/><circle cx="180" cy="60"/><circle cx="188" cy="76"/><circle cx="196" cy="92"/><circle cx="204" cy="76"/><circle cx="212" cy="60"/><circle cx="228" cy="52"/><circle cx="244" cy="44"/><circle cx="260" cy="36"/><circle cx="276" cy="28"/><circle cx="292" cy="20"/><circle cx="308" cy="12"/><circle cx="292" cy="4"/><circle cx="276" cy="12"/><circle cx="260" cy="20"/><circle cx="244" cy="28"/><circle cx="228" cy="36"/><circle cx="212" cy="44"/><circle cx="196" cy="52"/><circle cx="188" cy="68"/><circle cx="172" cy="60"/><circle cx="180" cy="76"/><circle cx="164" cy="68"/><circle cx="172" cy="84"/><circle cx="188" cy="92"/><circle cx="204" cy="100"/><circle cx="196" cy="84"/><circle cx="212" cy="92"/><circle cx="228" cy="84"/><circle cx="236" cy="100"/><circle cx="220" cy="108"/><circle cx="204" cy="116"/><circle cx="188" cy="108"/><circle cx="180" cy="92"/><circle cx="196" cy="100"/><circle cx="188" cy="84"/><circle cx="172" cy="76"/><circle cx="156" cy="68"/><circle cx="164" cy="52"/><circle cx="148" cy="44"/><circle cx="140" cy="60"/><circle cx="124" cy="68"/><circle cx="132" cy="52"/><circle cx="148" cy="60"/><circle cx="132" cy="68"/><circle cx="116" cy="60"/><circle cx="108" cy="76"/><circle cx="92" cy="84"/><circle cx="100" cy="68"/><circle cx="116" cy="76"/><circle cx="100" cy="84"/><circle cx="84" cy="76"/><circle cx="68" cy="84"/><circle cx="84" cy="92"/><circle cx="100" cy="100"/><circle cx="108" cy="84"/><circle cx="116" cy="68"/><circle cx="132" cy="60"/><circle cx="148" cy="68"/><circle cx="132" cy="76"/><circle cx="124" cy="92"/><circle cx="140" cy="84"/><circle cx="124" cy="76"/><circle cx="140" cy="68"/><circle cx="156" cy="60"/><circle cx="172" cy="68"/><circle cx="156" cy="76"/><circle cx="164" cy="92"/><circle cx="180" cy="84"/><circle cx="164" cy="76"/><circle cx="148" cy="84"/><circle cx="140" cy="100"/><circle cx="156" cy="92"/><circle cx="148" cy="76"/><circle cx="132" cy="84"/><circle cx="116" cy="92"/><circle cx="124" cy="108"/><circle cx="108" cy="100"/><circle cx="92" cy="92"/><circle cx="100" cy="76"/><circle cx="116" cy="84"/><circle cx="132" cy="92"/><circle cx="140" cy="76"/><circle cx="156" cy="84"/><circle cx="172" cy="92"/><circle cx="180" cy="108"/><circle cx="164" cy="100"/><circle cx="148" cy="92"/><circle cx="164" cy="84"/><circle cx="172" cy="100"/><circle cx="156" cy="108"/><circle cx="172" cy="116"/><circle cx="180" cy="100"/><circle cx="164" cy="108"/><circle cx="148" cy="100"/><circle cx="140" cy="116"/><circle cx="132" cy="100"/><circle cx="124" cy="84"/><circle cx="108" cy="92"/><circle cx="116" cy="108"/><circle cx="132" cy="116"/><circle cx="124" cy="100"/><circle cx="140" cy="92"/><circle cx="148" cy="108"/><circle cx="156" cy="124"/><circle cx="140" cy="132"/><circle cx="124" cy="124"/><circle cx="132" cy="108"/><circle cx="116" cy="100"/><circle cx="100" cy="92"/><circle cx="84" cy="84"/><circle cx="68" cy="92"/><circle cx="52" cy="100"/><circle cx="60" cy="84"/><circle cx="76" cy="92"/><circle cx="60" cy="100"/><circle cx="52" cy="116"/><circle cx="68" cy="108"/><circle cx="84" cy="100"/><circle cx="100" cy="108"/><circle cx="116" cy="116"/><circle cx="108" cy="132"/><circle cx="100" cy="116"/><circle cx="92" cy="100"/><circle cx="108" cy="108"/><circle cx="116" cy="124"/><circle cx="124" cy="140"/><circle cx="132" cy="124"/><circle cx="148" cy="116"/><circle cx="156" cy="100"/><circle cx="140" cy="108"/><circle cx="124" cy="116"/><circle cx="140" cy="124"/><circle cx="156" cy="116"/><circle cx="172" cy="108"/><circle cx="188" cy="100"/><circle cx="204" cy="92"/><circle cx="196" cy="108"/><circle cx="188" cy="124"/><circle cx="172" cy="132"/><circle cx="164" cy="116"/><circle cx="148" cy="124"/><circle cx="132" cy="132"/><circle cx="148" cy="140"/><circle cx="164" cy="132"/><circle cx="180" cy="124"/><circle cx="196" cy="116"/><circle cx="212" cy="108"/><circle cx="204" cy="124"/><circle cx="188" cy="132"/><circle cx="180" cy="116"/><circle cx="164" cy="124"/><circle cx="148" cy="132"/><circle cx="140" cy="148"/><circle cx="156" cy="140"/><circle cx="148" cy="156"/><circle cx="132" cy="148"/><circle cx="116" cy="140"/><circle cx="100" cy="132"/><circle cx="84" cy="124"/><circle cx="92" cy="140"/><circle cx="108" cy="148"/><circle cx="116" cy="164"/><circle cx="124" cy="148"/><circle cx="108" cy="140"/><circle cx="116" cy="156"/><circle cx="100" cy="164"/><circle cx="84" cy="172"/><circle cx="68" cy="180"/><circle cx="52" cy="188"/><circle cx="36" cy="196"/><circle cx="52" cy="204"/><circle cx="44" cy="220"/><circle cx="28" cy="212"/><circle cx="20" cy="228"/><circle cx="36" cy="236"/><circle cx="52" cy="228"/><circle cx="36" cy="220"/><circle cx="44" cy="204"/><circle cx="60" cy="196"/><circle cx="52" cy="212"/><circle cx="44" cy="228"/><circle cx="28" cy="236"/><circle cx="20" cy="252"/><circle cx="28" cy="268"/><circle cx="36" cy="252"/><circle cx="44" cy="236"/><circle cx="28" cy="244"/><circle cx="36" cy="260"/><circle cx="44" cy="244"/><circle cx="36" cy="228"/><circle cx="44" cy="212"/><circle cx="52" cy="196"/><circle cx="60" cy="180"/><circle cx="76" cy="188"/><circle cx="68" cy="204"/><circle cx="60" cy="220"/><circle cx="52" cy="236"/><circle cx="36" cy="244"/><circle cx="28" cy="260"/><circle cx="20" cy="276"/><circle cx="36" cy="268"/><circle cx="44" cy="252"/><circle cx="60" cy="244"/><circle cx="52" cy="260"/><circle cx="68" cy="268"/><circle cx="52" cy="276"/><circle cx="36" cy="284"/><circle cx="44" cy="268"/><circle cx="52" cy="252"/><circle cx="60" cy="236"/><circle cx="52" cy="220"/><circle cx="60" cy="204"/><circle cx="68" cy="188"/><circle cx="84" cy="180"/><circle cx="100" cy="172"/><circle cx="84" cy="164"/><circle cx="92" cy="180"/><circle cx="108" cy="172"/><circle cx="100" cy="156"/><circle cx="116" cy="148"/><circle cx="100" cy="140"/><circle cx="84" cy="132"/><circle cx="76" cy="116"/><circle cx="68" cy="132"/><circle cx="60" cy="148"/><circle cx="44" cy="156"/><circle cx="28" cy="164"/><circle cx="12" cy="172"/><circle cx="4" cy="188"/><circle cx="20" cy="180"/><circle cx="36" cy="172"/><circle cx="28" cy="188"/><circle cx="20" cy="172"/><circle cx="28" cy="156"/><circle cx="12" cy="164"/><circle cx="4" cy="180"/><circle cx="12" cy="196"/><circle cx="4" cy="212"/><circle cx="20" cy="204"/><circle cx="4" cy="196"/><circle cx="12" cy="180"/><circle cx="4" cy="164"/><circle cx="12" cy="148"/><circle cx="20" cy="164"/><circle cx="28" cy="148"/><circle cx="36" cy="132"/><circle cx="20" cy="124"/><circle cx="36" cy="116"/><circle cx="52" cy="108"/><circle cx="68" cy="116"/><circle cx="52" cy="124"/><circle cx="44" cy="140"/><circle cx="28" cy="132"/><circle cx="12" cy="140"/><circle cx="4" cy="156"/><circle cx="20" cy="148"/><circle cx="36" cy="156"/><circle cx="28" cy="172"/><circle cx="20" cy="156"/><circle cx="28" cy="140"/><circle cx="44" cy="132"/><circle cx="36" cy="148"/><circle cx="52" cy="140"/><circle cx="60" cy="124"/><circle cx="68" cy="140"/><circle cx="52" cy="148"/><circle cx="36" cy="140"/><circle cx="44" cy="124"/><circle cx="60" cy="132"/><circle cx="76" cy="124"/><circle cx="92" cy="132"/><circle cx="100" cy="148"/><circle cx="84" cy="140"/><circle cx="92" cy="156"/><circle cx="76" cy="164"/><circle cx="60" cy="172"/><circle cx="44" cy="164"/><circle cx="60" cy="156"/><circle cx="76" cy="148"/><circle cx="68" cy="164"/><circle cx="84" cy="156"/><circle cx="76" cy="140"/><circle cx="92" cy="148"/><circle cx="108" cy="156"/><circle cx="124" cy="164"/><circle cx="140" cy="172"/><circle cx="156" cy="164"/><circle cx="140" cy="156"/><circle cx="156" cy="148"/><circle cx="172" cy="156"/><circle cx="188" cy="148"/><circle cx="172" cy="140"/><circle cx="180" cy="156"/><circle cx="188" cy="140"/><circle cx="172" cy="148"/><circle cx="156" cy="156"/><circle cx="164" cy="172"/><circle cx="180" cy="164"/><circle cx="196" cy="156"/><circle cx="212" cy="148"/><circle cx="228" cy="140"/><circle cx="212" cy="132"/><circle cx="196" cy="140"/><circle cx="180" cy="148"/><circle cx="164" cy="156"/><circle cx="148" cy="164"/><circle cx="132" cy="172"/><circle cx="148" cy="180"/><circle cx="140" cy="164"/><circle cx="124" cy="156"/><circle cx="132" cy="140"/><circle cx="116" cy="132"/><circle cx="100" cy="124"/><circle cx="84" cy="116"/><circle cx="68" cy="124"/><circle cx="76" cy="108"/><circle cx="92" cy="116"/><circle cx="108" cy="124"/><circle cx="124" cy="132"/><circle cx="140" cy="140"/><circle cx="132" cy="156"/><circle cx="148" cy="148"/><circle cx="164" cy="140"/><circle cx="180" cy="132"/><circle cx="196" cy="124"/><circle cx="204" cy="140"/><circle cx="212" cy="156"/><circle cx="196" cy="148"/><circle cx="204" cy="132"/><circle cx="220" cy="140"/><circle cx="236" cy="148"/><circle cx="244" cy="164"/><circle cx="228" cy="172"/><circle cx="212" cy="180"/><circle cx="220" cy="196"/><circle cx="204" cy="188"/><circle cx="196" cy="204"/><circle cx="180" cy="196"/><circle cx="164" cy="188"/><circle cx="156" cy="172"/><circle cx="172" cy="164"/><circle cx="180" cy="180"/><circle cx="196" cy="172"/><circle cx="188" cy="156"/><circle cx="204" cy="164"/><circle cx="188" cy="172"/><circle cx="196" cy="188"/><circle cx="212" cy="196"/><circle cx="204" cy="180"/><circle cx="220" cy="172"/><circle cx="228" cy="188"/><circle cx="244" cy="180"/><circle cx="260" cy="172"/><circle cx="252" cy="156"/><circle cx="268" cy="164"/><circle cx="284" cy="172"/><circle cx="300" cy="180"/><circle cx="308" cy="196"/><circle cx="316" cy="212"/><circle cx="324" cy="228"/><circle cx="332" cy="244"/><circle cx="348" cy="252"/><circle cx="340" cy="236"/><circle cx="332" cy="220"/><circle cx="316" cy="228"/><circle cx="308" cy="212"/><circle cx="324" cy="204"/><circle cx="316" cy="188"/><circle cx="300" cy="196"/><circle cx="292" cy="180"/><circle cx="276" cy="188"/><circle cx="268" cy="172"/><circle cx="260" cy="156"/><circle cx="244" cy="148"/><circle cx="228" cy="156"/><circle cx="236" cy="172"/><circle cx="252" cy="164"/><circle cx="260" cy="180"/><circle cx="276" cy="172"/><circle cx="284" cy="156"/><circle cx="300" cy="164"/><circle cx="308" cy="180"/><circle cx="316" cy="196"/><circle cx="324" cy="212"/><circle cx="332" cy="228"/><circle cx="340" cy="244"/><circle cx="348" cy="260"/><circle cx="356" cy="276"/><circle cx="364" cy="292"/><circle cx="372" cy="308"/><circle cx="380" cy="324"/><circle cx="388" cy="340"/><circle cx="396" cy="356"/><circle cx="388" cy="372"/><circle cx="380" cy="356"/><circle cx="372" cy="372"/><circle cx="356" cy="380"/><circle cx="348" cy="396"/><circle cx="364" cy="388"/><circle cx="380" cy="396"/><circle cx="396" cy="388"/><circle cx="380" cy="380"/><circle cx="388" cy="364"/><circle cx="372" cy="356"/><circle cx="356" cy="348"/><circle cx="372" cy="340"/><circle cx="364" cy="324"/><circle cx="356" cy="308"/><circle cx="348" cy="292"/><circle cx="340" cy="276"/><circle cx="332" cy="260"/><circle cx="324" cy="244"/><circle cx="308" cy="252"/><circle cx="300" cy="236"/><circle cx="316" cy="244"/><circle cx="324" cy="260"/><circle cx="340" cy="268"/><circle cx="332" cy="252"/><circle cx="324" cy="236"/><circle cx="308" cy="228"/><circle cx="292" cy="220"/><circle cx="284" cy="204"/><circle cx="300" cy="212"/><circle cx="316" cy="220"/><circle cx="308" cy="204"/><circle cx="300" cy="188"/><circle cx="284" cy="180"/><circle cx="276" cy="164"/><circle cx="292" cy="172"/><circle cx="284" cy="188"/><circle cx="268" cy="180"/><circle cx="260" cy="196"/><circle cx="252" cy="180"/><circle cx="236" cy="188"/><circle cx="252" cy="196"/><circle cx="236" cy="204"/><circle cx="252" cy="212"/><circle cx="244" cy="196"/><circle cx="236" cy="180"/><circle cx="228" cy="164"/><circle cx="220" cy="148"/><circle cx="204" cy="156"/><circle cx="188" cy="164"/><circle cx="172" cy="172"/><circle cx="188" cy="180"/><circle cx="196" cy="164"/><circle cx="212" cy="172"/><circle cx="228" cy="180"/><circle cx="244" cy="188"/><circle cx="252" cy="172"/><circle cx="236" cy="164"/><circle cx="220" cy="156"/><circle cx="204" cy="148"/><circle cx="212" cy="164"/><circle cx="220" cy="180"/><circle cx="204" cy="172"/><circle cx="220" cy="164"/><circle cx="236" cy="156"/><circle cx="244" cy="172"/><circle cx="252" cy="188"/><circle cx="268" cy="196"/><circle cx="276" cy="180"/><circle cx="292" cy="188"/><circle cx="300" cy="204"/><circle cx="308" cy="220"/><circle cx="316" cy="236"/><circle cx="324" cy="252"/><circle cx="332" cy="268"/><circle cx="340" cy="284"/><circle cx="348" cy="300"/><circle cx="356" cy="316"/><circle cx="364" cy="332"/><circle cx="372" cy="348"/><circle cx="380" cy="364"/><circle cx="372" cy="380"/><circle cx="364" cy="364"/><circle cx="380" cy="372"/><circle cx="396" cy="380"/><circle cx="388" cy="396"/><circle cx="372" cy="388"/><circle cx="356" cy="396"/><circle cx="364" cy="380"/><circle cx="372" cy="396"/><circle cx="388" cy="388"/><circle cx="396" cy="372"/><circle cx="388" cy="356"/><circle cx="380" cy="340"/><circle cx="396" cy="348"/><circle cx="388" cy="332"/><circle cx="372" cy="324"/><circle cx="364" cy="308"/><circle cx="380" cy="316"/><circle cx="372" cy="300"/><circle cx="356" cy="292"/><circle cx="348" cy="276"/><circle cx="364" cy="284"/><circle cx="356" cy="268"/><circle cx="340" cy="260"/><circle cx="348" cy="244"/><circle cx="364" cy="252"/><circle cx="356" cy="236"/><circle cx="340" cy="228"/><circle cx="324" cy="220"/><circle cx="332" cy="236"/><circle cx="340" cy="252"/><circle cx="356" cy="260"/><circle cx="372" cy="268"/><circle cx="380" cy="284"/><circle cx="364" cy="276"/><circle cx="348" cy="268"/><circle cx="356" cy="284"/><circle cx="372" cy="292"/><circle cx="388" cy="300"/><circle cx="396" cy="316"/><circle cx="380" cy="308"/><circle cx="364" cy="300"/><circle cx="372" cy="316"/><circle cx="388" cy="324"/><circle cx="396" cy="340"/><circle cx="380" cy="332"/><circle cx="396" cy="324"/><circle cx="388" cy="308"/><circle cx="380" cy="292"/><circle cx="396" cy="300"/><circle cx="388" cy="316"/><circle cx="396" cy="332"/><circle cx="388" cy="348"/><circle cx="396" cy="364"/><circle cx="388" cy="380"/><circle cx="396" cy="396"/><circle cx="380" cy="388"/><circle cx="364" cy="396"/><circle cx="348" cy="388"/><circle cx="332" cy="396"/><circle cx="340" cy="380"/><circle cx="348" cy="364"/><circle cx="340" cy="348"/><circle cx="332" cy="364"/><circle cx="324" cy="380"/><circle cx="316" cy="396"/><circle cx="332" cy="388"/><circle cx="340" cy="372"/><circle cx="348" cy="356"/><circle cx="340" cy="340"/><circle cx="324" cy="348"/><circle cx="316" cy="332"/><circle cx="332" cy="340"/><circle cx="340" cy="356"/><circle cx="348" cy="372"/><circle cx="340" cy="388"/><circle cx="324" cy="396"/><circle cx="332" cy="380"/><circle cx="340" cy="364"/><circle cx="348" cy="348"/><circle cx="356" cy="364"/><circle cx="348" cy="380"/><circle cx="340" cy="396"/><circle cx="356" cy="388"/><circle cx="364" cy="372"/><circle cx="356" cy="356"/><circle cx="364" cy="340"/><circle cx="356" cy="324"/><circle cx="372" cy="332"/><circle cx="380" cy="348"/><circle cx="372" cy="364"/><circle cx="356" cy="372"/><circle cx="364" cy="356"/><circle cx="356" cy="340"/><circle cx="340" cy="332"/><circle cx="348" cy="316"/><circle cx="332" cy="308"/><circle cx="324" cy="324"/><circle cx="308" cy="316"/><circle cx="316" cy="300"/><circle cx="324" cy="316"/><circle cx="340" cy="324"/><circle cx="356" cy="332"/><circle cx="364" cy="348"/><circle cx="348" cy="340"/><circle cx="332" cy="332"/><circle cx="316" cy="324"/><circle cx="308" cy="308"/><circle cx="300" cy="292"/><circle cx="292" cy="276"/><circle cx="284" cy="260"/><circle cx="276" cy="244"/><circle cx="292" cy="236"/><circle cx="284" cy="220"/><circle cx="268" cy="228"/><circle cx="252" cy="220"/><circle cx="268" cy="212"/><circle cx="276" cy="228"/><circle cx="260" cy="236"/><circle cx="268" cy="252"/><circle cx="276" cy="236"/><circle cx="260" cy="228"/><circle cx="252" cy="244"/><circle cx="244" cy="228"/><circle cx="260" cy="220"/><circle cx="252" cy="204"/><circle cx="236" cy="212"/><circle cx="220" cy="204"/><circle cx="212" cy="188"/><circle cx="228" cy="196"/><circle cx="244" cy="204"/><circle cx="260" cy="212"/><circle cx="276" cy="204"/><circle cx="292" cy="196"/><circle cx="284" cy="212"/><circle cx="268" cy="204"/><circle cx="260" cy="188"/><circle cx="276" cy="196"/><circle cx="292" cy="204"/><circle cx="300" cy="220"/><circle cx="308" cy="236"/><circle cx="316" cy="252"/><circle cx="324" cy="268"/><circle cx="332" cy="284"/><circle cx="316" cy="276"/><circle cx="308" cy="260"/><circle cx="300" cy="244"/><circle cx="292" cy="228"/><circle cx="276" cy="220"/><circle cx="292" cy="212"/><circle cx="284" cy="196"/><circle cx="268" cy="188"/><circle cx="260" cy="204"/><circle cx="276" cy="212"/><circle cx="284" cy="228"/><circle cx="268" cy="220"/><circle cx="252" cy="228"/><circle cx="268" cy="236"/><circle cx="284" cy="244"/><circle cx="300" cy="252"/><circle cx="316" cy="260"/><circle cx="324" cy="276"/><circle cx="308" cy="268"/><circle cx="292" cy="260"/><circle cx="300" cy="276"/><circle cx="316" cy="268"/><circle cx="332" cy="276"/><circle cx="348" cy="284"/><circle cx="340" cy="300"/><circle cx="324" cy="292"/><circle cx="308" cy="284"/><circle cx="300" cy="268"/><circle cx="292" cy="252"/><circle cx="308" cy="244"/><circle cx="300" cy="228"/><circle cx="284" cy="236"/><circle cx="276" cy="252"/><circle cx="292" cy="244"/><circle cx="300" cy="260"/><circle cx="284" cy="268"/><circle cx="292" cy="284"/><circle cx="308" cy="276"/><circle cx="324" cy="284"/><circle cx="308" cy="292"/><circle cx="324" cy="300"/><circle cx="340" cy="292"/><circle cx="356" cy="300"/><circle cx="364" cy="316"/><circle cx="348" cy="308"/><circle cx="332" cy="300"/><circle cx="316" cy="292"/><circle cx="300" cy="300"/><circle cx="316" cy="308"/><circle cx="332" cy="316"/><circle cx="348" cy="324"/><circle cx="340" cy="308"/><circle cx="332" cy="292"/><circle cx="316" cy="284"/><circle cx="308" cy="300"/><circle cx="324" cy="308"/><circle cx="340" cy="316"/><circle cx="348" cy="332"/><circle cx="332" cy="324"/><circle cx="316" cy="316"/><circle cx="300" cy="324"/><circle cx="292" cy="308"/><circle cx="284" cy="292"/><circle cx="300" cy="284"/><circle cx="292" cy="268"/><circle cx="276" cy="276"/><circle cx="268" cy="260"/><circle cx="252" cy="252"/><circle cx="236" cy="244"/><circle cx="220" cy="236"/><circle cx="228" cy="220"/><circle cx="236" cy="236"/><circle cx="244" cy="220"/><circle cx="228" cy="212"/><circle cx="220" cy="228"/><circle cx="204" cy="236"/><circle cx="212" cy="220"/><circle cx="196" cy="212"/><circle cx="204" cy="196"/><circle cx="212" cy="212"/><circle cx="204" cy="228"/><circle cx="188" cy="236"/><circle cx="172" cy="228"/><circle cx="156" cy="220"/><circle cx="140" cy="228"/><circle cx="156" cy="236"/><circle cx="140" cy="244"/><circle cx="124" cy="236"/><circle cx="132" cy="252"/><circle cx="116" cy="260"/><circle cx="108" cy="244"/><circle cx="124" cy="252"/><circle cx="108" cy="260"/><circle cx="92" cy="268"/><circle cx="100" cy="252"/><circle cx="116" cy="244"/><circle cx="132" cy="236"/><circle cx="148" cy="228"/><circle cx="164" cy="220"/><circle cx="172" cy="236"/><circle cx="156" cy="228"/><circle cx="164" cy="212"/><circle cx="148" cy="220"/><circle cx="140" cy="236"/><circle cx="124" cy="244"/><circle cx="108" cy="236"/><circle cx="124" cy="228"/><circle cx="140" cy="220"/><circle cx="156" cy="212"/><circle cx="172" cy="204"/><circle cx="188" cy="196"/><circle cx="204" cy="204"/><circle cx="220" cy="212"/><circle cx="236" cy="220"/><circle cx="228" cy="204"/><circle cx="244" cy="212"/><circle cx="236" cy="196"/><circle cx="220" cy="188"/><circle cx="212" cy="204"/><circle cx="204" cy="220"/><circle cx="188" cy="212"/><circle cx="196" cy="196"/><circle cx="180" cy="204"/><circle cx="172" cy="220"/><circle cx="188" cy="228"/><circle cx="180" cy="212"/><circle cx="196" cy="220"/><circle cx="188" cy="204"/><circle cx="172" cy="212"/><circle cx="188" cy="220"/><circle cx="196" cy="236"/><circle cx="212" cy="244"/><circle cx="228" cy="252"/><circle cx="212" cy="260"/><circle cx="220" cy="244"/><circle cx="228" cy="228"/><circle cx="244" cy="236"/><circle cx="260" cy="244"/><circle cx="244" cy="252"/><circle cx="260" cy="260"/><circle cx="276" cy="268"/><circle cx="284" cy="252"/><circle cx="268" cy="244"/><circle cx="252" cy="236"/><circle cx="236" cy="228"/><circle cx="220" cy="220"/><circle cx="204" cy="212"/><circle cx="212" cy="228"/><circle cx="204" cy="244"/><circle cx="220" cy="252"/><circle cx="212" cy="236"/><circle cx="228" cy="244"/><circle cx="236" cy="260"/><circle cx="252" cy="268"/><circle cx="268" cy="276"/><circle cx="284" cy="284"/><circle cx="292" cy="300"/><circle cx="276" cy="292"/><circle cx="260" cy="284"/><circle cx="268" cy="300"/><circle cx="284" cy="308"/><circle cx="300" cy="316"/><circle cx="308" cy="332"/><circle cx="316" cy="348"/><circle cx="300" cy="340"/><circle cx="292" cy="324"/><circle cx="276" cy="316"/><circle cx="284" cy="332"/><circle cx="292" cy="316"/><circle cx="284" cy="300"/><circle cx="276" cy="284"/><circle cx="268" cy="268"/><circle cx="252" cy="260"/><circle cx="236" cy="252"/><circle cx="228" cy="236"/><circle cx="244" cy="244"/><circle cx="260" cy="252"/><circle cx="276" cy="260"/><circle cx="284" cy="276"/><circle cx="292" cy="292"/><circle cx="300" cy="308"/><circle cx="308" cy="324"/><circle cx="316" cy="340"/><circle cx="300" cy="332"/><circle cx="292" cy="348"/><circle cx="308" cy="340"/><circle cx="324" cy="332"/><circle cx="332" cy="348"/><circle cx="316" cy="356"/><circle cx="324" cy="340"/><circle cx="332" cy="356"/><circle cx="324" cy="372"/><circle cx="316" cy="388"/><circle cx="300" cy="396"/><circle cx="284" cy="388"/><circle cx="276" cy="372"/><circle cx="292" cy="364"/><circle cx="284" cy="380"/><circle cx="276" cy="396"/><circle cx="292" cy="388"/><circle cx="300" cy="372"/><circle cx="292" cy="356"/><circle cx="276" cy="348"/><circle cx="268" cy="332"/><circle cx="260" cy="316"/><circle cx="252" cy="300"/><circle cx="236" cy="292"/><circle cx="252" cy="284"/><circle cx="244" cy="300"/><circle cx="228" cy="292"/><circle cx="212" cy="284"/><circle cx="196" cy="276"/><circle cx="180" cy="268"/><circle cx="188" cy="252"/><circle cx="204" cy="260"/><circle cx="220" cy="268"/><circle cx="236" cy="276"/><circle cx="220" cy="284"/><circle cx="204" cy="276"/><circle cx="196" cy="260"/><circle cx="212" cy="268"/><circle cx="204" cy="252"/><circle cx="220" cy="260"/><circle cx="228" cy="276"/><circle cx="244" cy="284"/><circle cx="236" cy="268"/><circle cx="252" cy="276"/><circle cx="244" cy="260"/><circle cx="260" cy="268"/><circle cx="268" cy="284"/><circle cx="276" cy="300"/><circle cx="260" cy="292"/><circle cx="268" cy="308"/><circle cx="284" cy="316"/><circle cx="292" cy="332"/><circle cx="276" cy="324"/><circle cx="284" cy="340"/><circle cx="300" cy="348"/><circle cx="308" cy="364"/><circle cx="292" cy="372"/><circle cx="284" cy="356"/><circle cx="276" cy="340"/><circle cx="268" cy="324"/><circle cx="260" cy="308"/><circle cx="252" cy="292"/><circle cx="244" cy="276"/><circle cx="228" cy="268"/><circle cx="236" cy="284"/><circle cx="220" cy="276"/><circle cx="204" cy="268"/><circle cx="188" cy="260"/><circle cx="172" cy="268"/><circle cx="156" cy="260"/><circle cx="164" cy="244"/><circle cx="180" cy="252"/><circle cx="188" cy="268"/><circle cx="172" cy="260"/><circle cx="180" cy="276"/><circle cx="196" cy="268"/><circle cx="212" cy="276"/><circle cx="196" cy="284"/><circle cx="212" cy="292"/><circle cx="228" cy="284"/><circle cx="244" cy="292"/><circle cx="228" cy="300"/><circle cx="244" cy="308"/><circle cx="260" cy="300"/><circle cx="268" cy="316"/><circle cx="252" cy="324"/><circle cx="260" cy="340"/><circle cx="276" cy="332"/><circle cx="268" cy="348"/><circle cx="276" cy="364"/><circle cx="284" cy="348"/><circle cx="268" cy="356"/><circle cx="260" cy="372"/><circle cx="252" cy="356"/><circle cx="236" cy="364"/><circle cx="220" cy="372"/><circle cx="204" cy="380"/><circle cx="196" cy="396"/><circle cx="212" cy="388"/><circle cx="228" cy="380"/><circle cx="244" cy="372"/><circle cx="228" cy="364"/><circle cx="220" cy="380"/><circle cx="212" cy="396"/><circle cx="228" cy="388"/><circle cx="244" cy="380"/><circle cx="252" cy="364"/><circle cx="236" cy="372"/><circle cx="244" cy="356"/><circle cx="252" cy="372"/><circle cx="268" cy="364"/><circle cx="260" cy="348"/><circle cx="276" cy="356"/><circle cx="260" cy="364"/><circle cx="252" cy="380"/><circle cx="268" cy="372"/><circle cx="284" cy="364"/><circle cx="276" cy="380"/><circle cx="260" cy="388"/><circle cx="244" cy="396"/><circle cx="236" cy="380"/><circle cx="228" cy="396"/><circle cx="244" cy="388"/><circle cx="260" cy="396"/><circle cx="268" cy="380"/><circle cx="284" cy="372"/><circle cx="276" cy="388"/><circle cx="260" cy="380"/><circle cx="268" cy="396"/><circle cx="252" cy="388"/><circle cx="236" cy="396"/><circle cx="220" cy="388"/><circle cx="204" cy="396"/><circle cx="188" cy="388"/><circle cx="180" cy="372"/><circle cx="164" cy="364"/><circle cx="156" cy="380"/><circle cx="148" cy="396"/><circle cx="164" cy="388"/><circle cx="172" cy="372"/><circle cx="180" cy="356"/><circle cx="196" cy="348"/><circle cx="188" cy="364"/><circle cx="180" cy="380"/><circle cx="196" cy="372"/><circle cx="212" cy="364"/><circle cx="228" cy="356"/><circle cx="244" cy="348"/><circle cx="252" cy="332"/><circle cx="236" cy="340"/><circle cx="220" cy="348"/><circle cx="204" cy="356"/><circle cx="212" cy="340"/><circle cx="220" cy="356"/><circle cx="204" cy="364"/><circle cx="188" cy="372"/><circle cx="172" cy="380"/><circle cx="164" cy="396"/><circle cx="180" cy="388"/><circle cx="196" cy="380"/><circle cx="212" cy="372"/><circle cx="196" cy="364"/><circle cx="188" cy="380"/><circle cx="180" cy="396"/><circle cx="196" cy="388"/><circle cx="204" cy="372"/><circle cx="212" cy="356"/><circle cx="228" cy="348"/><circle cx="220" cy="364"/><circle cx="212" cy="380"/><circle cx="228" cy="372"/><circle cx="236" cy="356"/><circle cx="244" cy="340"/><circle cx="228" cy="332"/><circle cx="244" cy="324"/><circle cx="236" cy="308"/><circle cx="252" cy="316"/><circle cx="260" cy="332"/><circle cx="252" cy="348"/><circle cx="244" cy="364"/><circle cx="236" cy="348"/><circle cx="252" cy="340"/><circle cx="260" cy="356"/><circle cx="268" cy="340"/><circle cx="260" cy="324"/><circle cx="244" cy="332"/><circle cx="236" cy="316"/><circle cx="252" cy="308"/><circle cx="236" cy="300"/><circle cx="220" cy="308"/><circle cx="204" cy="300"/><circle cx="220" cy="292"/><circle cx="204" cy="284"/><circle cx="188" cy="292"/><circle cx="172" cy="284"/><circle cx="188" cy="276"/><circle cx="196" cy="292"/><circle cx="180" cy="284"/><circle cx="164" cy="276"/><circle cx="148" cy="268"/><circle cx="132" cy="260"/><circle cx="148" cy="252"/><circle cx="164" cy="260"/><circle cx="156" cy="276"/><circle cx="140" cy="268"/><circle cx="124" cy="276"/><circle cx="140" cy="284"/><circle cx="124" cy="292"/><circle cx="108" cy="300"/><circle cx="116" cy="284"/><circle cx="132" cy="276"/><circle cx="116" cy="268"/><circle cx="100" cy="276"/><circle cx="84" cy="284"/><circle cx="68" cy="292"/><circle cx="52" cy="300"/><circle cx="36" cy="308"/><circle cx="52" cy="316"/><circle cx="68" cy="308"/><circle cx="84" cy="300"/><circle cx="100" cy="292"/><circle cx="92" cy="308"/><circle cx="76" cy="316"/><circle cx="60" cy="324"/><circle cx="44" cy="332"/><circle cx="28" cy="324"/><circle cx="44" cy="316"/><circle cx="36" cy="332"/><circle cx="20" cy="340"/><circle cx="36" cy="348"/><circle cx="52" cy="356"/><circle cx="44" cy="372"/><circle cx="60" cy="380"/><circle cx="68" cy="396"/><circle cx="84" cy="388"/><circle cx="68" cy="380"/><circle cx="52" cy="372"/><circle cx="36" cy="364"/><circle cx="44" cy="380"/><circle cx="52" cy="396"/><circle cx="36" cy="388"/><circle cx="28" cy="372"/><circle cx="20" cy="356"/><circle cx="28" cy="340"/><circle cx="36" cy="356"/><circle cx="44" cy="340"/><circle cx="52" cy="324"/><circle cx="60" cy="308"/><circle cx="76" cy="300"/><circle cx="68" cy="316"/><circle cx="84" cy="308"/><circle cx="92" cy="292"/><circle cx="108" cy="284"/><circle cx="100" cy="300"/><circle cx="116" cy="292"/><circle cx="132" cy="300"/><circle cx="116" cy="308"/><circle cx="100" cy="316"/><circle cx="84" cy="324"/><circle cx="68" cy="332"/><circle cx="52" cy="340"/><circle cx="44" cy="324"/><circle cx="60" cy="316"/><circle cx="76" cy="308"/><circle cx="92" cy="300"/><circle cx="108" cy="292"/><circle cx="124" cy="284"/><circle cx="140" cy="276"/><circle cx="148" cy="292"/><circle cx="132" cy="284"/><circle cx="148" cy="276"/><circle cx="164" cy="284"/><circle cx="180" cy="292"/><circle cx="188" cy="308"/><circle cx="172" cy="316"/><circle cx="164" cy="300"/><circle cx="156" cy="284"/><circle cx="148" cy="300"/><circle cx="164" cy="308"/><circle cx="172" cy="324"/><circle cx="156" cy="316"/><circle cx="164" cy="332"/><circle cx="156" cy="348"/><circle cx="148" cy="364"/><circle cx="164" cy="356"/><circle cx="172" cy="340"/><circle cx="180" cy="324"/><circle cx="172" cy="308"/><circle cx="164" cy="324"/><circle cx="156" cy="308"/><circle cx="140" cy="300"/><circle cx="156" cy="292"/><circle cx="172" cy="300"/><circle cx="164" cy="316"/><circle cx="156" cy="332"/><circle cx="164" cy="348"/><circle cx="148" cy="340"/><circle cx="132" cy="332"/><circle cx="148" cy="324"/><circle cx="132" cy="316"/><circle cx="116" cy="324"/><circle cx="108" cy="308"/><circle cx="124" cy="316"/><circle cx="140" cy="324"/><circle cx="132" cy="308"/><circle cx="148" cy="316"/><circle cx="156" cy="300"/><circle cx="140" cy="308"/><circle cx="124" cy="300"/><circle cx="140" cy="292"/><circle cx="148" cy="308"/><circle cx="156" cy="324"/><circle cx="172" cy="332"/><circle cx="180" cy="316"/><circle cx="188" cy="332"/><circle cx="196" cy="316"/><circle cx="188" cy="300"/><circle cx="172" cy="292"/><circle cx="180" cy="308"/><circle cx="188" cy="324"/><circle cx="180" cy="340"/><circle cx="196" cy="332"/><circle cx="204" cy="316"/><circle cx="196" cy="300"/><circle cx="188" cy="316"/><circle cx="180" cy="332"/><circle cx="196" cy="324"/><circle cx="204" cy="308"/><circle cx="212" cy="324"/><circle cx="204" cy="340"/><circle cx="188" cy="348"/><circle cx="172" cy="356"/><circle cx="156" cy="364"/><circle cx="140" cy="372"/><circle cx="124" cy="380"/><circle cx="116" cy="396"/><circle cx="132" cy="388"/><circle cx="148" cy="380"/><circle cx="164" cy="372"/><circle cx="180" cy="364"/><circle cx="172" cy="348"/><circle cx="188" cy="340"/><circle cx="196" cy="356"/><circle cx="180" cy="348"/><circle cx="196" cy="340"/><circle cx="212" cy="348"/><circle cx="204" cy="332"/><circle cx="212" cy="316"/><circle cx="220" cy="332"/><circle cx="204" cy="324"/><circle cx="212" cy="308"/><circle cx="220" cy="324"/><circle cx="228" cy="340"/><circle cx="212" cy="332"/><circle cx="220" cy="316"/><circle cx="236" cy="324"/><circle cx="228" cy="308"/><circle cx="212" cy="300"/><circle cx="196" cy="308"/><circle cx="180" cy="300"/><circle cx="164" cy="292"/><circle cx="148" cy="284"/><circle cx="156" cy="268"/><circle cx="172" cy="276"/><circle cx="188" cy="284"/><circle cx="204" cy="292"/><circle cx="220" cy="300"/><circle cx="228" cy="316"/><circle cx="236" cy="332"/><circle cx="244" cy="316"/><circle cx="228" cy="324"/><circle cx="220" cy="340"/><circle cx="204" cy="348"/><circle cx="188" cy="356"/><circle cx="172" cy="364"/><circle cx="156" cy="372"/><circle cx="140" cy="380"/><circle cx="132" cy="396"/><circle cx="148" cy="388"/><circle cx="132" cy="380"/><circle cx="148" cy="372"/><circle cx="164" cy="380"/><circle cx="172" cy="396"/><circle cx="156" cy="388"/><circle cx="140" cy="396"/><circle cx="124" cy="388"/><circle cx="108" cy="396"/><circle cx="100" cy="380"/><circle cx="116" cy="372"/><circle cx="124" cy="356"/><circle cx="108" cy="364"/><circle cx="100" cy="348"/><circle cx="92" cy="332"/><circle cx="108" cy="324"/><circle cx="116" cy="340"/><circle cx="100" cy="332"/><circle cx="92" cy="316"/><circle cx="76" cy="324"/><circle cx="84" cy="340"/><circle cx="68" cy="348"/><circle cx="60" cy="364"/><circle cx="52" cy="348"/><circle cx="60" cy="332"/><circle cx="76" cy="340"/><circle cx="92" cy="348"/><circle cx="100" cy="364"/><circle cx="84" cy="356"/><circle cx="76" cy="372"/><circle cx="92" cy="380"/><circle cx="100" cy="396"/><circle cx="108" cy="380"/><circle cx="92" cy="372"/><circle cx="76" cy="364"/><circle cx="84" cy="348"/><circle cx="68" cy="356"/><circle cx="84" cy="364"/><circle cx="100" cy="356"/><circle cx="116" cy="364"/><circle cx="132" cy="372"/><circle cx="140" cy="356"/><circle cx="132" cy="340"/><circle cx="124" cy="324"/><circle cx="108" cy="316"/><circle cx="116" cy="300"/><circle cx="132" cy="292"/><circle cx="124" cy="308"/><circle cx="140" cy="316"/><circle cx="148" cy="332"/><circle cx="164" cy="340"/><circle cx="156" cy="356"/><circle cx="140" cy="364"/><circle cx="148" cy="348"/><circle cx="132" cy="356"/><circle cx="124" cy="372"/><circle cx="116" cy="388"/><circle cx="108" cy="372"/><circle cx="92" cy="364"/><circle cx="76" cy="356"/><circle cx="68" cy="340"/><circle cx="60" cy="356"/><circle cx="76" cy="348"/><circle cx="92" cy="340"/><circle cx="108" cy="348"/><circle cx="92" cy="356"/><circle cx="84" cy="372"/><circle cx="92" cy="388"/><circle cx="76" cy="396"/><circle cx="60" cy="388"/><circle cx="44" cy="396"/><circle cx="28" cy="388"/><circle cx="12" cy="396"/><circle cx="4" cy="380"/><circle cx="20" cy="388"/><circle cx="4" cy="396"/><circle cx="12" cy="380"/><circle cx="4" cy="364"/><circle cx="12" cy="348"/><circle cx="4" cy="332"/><circle cx="12" cy="316"/><circle cx="4" cy="300"/><circle cx="20" cy="308"/><circle cx="36" cy="316"/><circle cx="28" cy="332"/><circle cx="20" cy="348"/><circle cx="28" cy="364"/><circle cx="44" cy="356"/><circle cx="36" cy="340"/><circle cx="52" cy="332"/><circle cx="68" cy="324"/><circle cx="84" cy="316"/><circle cx="100" cy="308"/><circle cx="92" cy="324"/><circle cx="76" cy="332"/><circle cx="60" cy="340"/><circle cx="44" cy="348"/><circle cx="28" cy="356"/><circle cx="36" cy="372"/><circle cx="20" cy="380"/><circle cx="12" cy="364"/><circle cx="4" cy="348"/><circle cx="12" cy="332"/><circle cx="20" cy="316"/><circle cx="36" cy="324"/><circle cx="28" cy="308"/><circle cx="12" cy="300"/><circle cx="4" cy="316"/><circle cx="20" cy="324"/><circle cx="12" cy="308"/><circle cx="28" cy="300"/><circle cx="44" cy="292"/><circle cx="28" cy="284"/><circle cx="20" cy="268"/><circle cx="4" cy="276"/><circle cx="12" cy="292"/><circle cx="4" cy="308"/><circle cx="20" cy="300"/><circle cx="4" cy="292"/><circle cx="12" cy="276"/><circle cx="4" cy="260"/><circle cx="12" cy="244"/><circle cx="4" cy="228"/><circle cx="12" cy="212"/><circle cx="20" cy="196"/><circle cx="28" cy="180"/><circle cx="44" cy="172"/><circle cx="60" cy="164"/><circle cx="76" cy="172"/><circle cx="68" cy="156"/><circle cx="60" cy="140"/><circle cx="44" cy="148"/><circle cx="52" cy="164"/><circle cx="44" cy="180"/><circle cx="36" cy="164"/><circle cx="52" cy="156"/><circle cx="68" cy="148"/><circle cx="76" cy="132"/><circle cx="84" cy="148"/><circle cx="92" cy="164"/><circle cx="76" cy="156"/><circle cx="68" cy="172"/><circle cx="60" cy="188"/><circle cx="44" cy="196"/><circle cx="52" cy="180"/><circle cx="36" cy="188"/><circle cx="28" cy="204"/><circle cx="20" cy="220"/><circle cx="36" cy="212"/><circle cx="28" cy="228"/><circle cx="20" cy="244"/><circle cx="12" cy="260"/><circle cx="28" cy="252"/><circle cx="20" cy="236"/><circle cx="4" cy="244"/><circle cx="12" cy="228"/><circle cx="28" cy="220"/><circle cx="36" cy="204"/><circle cx="20" cy="212"/><circle cx="28" cy="196"/><circle cx="44" cy="188"/><circle cx="52" cy="172"/><circle cx="36" cy="180"/><circle cx="20" cy="188"/><circle cx="12" cy="204"/><circle cx="4" cy="220"/><circle cx="12" cy="236"/><circle cx="4" cy="252"/><circle cx="20" cy="260"/><circle cx="28" cy="276"/><circle cx="20" cy="292"/><circle cx="4" cy="284"/><circle cx="12" cy="268"/><circle cx="20" cy="284"/><circle cx="36" cy="292"/><circle cx="44" cy="276"/><circle cx="60" cy="284"/><circle cx="76" cy="292"/><circle cx="60" cy="300"/><circle cx="44" cy="308"/><circle cx="28" cy="316"/><circle cx="12" cy="324"/><circle cx="4" cy="340"/><circle cx="20" cy="332"/><circle cx="4" cy="324"/><circle cx="12" cy="340"/><circle cx="28" cy="348"/><circle cx="20" cy="364"/><circle cx="4" cy="356"/><circle cx="12" cy="372"/><circle cx="4" cy="388"/><circle cx="20" cy="396"/><circle cx="28" cy="380"/><circle cx="36" cy="396"/><circle cx="52" cy="388"/><circle cx="36" cy="380"/><circle cx="20" cy="372"/><circle cx="12" cy="356"/><circle cx="4" cy="372"/><circle cx="12" cy="388"/><circle cx="28" cy="396"/><circle cx="44" cy="388"/><circle cx="60" cy="396"/><circle cx="76" cy="388"/><circle cx="68" cy="372"/><circle cx="52" cy="364"/><circle cx="60" cy="348"/><circle cx="68" cy="364"/><circle cx="76" cy="380"/><circle cx="60" cy="372"/><circle cx="44" cy="364"/><circle cx="52" cy="380"/><circle cx="68" cy="388"/><circle cx="84" cy="396"/><circle cx="100" cy="388"/><circle cx="116" cy="380"/><circle cx="124" cy="364"/><circle cx="116" cy="348"/><circle cx="108" cy="332"/><circle cx="116" cy="316"/><circle cx="124" cy="332"/><circle cx="132" cy="348"/><circle cx="140" cy="332"/><circle cx="156" cy="340"/><circle cx="148" cy="356"/><circle cx="140" cy="340"/><circle cx="132" cy="324"/><circle cx="124" cy="340"/><circle cx="140" cy="348"/><circle cx="132" cy="364"/><circle cx="116" cy="356"/><circle cx="108" cy="340"/><circle cx="124" cy="348"/><circle cx="116" cy="332"/><circle cx="100" cy="324"/><circle cx="84" cy="332"/><circle cx="100" cy="340"/><circle cx="108" cy="356"/><circle cx="100" cy="372"/><circle cx="84" cy="380"/><circle cx="92" cy="396"/><circle cx="108" cy="388"/><circle cx="124" cy="396"/><circle cx="140" cy="388"/><circle cx="156" cy="396"/><circle cx="172" cy="388"/><circle cx="188" cy="396"/><circle cx="204" cy="388"/><circle cx="220" cy="396"/><circle cx="236" cy="388"/><circle cx="252" cy="396"/><circle cx="268" cy="388"/><circle cx="284" cy="396"/><circle cx="300" cy="388"/><circle cx="316" cy="380"/><circle cx="308" cy="396"/><circle cx="300" cy="380"/><circle cx="292" cy="396"/><circle cx="308" cy="388"/><circle cx="292" cy="380"/><circle cx="300" cy="364"/><circle cx="308" cy="380"/><circle cx="324" cy="388"/><circle cx="316" cy="372"/><circle cx="308" cy="356"/><circle cx="324" cy="364"/><circle cx="308" cy="372"/><circle cx="300" cy="356"/><circle cx="316" cy="364"/><circle cx="332" cy="372"/><circle cx="324" cy="356"/><circle cx="308" cy="348"/><circle cx="292" cy="340"/><circle cx="284" cy="324"/><circle cx="276" cy="308"/><circle cx="268" cy="292"/><circle cx="260" cy="276"/><circle cx="244" cy="268"/><circle cx="228" cy="260"/><circle cx="212" cy="252"/><circle cx="196" cy="244"/><circle cx="180" cy="236"/><circle cx="172" cy="252"/><circle cx="164" cy="268"/><circle cx="156" cy="252"/><circle cx="172" cy="244"/><circle cx="180" cy="228"/><circle cx="164" cy="236"/><circle cx="148" cy="244"/><circle cx="140" cy="260"/><circle cx="124" cy="268"/><circle cx="108" cy="276"/><circle cx="100" cy="260"/><circle cx="116" cy="252"/><circle cx="132" cy="244"/><circle cx="148" cy="236"/><circle cx="164" cy="228"/><circle cx="180" cy="220"/><circle cx="196" cy="228"/><circle cx="188" cy="244"/><circle cx="180" cy="260"/><circle cx="196" cy="252"/><circle cx="180" cy="244"/><circle cx="164" cy="252"/><circle cx="148" cy="260"/><circle cx="156" cy="244"/><circle cx="140" cy="252"/><circle cx="132" cy="268"/><circle cx="116" cy="276"/><circle cx="100" cy="268"/><circle cx="84" cy="260"/><circle cx="76" cy="276"/><circle cx="92" cy="284"/><circle cx="84" cy="268"/><circle cx="92" cy="252"/><circle cx="100" cy="236"/><circle cx="108" cy="220"/><circle cx="116" cy="204"/><circle cx="132" cy="196"/><circle cx="148" cy="188"/><circle cx="164" cy="180"/><circle cx="172" cy="196"/><circle cx="188" cy="188"/><circle cx="180" cy="172"/><circle cx="196" cy="180"/><circle cx="180" cy="188"/><circle cx="164" cy="196"/><circle cx="148" cy="204"/><circle cx="132" cy="212"/><circle cx="116" cy="220"/><circle cx="132" cy="228"/><circle cx="140" cy="212"/><circle cx="156" cy="204"/><circle cx="140" cy="196"/><circle cx="124" cy="204"/><circle cx="132" cy="188"/><circle cx="148" cy="196"/><circle cx="164" cy="204"/><circle cx="172" cy="188"/><circle cx="156" cy="196"/><circle cx="140" cy="204"/><circle cx="124" cy="212"/><circle cx="116" cy="228"/><circle cx="132" cy="220"/><circle cx="148" cy="212"/><circle cx="132" cy="204"/><circle cx="116" cy="196"/><circle cx="108" cy="212"/><circle cx="124" cy="220"/><circle cx="116" cy="236"/><circle cx="100" cy="228"/><circle cx="92" cy="244"/><circle cx="108" cy="252"/><circle cx="124" cy="260"/><circle cx="108" cy="268"/><circle cx="100" cy="284"/><circle cx="84" cy="292"/><circle cx="68" cy="284"/><circle cx="84" cy="276"/><circle cx="92" cy="260"/><circle cx="100" cy="244"/><circle cx="92" cy="228"/><circle cx="84" cy="244"/><circle cx="76" cy="260"/><circle cx="68" cy="244"/><circle cx="76" cy="228"/><circle cx="84" cy="212"/><circle cx="92" cy="196"/><circle cx="100" cy="212"/><circle cx="108" cy="196"/><circle cx="100" cy="180"/><circle cx="116" cy="172"/><circle cx="124" cy="188"/><circle cx="140" cy="180"/><circle cx="132" cy="164"/><circle cx="124" cy="180"/><circle cx="108" cy="188"/><circle cx="124" cy="196"/><circle cx="140" cy="188"/><circle cx="156" cy="180"/><circle cx="164" cy="164"/><circle cx="172" cy="180"/><circle cx="156" cy="188"/><circle cx="148" cy="172"/><circle cx="132" cy="180"/><circle cx="116" cy="188"/><circle cx="108" cy="204"/><circle cx="92" cy="212"/><circle cx="84" cy="228"/><circle cx="100" cy="220"/><circle cx="116" cy="212"/><circle cx="100" cy="204"/><circle cx="92" cy="220"/><circle cx="108" cy="228"/><circle cx="92" cy="236"/><circle cx="76" cy="244"/><circle cx="68" cy="260"/><circle cx="84" cy="252"/><circle cx="76" cy="268"/><circle cx="92" cy="276"/><circle cx="76" cy="284"/><circle cx="68" cy="300"/><circle cx="52" cy="308"/><circle cx="36" cy="300"/><circle cx="52" cy="292"/><circle cx="60" cy="276"/><circle cx="44" cy="284"/><circle cx="60" cy="292"/><circle cx="68" cy="276"/><circle cx="60" cy="260"/><circle cx="76" cy="252"/><circle cx="84" cy="236"/><circle cx="68" cy="228"/><circle cx="84" cy="220"/><circle cx="92" cy="204"/><circle cx="76" cy="212"/><circle cx="84" cy="196"/><circle cx="100" cy="188"/><circle cx="116" cy="180"/><circle cx="108" cy="164"/><circle cx="124" cy="172"/><circle cx="108" cy="180"/><circle cx="92" cy="172"/><circle cx="76" cy="180"/><circle cx="92" cy="188"/><circle cx="76" cy="196"/><circle cx="68" cy="212"/><circle cx="60" cy="228"/><circle cx="52" cy="244"/><circle cx="44" cy="260"/><circle cx="36" cy="276"/><circle cx="52" cy="268"/><circle cx="60" cy="252"/><circle cx="68" cy="236"/><circle cx="76" cy="220"/><circle cx="60" cy="212"/><circle cx="68" cy="196"/><circle cx="84" cy="204"/><circle cx="100" cy="196"/><circle cx="84" cy="188"/><circle cx="76" cy="204"/><circle cx="68" cy="220"/><circle cx="76" cy="236"/><circle cx="68" cy="252"/><circle cx="60" cy="268"/><circle cx="52" cy="284"/><circle cx="44" cy="300"/><circle cx="28" cy="292"/><circle cx="12" cy="284"/><circle cx="4" cy="268"/><circle cx="12" cy="252"/><circle cx="4" cy="236"/><circle cx="12" cy="220"/><circle cx="4" cy="204"/><circle cx="12" cy="188"/><circle cx="4" cy="172"/><circle cx="12" cy="156"/><circle cx="4" cy="140"/><circle cx="12" cy="124"/><circle cx="4" cy="108"/><circle cx="12" cy="92"/><circle cx="4" cy="76"/><circle cx="20" cy="68"/><circle cx="4" cy="60"/><circle cx="12" cy="76"/><circle cx="4" cy="92"/><circle cx="20" cy="100"/><circle cx="36" cy="108"/><circle cx="28" cy="124"/><circle cx="20" cy="108"/><circle cx="4" cy="116"/><circle cx="12" cy="132"/><circle cx="4" cy="148"/><circle cx="20" cy="140"/><circle cx="4" cy="132"/><circle cx="12" cy="116"/><circle cx="4" cy="100"/><circle cx="12" cy="84"/><circle cx="4" cy="68"/><circle cx="12" cy="52"/><circle cx="4" cy="36"/><circle cx="20" cy="28"/><circle cx="12" cy="44"/><circle cx="28" cy="36"/><circle cx="36" cy="20"/><circle cx="52" cy="28"/><circle cx="44" cy="44"/><circle cx="60" cy="52"/><circle cx="68" cy="36"/><circle cx="84" cy="44"/><circle cx="76" cy="60"/><circle cx="92" cy="68"/><circle cx="108" cy="60"/><circle cx="92" cy="52"/><circle cx="76" cy="44"/><circle cx="60" cy="36"/><circle cx="44" cy="28"/><circle cx="52" cy="12"/><circle cx="60" cy="28"/><circle cx="68" cy="44"/><circle cx="84" cy="52"/><circle cx="100" cy="60"/><circle cx="116" cy="52"/><circle cx="132" cy="44"/><circle cx="148" cy="36"/><circle cx="156" cy="52"/><circle cx="140" cy="44"/><circle cx="124" cy="52"/><circle cx="108" cy="44"/><circle cx="124" cy="36"/><circle cx="140" cy="28"/><circle cx="156" cy="20"/><circle cx="172" cy="28"/><circle cx="156" cy="36"/><circle cx="172" cy="44"/><circle cx="188" cy="52"/><circle cx="204" cy="44"/><circle cx="220" cy="36"/><circle cx="204" cy="28"/><circle cx="188" cy="36"/><circle cx="180" cy="20"/><circle cx="164" cy="12"/><circle cx="148" cy="20"/><circle cx="164" cy="28"/><circle cx="180" cy="36"/><circle cx="196" cy="44"/><circle cx="212" cy="36"/><circle cx="228" cy="28"/><circle cx="244" cy="20"/><circle cx="252" cy="4"/><circle cx="236" cy="12"/><circle cx="220" cy="20"/><circle cx="236" cy="28"/><circle cx="252" cy="20"/><circle cx="268" cy="28"/><circle cx="276" cy="44"/><circle cx="260" cy="52"/><circle cx="268" cy="36"/><circle cx="252" cy="44"/><circle cx="236" cy="52"/><circle cx="220" cy="60"/><circle cx="236" cy="68"/><circle cx="244" cy="52"/><circle cx="252" cy="36"/><circle cx="236" cy="44"/><circle cx="220" cy="52"/><circle cx="204" cy="60"/><circle cx="220" cy="68"/><circle cx="236" cy="60"/><circle cx="252" cy="52"/><circle cx="268" cy="44"/><circle cx="284" cy="36"/><circle cx="300" cy="28"/><circle cx="292" cy="44"/><circle cx="276" cy="36"/><circle cx="260" cy="44"/><circle cx="276" cy="52"/><circle cx="260" cy="60"/><circle cx="244" cy="68"/><circle cx="228" cy="60"/><circle cx="220" cy="76"/><circle cx="236" cy="84"/><circle cx="228" cy="68"/><circle cx="244" cy="60"/><circle cx="252" cy="76"/><circle cx="268" cy="68"/><circle cx="252" cy="60"/><circle cx="268" cy="52"/><circle cx="284" cy="60"/><circle cx="300" cy="52"/><circle cx="284" cy="44"/><circle cx="292" cy="28"/><circle cx="300" cy="12"/><circle cx="316" cy="4"/><circle cx="308" cy="20"/><circle cx="324" cy="12"/><circle cx="308" cy="4"/><circle cx="292" cy="12"/><circle cx="284" cy="28"/><circle cx="300" cy="20"/><circle cx="292" cy="36"/><circle cx="284" cy="20"/><circle cx="268" cy="12"/><circle cx="284" cy="4"/><circle cx="276" cy="20"/><circle cx="260" cy="28"/><circle cx="244" cy="36"/><circle cx="228" cy="44"/><circle cx="212" cy="52"/><circle cx="204" cy="68"/><circle cx="188" cy="60"/><circle cx="180" cy="44"/><circle cx="164" cy="36"/><circle cx="172" cy="52"/><circle cx="156" cy="44"/><circle cx="172" cy="36"/><circle cx="156" cy="28"/><circle cx="140" cy="36"/><circle cx="124" cy="44"/><circle cx="140" cy="52"/><circle cx="124" cy="60"/><circle cx="108" cy="52"/><circle cx="92" cy="60"/><circle cx="108" cy="68"/><circle cx="92" cy="76"/><circle cx="76" cy="68"/><circle cx="60" cy="76"/><circle cx="76" cy="84"/><circle cx="60" cy="92"/><circle cx="44" cy="100"/><circle cx="60" cy="108"/><circle cx="76" cy="100"/><circle cx="92" cy="108"/><circle cx="108" cy="116"/><circle cx="92" cy="124"/><circle cx="84" cy="108"/><circle cx="68" cy="100"/><circle cx="52" cy="92"/><circle cx="36" cy="100"/><circle cx="44" cy="116"/><circle cx="28" cy="108"/><circle cx="36" cy="92"/><circle cx="52" cy="84"/><circle cx="68" cy="76"/><circle cx="84" cy="68"/><circle cx="68" cy="60"/><circle cx="52" cy="68"/><circle cx="44" cy="84"/><circle cx="28" cy="92"/><circle cx="36" cy="76"/><circle cx="44" cy="92"/><circle cx="52" cy="76"/><circle cx="68" cy="68"/><circle cx="76" cy="52"/><circle cx="60" cy="60"/><circle cx="44" cy="68"/><circle cx="36" cy="84"/><circle cx="28" cy="100"/><circle cx="20" cy="84"/><circle cx="12" cy="100"/><circle cx="20" cy="116"/><circle cx="36" cy="124"/><circle cx="52" cy="132"/><circle cx="60" cy="116"/><circle cx="44" cy="108"/><circle cx="28" cy="116"/><circle cx="20" cy="132"/><circle cx="4" cy="124"/><circle cx="12" cy="108"/><circle cx="20" cy="92"/><circle cx="28" cy="76"/><circle cx="12" cy="68"/><circle cx="4" cy="84"/><circle cx="20" cy="76"/><circle cx="28" cy="60"/><circle cx="44" cy="52"/><circle cx="60" cy="44"/><circle cx="52" cy="60"/><circle cx="36" cy="68"/><circle cx="28" cy="84"/><circle cx="44" cy="76"/><circle cx="36" cy="60"/><circle cx="52" cy="52"/><circle cx="44" cy="36"/><circle cx="28" cy="44"/><circle cx="20" cy="60"/><circle cx="36" cy="52"/><circle cx="28" cy="68"/><circle cx="20" cy="52"/><circle cx="12" cy="36"/><circle cx="4" cy="52"/><circle cx="20" cy="44"/><circle cx="28" cy="28"/><circle cx="36" cy="44"/><circle cx="44" cy="60"/><circle cx="60" cy="68"/><circle cx="76" cy="76"/><circle cx="84" cy="60"/><circle cx="68" cy="52"/><circle cx="52" cy="44"/><circle cx="36" cy="36"/><circle cx="28" cy="52"/><circle cx="12" cy="60"/><circle cx="4" cy="44"/><circle cx="12" cy="28"/><circle cx="4" cy="12"/><circle cx="20" cy="4"/><circle cx="28" cy="20"/><circle cx="36" cy="4"/><circle cx="44" cy="20"/><circle cx="52" cy="36"/><circle cx="60" cy="20"/><circle cx="76" cy="28"/><circle cx="92" cy="36"/><circle cx="100" cy="52"/><circle cx="116" cy="44"/><circle cx="124" cy="28"/><circle cx="132" cy="12"/><circle cx="148" cy="4"/><circle cx="140" cy="20"/><circle cx="132" cy="36"/><circle cx="148" cy="28"/><circle cx="164" cy="20"/><circle cx="156" cy="4"/><circle cx="140" cy="12"/><circle cx="132" cy="28"/><circle cx="116" cy="36"/><circle cx="124" cy="20"/><circle cx="132" cy="4"/><circle cx="148" cy="12"/><circle cx="132" cy="20"/><circle cx="124" cy="4"/><circle cx="116" cy="20"/><circle cx="108" cy="36"/><circle cx="92" cy="28"/><circle cx="76" cy="20"/><circle cx="68" cy="4"/><circle cx="84" cy="12"/><circle cx="100" cy="4"/><circle cx="108" cy="20"/><circle cx="116" cy="4"/><circle cx="100" cy="12"/><circle cx="84" cy="4"/><circle cx="68" cy="12"/><circle cx="52" cy="4"/><circle cx="36" cy="12"/><circle cx="20" cy="20"/><circle cx="4" cy="28"/><circle cx="12" cy="12"/><circle cx="28" cy="4"/><circle cx="44" cy="12"/><circle cx="60" cy="4"/><circle cx="68" cy="20"/><circle cx="76" cy="36"/><circle cx="92" cy="44"/><circle cx="100" cy="28"/><circle cx="84" cy="20"/><circle cx="92" cy="4"/><circle cx="108" cy="12"/><circle cx="116" cy="28"/><circle cx="100" cy="36"/><circle cx="84" cy="28"/><circle cx="100" cy="20"/><circle cx="116" cy="12"/><circle cx="108" cy="28"/><circle cx="100" cy="44"/><circle cx="84" cy="36"/><circle cx="92" cy="20"/><circle cx="76" cy="12"/><circle cx="68" cy="28"/><circle cx="52" cy="20"/><circle cx="36" cy="28"/><circle cx="20" cy="36"/><circle cx="12" cy="20"/><polyline points="4 4 20 12 4 20 12 4 28 12 44 4 60 12 76 4 92 12 108 4 124 12 140 4 156 12 172 4 188 12 196 28 188 44 180 28 172 12 188 4 196 20 204 36 220 28 204 20 212 4 228 12 244 4 236 20 228 4 212 12 196 4 180 12 164 4 172 20 188 28 196 12 180 4 188 20 204 12 212 28 196 36 204 52 220 44 236 36 252 28 260 12 276 4 268 20 260 4 244 12 228 20 220 4 212 20 204 4 220 12 236 4 252 12 268 4 284 12 300 4 316 12 332 4 348 12 364 4 380 12 396 4 388 20 380 4 396 12 388 28 372 20 356 28 364 44 372 60 356 52 364 36 372 52 380 36 396 44 388 60 396 76 388 92 396 108 388 124 396 140 388 156 396 172 388 188 396 204 380 212 388 196 396 180 380 172 372 188 364 204 380 196 396 188 388 204 372 196 380 180 388 164 396 148 380 140 372 156 364 172 380 164 396 156 388 172 380 188 372 204 364 220 348 212 356 196 364 180 372 164 380 148 388 132 396 116 380 108 372 124 364 140 380 132 396 124 388 140 380 156 372 172 364 188 348 180 356 164 364 148 372 132 380 116 388 100 396 84 380 76 364 68 348 60 364 52 372 36 380 52 364 60 372 76 364 92 356 108 348 124 340 140 324 132 340 124 348 108 356 92 364 76 348 68 356 84 372 92 364 108 380 100 396 92 388 108 372 116 356 124 348 140 356 156 372 148 364 132 380 124 372 140 364 156 348 164 332 172 340 188 356 180 364 196 348 204 356 220 372 212 356 204 340 196 356 188 348 172 340 156 332 140 324 124 316 108 308 92 292 100 300 116 284 108 268 100 284 92 292 108 300 124 284 116 300 108 284 100 268 108 276 92 292 84 300 100 308 116 316 132 324 116 332 132 340 148 356 140 364 124 348 116 340 132 332 116 324 100 340 108 332 124 324 108 332 92 316 84 332 76 324 92 308 84 292 76 308 68 324 76 316 60 300 68 316 76 332 68 340 84 348 100 340 116 332 100 348 92 356 76 340 68 332 52 348 44 356 60 372 68 364 84 348 76 340 60 356 68 340 76 324 84 340 92 332 108 316 100 300 92 308 76 324 68 332 84 340 100 348 84 356 100 372 108 380 92 388 76 396 60 380 68 372 84 364 100 356 116 348 132 356 148 364 164 372 180 356 172 340 180 348 196 356 212 364 228 372 244 380 260 388 276 396 292 380 300 396 308 388 292 372 284 364 268 380 276 396 284 388 268 380 252 364 244 372 260 356 252 348 236 340 220 332 204 324 188 316 172 308 156 300 140 292 124 276 116 284 132 268 124 252 116 260 100 244 108 260 116 276 108 292 116 308 124 316 140 324 156 308 148 324 140 332 156 340 172 348 188 332 180 324 164 316 148 308 132 316 116 308 100 300 84 316 92 308 108 316 124 300 132 284 124 292 140 300 156 308 140 324 148 316 164 324 180 332 164 348 156 332 148 340 164 348 148 356 132 364 116 372 100 380 84 388 68 396 52 388 36 396 20 388 4 380 20 396 28 388 12 372 4 356 12 364 28 372 12 356 4 340 12 324 4 316 20 324 36 340 44 332 60 348 52 332 44 324 60 340 52 356 44 340 36 324 44 308 52 316 68 300 60 316 52 308 36 324 28 332 12 340 28 356 36 372 44 380 60 388 44 380 28 364 20 348 28 332 36 340 20 348 36 356 20 348 4 364 12 372 28 380 44 396 36 388 52 396 68 388 84 396 100 388 116 396 132 388 148 396 164 388 180 396 196 380 204 396 212 388 228 396 244 380 236 396 228 388 212 372 220 356 228 364 212 380 220 372 236 388 244 396 260 380 268 396 276 388 260 372 252 364 236 380 228 396 220 388 236 396 252 380 244 372 228 388 220 396 236 388 252 396 268 388 284 372 276 364 260 356 244 348 228 340 212 332 196 316 204 332 212 348 220 340 204 324 196 308 188 300 172 316 180 332 188 324 172 308 164 292 156 276 148 284 164 268 156 260 140 244 132 252 148 260 164 244 156 236 140 228 124 212 116 220 132 228 148 244 140 236 124 252 132 260 148 276 156 292 148 276 140 260 132 268 148 252 140 236 132 220 124 212 140 228 132 236 116 252 124 268 132 284 140 300 148 316 156 308 172 292 164 284 148 292 132 276 124 268 140 260 124 276 132 268 116 252 108 244 124 228 116 212 124 196 132 180 140 164 148 156 132 172 124 188 116 204 108 220 100 236 108 220 116 228 100 244 92 260 84 276 76 292 68 284 84 268 92 252 100 244 116 260 108 276 100 292 92 300 76 284 68 292 52 300 36 316 44 308 60 324 52 308 44 316 28 332 20 340 4 348 20 332 28 316 36 324 20 308 28 300 44 284 52 268 60 252 68 236 76 220 84 212 68 196 60 180 52 164 44 148 52 164 60 180 68 196 76 212 84 228 76 244 84 228 92 244 100 252 84 260 68 276 60 268 76 260 92 276 84 260 76 276 68 292 60 284 76 268 84 252 92 244 76 236 92 228 108 212 100 204 84 220 92 212 76 196 68 180 60 188 76 196 92 204 76 212 60 228 52 244 44 260 36 276 28 292 20 308 12 292 4 276 12 260 20 244 28 228 36 212 44 196 52 188 68 172 60 180 76 164 68 172 84 188 92 204 100 196 84 212 92 228 84 236 100 220 108 204 116 188 108 180 92 196 100 188 84 172 76 156 68 164 52 148 44 140 60 124 68 132 52 148 60 132 68 116 60 108 76 92 84 100 68 116 76 100 84 84 76 68 84 84 92 100 100 108 84 116 68 132 60 148 68 132 76 124 92 140 84 124 76 140 68 156 60 172 68 156 76 164 92 180 84 164 76 148 84 140 100 156 92 148 76 132 84 116 92 124 108 108 100 92 92 100 76 116 84 132 92 140 76 156 84 172 92 180 108 164 100 148 92 164 84 172 100 156 108 172 116 180 100 164 108 148 100 140 116 132 100 124 84 108 92 116 108 132 116 124 100 140 92 148 108 156 124 140 132 124 124 132 108 116 100 100 92 84 84 68 92 52 100 60 84 76 92 60 100 52 116 68 108 84 100 100 108 116 116 108 132 100 116 92 100 108 108 116 124 124 140 132 124 148 116 156 100 140 108 124 116 140 124 156 116 172 108 188 100 204 92 196 108 188 124 172 132 164 116 148 124 132 132 148 140 164 132 180 124 196 116 212 108 204 124 188 132 180 116 164 124 148 132 140 148 156 140 148 156 132 148 116 140 100 132 84 124 92 140 108 148 116 164 124 148 108 140 116 156 100 164 84 172 68 180 52 188 36 196 52 204 44 220 28 212 20 228 36 236 52 228 36 220 44 204 60 196 52 212 44 228 28 236 20 252 28 268 36 252 44 236 28 244 36 260 44 244 36 228 44 212 52 196 60 180 76 188 68 204 60 220 52 236 36 244 28 260 20 276 36 268 44 252 60 244 52 260 68 268 52 276 36 284 44 268 52 252 60 236 52 220 60 204 68 188 84 180 100 172 84 164 92 180 108 172 100 156 116 148 100 140 84 132 76 116 68 132 60 148 44 156 28 164 12 172 4 188 20 180 36 172 28 188 20 172 28 156 12 164 4 180 12 196 4 212 20 204 4 196 12 180 4 164 12 148 20 164 28 148 36 132 20 124 36 116 52 108 68 116 52 124 44 140 28 132 12 140 4 156 20 148 36 156 28 172 20 156 28 140 44 132 36 148 52 140 60 124 68 140 52 148 36 140 44 124 60 132 76 124 92 132 100 148 84 140 92 156 76 164 60 172 44 164 60 156 76 148 68 164 84 156 76 140 92 148 108 156 124 164 140 172 156 164 140 156 156 148 172 156 188 148 172 140 180 156 188 140 172 148 156 156 164 172 180 164 196 156 212 148 228 140 212 132 196 140 180 148 164 156 148 164 132 172 148 180 140 164 124 156 132 140 116 132 100 124 84 116 68 124 76 108 92 116 108 124 124 132 140 140 132 156 148 148 164 140 180 132 196 124 204 140 212 156 196 148 204 132 220 140 236 148 244 164 228 172 212 180 220 196 204 188 196 204 180 196 164 188 156 172 172 164 180 180 196 172 188 156 204 164 188 172 196 188 212 196 204 180 220 172 228 188 244 180 260 172 252 156 268 164 284 172 300 180 308 196 316 212 324 228 332 244 348 252 340 236 332 220 316 228 308 212 324 204 316 188 300 196 292 180 276 188 268 172 260 156 244 148 228 156 236 172 252 164 260 180 276 172 284 156 300 164 308 180 316 196 324 212 332 228 340 244 348 260 356 276 364 292 372 308 380 324 388 340 396 356 388 372 380 356 372 372 356 380 348 396 364 388 380 396 396 388 380 380 388 364 372 356 356 348 372 340 364 324 356 308 348 292 340 276 332 260 324 244 308 252 300 236 316 244 324 260 340 268 332 252 324 236 308 228 292 220 284 204 300 212 316 220 308 204 300 188 284 180 276 164 292 172 284 188 268 180 260 196 252 180 236 188 252 196 236 204 252 212 244 196 236 180 228 164 220 148 204 156 188 164 172 172 188 180 196 164 212 172 228 180 244 188 252 172 236 164 220 156 204 148 212 164 220 180 204 172 220 164 236 156 244 172 252 188 268 196 276 180 292 188 300 204 308 220 316 236 324 252 332 268 340 284 348 300 356 316 364 332 372 348 380 364 372 380 364 364 380 372 396 380 388 396 372 388 356 396 364 380 372 396 388 388 396 372 388 356 380 340 396 348 388 332 372 324 364 308 380 316 372 300 356 292 348 276 364 284 356 268 340 260 348 244 364 252 356 236 340 228 324 220 332 236 340 252 356 260 372 268 380 284 364 276 348 268 356 284 372 292 388 300 396 316 380 308 364 300 372 316 388 324 396 340 380 332 396 324 388 308 380 292 396 300 388 316 396 332 388 348 396 364 388 380 396 396 380 388 364 396 348 388 332 396 340 380 348 364 340 348 332 364 324 380 316 396 332 388 340 372 348 356 340 340 324 348 316 332 332 340 340 356 348 372 340 388 324 396 332 380 340 364 348 348 356 364 348 380 340 396 356 388 364 372 356 356 364 340 356 324 372 332 380 348 372 364 356 372 364 356 356 340 340 332 348 316 332 308 324 324 308 316 316 300 324 316 340 324 356 332 364 348 348 340 332 332 316 324 308 308 300 292 292 276 284 260 276 244 292 236 284 220 268 228 252 220 268 212 276 228 260 236 268 252 276 236 260 228 252 244 244 228 260 220 252 204 236 212 220 204 212 188 228 196 244 204 260 212 276 204 292 196 284 212 268 204 260 188 276 196 292 204 300 220 308 236 316 252 324 268 332 284 316 276 308 260 300 244 292 228 276 220 292 212 284 196 268 188 260 204 276 212 284 228 268 220 252 228 268 236 284 244 300 252 316 260 324 276 308 268 292 260 300 276 316 268 332 276 348 284 340 300 324 292 308 284 300 268 292 252 308 244 300 228 284 236 276 252 292 244 300 260 284 268 292 284 308 276 324 284 308 292 324 300 340 292 356 300 364 316 348 308 332 300 316 292 300 300 316 308 332 316 348 324 340 308 332 292 316 284 308 300 324 308 340 316 348 332 332 324 316 316 300 324 292 308 284 292 300 284 292 268 276 276 268 260 252 252 236 244 220 236 228 220 236 236 244 220 228 212 220 228 204 236 212 220 196 212 204 196 212 212 204 228 188 236 172 228 156 220 140 228 156 236 140 244 124 236 132 252 116 260 108 244 124 252 108 260 92 268 100 252 116 244 132 236 148 228 164 220 172 236 156 228 164 212 148 220 140 236 124 244 108 236 124 228 140 220 156 212 172 204 188 196 204 204 220 212 236 220 228 204 244 212 236 196 220 188 212 204 204 220 188 212 196 196 180 204 172 220 188 228 180 212 196 220 188 204 172 212 188 220 196 236 212 244 228 252 212 260 220 244 228 228 244 236 260 244 244 252 260 260 276 268 284 252 268 244 252 236 236 228 220 220 204 212 212 228 204 244 220 252 212 236 228 244 236 260 252 268 268 276 284 284 292 300 276 292 260 284 268 300 284 308 300 316 308 332 316 348 300 340 292 324 276 316 284 332 292 316 284 300 276 284 268 268 252 260 236 252 228 236 244 244 260 252 276 260 284 276 292 292 300 308 308 324 316 340 300 332 292 348 308 340 324 332 332 348 316 356 324 340 332 356 324 372 316 388 300 396 284 388 276 372 292 364 284 380 276 396 292 388 300 372 292 356 276 348 268 332 260 316 252 300 236 292 252 284 244 300 228 292 212 284 196 276 180 268 188 252 204 260 220 268 236 276 220 284 204 276 196 260 212 268 204 252 220 260 228 276 244 284 236 268 252 276 244 260 260 268 268 284 276 300 260 292 268 308 284 316 292 332 276 324 284 340 300 348 308 364 292 372 284 356 276 340 268 324 260 308 252 292 244 276 228 268 236 284 220 276 204 268 188 260 172 268 156 260 164 244 180 252 188 268 172 260 180 276 196 268 212 276 196 284 212 292 228 284 244 292 228 300 244 308 260 300 268 316 252 324 260 340 276 332 268 348 276 364 284 348 268 356 260 372 252 356 236 364 220 372 204 380 196 396 212 388 228 380 244 372 228 364 220 380 212 396 228 388 244 380 252 364 236 372 244 356 252 372 268 364 260 348 276 356 260 364 252 380 268 372 284 364 276 380 260 388 244 396 236 380 228 396 244 388 260 396 268 380 284 372 276 388 260 380 268 396 252 388 236 396 220 388 204 396 188 388 180 372 164 364 156 380 148 396 164 388 172 372 180 356 196 348 188 364 180 380 196 372 212 364 228 356 244 348 252 332 236 340 220 348 204 356 212 340 220 356 204 364 188 372 172 380 164 396 180 388 196 380 212 372 196 364 188 380 180 396 196 388 204 372 212 356 228 348 220 364 212 380 228 372 236 356 244 340 228 332 244 324 236 308 252 316 260 332 252 348 244 364 236 348 252 340 260 356 268 340 260 324 244 332 236 316 252 308 236 300 220 308 204 300 220 292 204 284 188 292 172 284 188 276 196 292 180 284 164 276 148 268 132 260 148 252 164 260 156 276 140 268 124 276 140 284 124 292 108 300 116 284 132 276 116 268 100 276 84 284 68 292 52 300 36 308 52 316 68 308 84 300 100 292 92 308 76 316 60 324 44 332 28 324 44 316 36 332 20 340 36 348 52 356 44 372 60 380 68 396 84 388 68 380 52 372 36 364 44 380 52 396 36 388 28 372 20 356 28 340 36 356 44 340 52 324 60 308 76 300 68 316 84 308 92 292 108 284 100 300 116 292 132 300 116 308 100 316 84 324 68 332 52 340 44 324 60 316 76 308 92 300 108 292 124 284 140 276 148 292 132 284 148 276 164 284 180 292 188 308 172 316 164 300 156 284 148 300 164 308 172 324 156 316 164 332 156 348 148 364 164 356 172 340 180 324 172 308 164 324 156 308 140 300 156 292 172 300 164 316 156 332 164 348 148 340 132 332 148 324 132 316 116 324 108 308 124 316 140 324 132 308 148 316 156 300 140 308 124 300 140 292 148 308 156 324 172 332 180 316 188 332 196 316 188 300 172 292 180 308 188 324 180 340 196 332 204 316 196 300 188 316 180 332 196 324 204 308 212 324 204 340 188 348 172 356 156 364 140 372 124 380 116 396 132 388 148 380 164 372 180 364 172 348 188 340 196 356 180 348 196 340 212 348 204 332 212 316 220 332 204 324 212 308 220 324 228 340 212 332 220 316 236 324 228 308 212 300 196 308 180 300 164 292 148 284 156 268 172 276 188 284 204 292 220 300 228 316 236 332 244 316 228 324 220 340 204 348 188 356 172 364 156 372 140 380 132 396 148 388 132 380 148 372 164 380 172 396 156 388 140 396 124 388 108 396 100 380 116 372 124 356 108 364 100 348 92 332 108 324 116 340 100 332 92 316 76 324 84 340 68 348 60 364 52 348 60 332 76 340 92 348 100 364 84 356 76 372 92 380 100 396 108 380 92 372 76 364 84 348 68 356 84 364 100 356 116 364 132 372 140 356 132 340 124 324 108 316 116 300 132 292 124 308 140 316 148 332 164 340 156 356 140 364 148 348 132 356 124 372 116 388 108 372 92 364 76 356 68 340 60 356 76 348 92 340 108 348 92 356 84 372 92 388 76 396 60 388 44 396 28 388 12 396 4 380 20 388 4 396 12 380 4 364 12 348 4 332 12 316 4 300 20 308 36 316 28 332 20 348 28 364 44 356 36 340 52 332 68 324 84 316 100 308 92 324 76 332 60 340 44 348 28 356 36 372 20 380 12 364 4 348 12 332 20 316 36 324 28 308 12 300 4 316 20 324 12 308 28 300 44 292 28 284 20 268 4 276 12 292 4 308 20 300 4 292 12 276 4 260 12 244 4 228 12 212 20 196 28 180 44 172 60 164 76 172 68 156 60 140 44 148 52 164 44 180 36 164 52 156 68 148 76 132 84 148 92 164 76 156 68 172 60 188 44 196 52 180 36 188 28 204 20 220 36 212 28 228 20 244 12 260 28 252 20 236 4 244 12 228 28 220 36 204 20 212 28 196 44 188 52 172 36 180 20 188 12 204 4 220 12 236 4 252 20 260 28 276 20 292 4 284 12 268 20 284 36 292 44 276 60 284 76 292 60 300 44 308 28 316 12 324 4 340 20 332 4 324 12 340 28 348 20 364 4 356 12 372 4 388 20 396 28 380 36 396 52 388 36 380 20 372 12 356 4 372 12 388 28 396 44 388 60 396 76 388 68 372 52 364 60 348 68 364 76 380 60 372 44 364 52 380 68 388 84 396 100 388 116 380 124 364 116 348 108 332 116 316 124 332 132 348 140 332 156 340 148 356 140 340 132 324 124 340 140 348 132 364 116 356 108 340 124 348 116 332 100 324 84 332 100 340 108 356 100 372 84 380 92 396 108 388 124 396 140 388 156 396 172 388 188 396 204 388 220 396 236 388 252 396 268 388 284 396 300 388 316 380 308 396 300 380 292 396 308 388 292 380 300 364 308 380 324 388 316 372 308 356 324 364 308 372 300 356 316 364 332 372 324 356 308 348 292 340 284 324 276 308 268 292 260 276 244 268 228 260 212 252 196 244 180 236 172 252 164 268 156 252 172 244 180 228 164 236 148 244 140 260 124 268 108 276 100 260 116 252 132 244 148 236 164 228 180 220 196 228 188 244 180 260 196 252 180 244 164 252 148 260 156 244 140 252 132 268 116 276 100 268 84 260 76 276 92 284 84 268 92 252 100 236 108 220 116 204 132 196 148 188 164 180 172 196 188 188 180 172 196 180 180 188 164 196 148 204 132 212 116 220 132 228 140 212 156 204 140 196 124 204 132 188 148 196 164 204 172 188 156 196 140 204 124 212 116 228 132 220 148 212 132 204 116 196 108 212 124 220 116 236 100 228 92 244 108 252 124 260 108 268 100 284 84 292 68 284 84 276 92 260 100 244 92 228 84 244 76 260 68 244 76 228 84 212 92 196 100 212 108 196 100 180 116 172 124 188 140 180 132 164 124 180 108 188 124 196 140 188 156 180 164 164 172 180 156 188 148 172 132 180 116 188 108 204 92 212 84 228 100 220 116 212 100 204 92 220 108 228 92 236 76 244 68 260 84 252 76 268 92 276 76 284 68 300 52 308 36 300 52 292 60 276 44 284 60 292 68 276 60 260 76 252 84 236 68 228 84 220 92 204 76 212 84 196 100 188 116 180 108 164 124 172 108 180 92 172 76 180 92 188 76 196 68 212 60 228 52 244 44 260 36 276 52 268 60 252 68 236 76 220 60 212 68 196 84 204 100 196 84 188 76 204 68 220 76 236 68 252 60 268 52 284 44 300 28 292 12 284 4 268 12 252 4 236 12 220 4 204 12 188 4 172 12 156 4 140 12 124 4 108 12 92 4 76 20 68 4 60 12 76 4 92 20 100 36 108 28 124 20 108 4 116 12 132 4 148 20 140 4 132 12 116 4 100 12 84 4 68 12 52 4 36 20 28 12 44 28 36 36 20 52 28 44 44 60 52 68 36 84 44 76 60 92 68 108 60 92 52 76 44 60 36 44 28 52 12 60 28 68 44 84 52 100 60 116 52 132 44 148 36 156 52 140 44 124 52 108 44 124 36 140 28 156 20 172 28 156 36 172 44 188 52 204 44 220 36 204 28 188 36 180 20 164 12 148 20 164 28 180 36 196 44 212 36 228 28 244 20 252 4 236 12 220 20 236 28 252 20 268 28 276 44 260 52 268 36 252 44 236 52 220 60 236 68 244 52 252 36 236 44 220 52 204 60 220 68 236 60 252 52 268 44 284 36 300 28 292 44 276 36 260 44 276 52 260 60 244 68 228 60 220 76 236 84 228 68 244 60 252 76 268 68 252 60 268 52 284 60 300 52 284 44 292 28 300 12 316 4 308 20 324 12 308 4 292 12 284 28 300 20 292 36 284 20 268 12 284 4 276 20 260 28 244 36 228 44 212 52 204 68 188 60 180 44 164 36 172 52 156 44 172 36 156 28 140 36 124 44 140 52 124 60 108 52 92 60 108 68 92 76 76 68 60 76 76 84 60 92 44 100 60 108 76 100 92 108 108 116 92 124 84 108 68 100 52 92 36 100 44 116 28 108 36 92 52 84 68 76 84 68 68 60 52 68 44 84 28 92 36 76 44 92 52 76 68 68 76 52 60 60 44 68 36 84 28 100 20 84 12 100 20 116 36 124 52 132 60 116 44 108 28 116 20 132 4 124 12 108 20 92 28 76 12 68 4 84 20 76 28 60 44 52 60 44 52 60 36 68 28 84 44 76 36 60 52 52 44 36 28 44 20 60 36 52 28 68 20 52 12 36 4 52 20 44 28 28 36 44 44 60 60 68 76 76 84 60 68 52 52 44 36 36 28 52 12 60 4 44 12 28 4 12 20 4 28 20 36 4 44 20 52 36 60 20 76 28 92 36 100 52 116 44 124 28 132 12 148 4 140 20 132 36 148 28 164 20 156 4 140 12 132 28 116 36 124 20 132 4 148 12 132 20 124 4 116 20 108 36 92 28 76 20 68 4 84 12 100 4 108 20 116 4 100 12 84 4 68 12 52 4 36 12 20 20 4 28 12 12 28 4 44 12 60 4 68 20 76 36 92 44 100 28 84 20 92 4 108 12 116 28 100 36 84 28 100 20 116 12 108 28 100 44 84 36 92 20 76 12 68 28 52 20 36 28 20 36 12 20 4 4 "/></svg>
