<?xml version="1.0" encoding="UTF-8"?><svg width="408" height="408" viewBox="-4 -4 408 408" xmlns="http://www.w3.org/2000/svg"><style>circle{fill:black;r:1.3}polyline{fill:none;stroke:black;stroke-width:1.0}line{stroke:black;stroke-width:1.0}</style><rect width="400" height="400" style="fill:white;stroke:black;stroke-width:0.5"/><line x1="0" y1="8" x2="400" y2="8" style="stroke-width:0.5"/><line x1="0" y1="16" x2="400" y2="16" style="stroke-width:0.5"/><line x1="0" y1="24" x2="400" y2="24" style="stroke-width:0.5"/><line x1="0" y1="32" x2="400" y2="32" style="stroke-width:0.5"/><line x1="0" y1="40" x2="400" y2="40" style="stroke-width:0.5"/><line x1="0" y1="48" x2="400" y2="48" style="stroke-width:0.5"/><line x1="0" y1="56" x2="400" y2="56" style="stroke-width:0.5"/><line x1="0" y1="64" x2="400" y2="64" style="stroke-width:0.5"/><line x1="0" y1="72" x2="400" y2="72" style="stroke-width:0.5"/><line x1="0" y1="80" x2="400" y2="80" style="stroke-width:0.5"/><line x1="0" y1="88" x2="400" y2="88" style="stroke-width:0.5"/><line x1="0" y1="96" x2="400" y2="96" style="stroke-width:0.5"/><line x1="0" y1="104" x2="400" y2="104" style="stroke-width:0.5"/><line x1="0" y1="112" x2="400" y2="112" style="stroke-width:0.5"/><line x1="0" y1="120" x2="400" y2="120" style="stroke-width:0.5"/><line x1="0" y1="128" x2="400" y2="128" style="stroke-width:0.5"/><line x1="0" y1="136" x2="400" y2="136" style="stroke-width:0.5"/><line x1="0" y1="144" x2="400" y2="144" style="stroke-width:0.5"/><line x1="0" y1="152" x2="400" y2="152" style="stroke-width:0.5"/><line x1="0" y1="160" x2="400" y2="160" style="stroke-width:0.5"/><line x1="0" y1="168" x2="400" y2="168" style="stroke-width:0.5"/><line x1="0" y1="176" x2="400" y2="176" style="stroke-width:0.5"/><line x1="0" y1="184" x2="400" y2="184" style="stroke-width:0.5"/><line x1="0" y1="192" x2="400" y2="192" style="stroke-width:0.5"/><line x1="0" y1="200" x2="400" y2="200" style="stroke-width:0.5"/><line x1="0" y1="208" x2="400" y2="208" style="stroke-width:0.5"/><line x1="0" y1="216" x2="400" y2="216" style="stroke-width:0.5"/><line x1="0" y1="224" x2="400" y2="224" style="stroke-width:0.5"/><line x1="0" y1="232" x2="400" y2="232" style="stroke-width:0.5"/><line x1="0" y1="240" x2="400" y2="240" style="stroke-width:0.5"/><line x1="0" y1="248" x2="400" y2="248" style="stroke-width:0.5"/><line x1="0" y1="256" x2="400" y2="256" style="stroke-width:0.5"/><line x1="0" y1="264" x2="400" y2="264" style="stroke-width:0.5"/><line x1="0" y1="272" x2="400" y2="272" style="stroke-width:0.5"/><line x1="0" y1="280" x2="400" y2="280" style="stroke-width:0.5"/><line x1="0" y1="288" x2="400" y2="288" style="stroke-width:0.5"/><line x1="0" y1="296" x2="400" y2="296" style="stroke-width:0.5"/><line x1="0" y1="304" x2="400" y2="304" style="stroke-width:0.5"/><line x1="0" y1="312" x2="400" y2="312" style="stroke-width:0.5"/><line x1="0" y1="320" x2="400" y2="320" style="stroke-width:0.5"/><line x1="0" y1="328" x2="400" y2="328" style="stroke-width:0.5"/><line x1="0" y1="336" x2="400" y2="336" style="stroke-width:0.5"/><line x1="0" y1="344" x2="400" y2="344" style="stroke-width:0.5"/><line x1="0" y1="352" x2="400" y2="352" style="stroke-width:0.5"/><line x1="0" y1="360" x2="400" y2="360" style="stroke-width:0.5"/><line x1="0" y1="368" x2="400" y2="368" style="stroke-width:0.5"/><line x1="0" y1="376" x2="400" y2="376" style="stroke-width:0.5"/><line x1="0" y1="384" x2="400" y2="384" style="stroke-width:0.5"/><line x1="0" y1="392" x2="400" y2="392" style="stroke-width:0.5"/><line x1="8" y1="0" x2="8" y2="400" style="stroke-width:0.5"/><line x1="16" y1="0" x2="16" y2="400" style="stroke-width:0.5"/><line x1="24" y1="0" x2="24" y2="400" style="stroke-width:0.5"/><line x1="32" y1="0" x2="32" y2="400" style="stroke-width:0.5"/><line x1="40" y1="0" x2="40" y2="400" style="stroke-width:0.5"/><line x1="48" y1="0" x2="48" y2="400" style="stroke-width:0.5"/><line x1="56" y1="0" x2="56" y2="400" style="stroke-width:0.5"/><line x1="64" y1="0" x2="64" y2="400" style="stroke-width:0.5"/><line x1="72" y1="0" x2="72" y2="400" style="stroke-width:0.5"/><line x1="80" y1="0" x2="80" y2="400" style="stroke-width:0.5"/><line x1="88" y1="0" x2="88" y2="400" style="stroke-width:0.5"/><line x1="96" y1="0" x2="96" y2="400" style="stroke-width:0.5"/><line x1="104" y1="0" x2="104" y2="400" style="stroke-width:0.5"/><line x1="112" y1="0" x2="112" y2="400" style="stroke-width:0.5"/><line x1="120" y1="0" x2="120" y2="400" style="stroke-width:0.5"/><line x1="128" y1="0" x2="128" y2="400" style="stroke-width:0.5"/><line x1="136" y1="0" x2="136" y2="400" style="stroke-width:0.5"/><line x1="144" y1="0" x2="144" y2="400" style="stroke-width:0.5"/><line x1="152" y1="0" x2="152" y2="400" style="stroke-width:0.5"/><line x1="160" y1="0" x2="160" y2="400" style="stroke-width:0.5"/><line x1="168" y1="0" x2="168" y2="400" style="stroke-width:0.5"/><line x1="176" y1="0" x2="176" y2="400" style="stroke-width:0.5"/><line x1="184" y1="0" x2="184" y2="400" style="stroke-width:0.5"/><line x1="192" y1="0" x2="192" y2="400" style="stroke-width:0.5"/><line x1="200" y1="0" x2="200" y2="400" style="stroke-width:0.5"/><line x1="208" y1="0" x2="208" y2="400" style="stroke-width:0.5"/><line x1="216" y1="0" x2="216" y2="400" style="stroke-width:0.5"/><line x1="224" y1="0" x2="224" y2="400" style="stroke-width:0.5"/><line x1="232" y1="0" x2="232" y2="400" style="stroke-width:0.5"/><line x1="240" y1="0" x2="240" y2="400" style="stroke-width:0.5"/><line x1="248" y1="0" x2="248" y2="400" style="stroke-width:0.5"/><line x1="256" y1="0" x2="256" y2="400" style="stroke-width:0.5"/><line x1="264" y1="0" x2="264" y2="400" style="stroke-width:0.5"/><line x1="272" y1="0" x2="272" y2="400" style="stroke-width:0.5"/><line x1="280" y1="0" x2="280" y2="400" style="stroke-width:0.5"/><line x1="288" y1="0" x2="288" y2="400" style="stroke-width:0.5"/><line x1="296" y1="0" x2="296" y2="400" style="stroke-width:0.5"/><line x1="304" y1="0" x2="304" y2="400" style="stroke-width:0.5"/><line x1="312" y1="0" x2="312" y2="400" style="stroke-width:0.5"/><line x1="320" y1="0" x2="320" y2="400" style="stroke-width:0.5"/><line x1="328" y1="0" x2="328" y2="400" style="stroke-width:0.5"/><line x1="336" y1="0" x2="336" y2="400" style="stroke-width:0.5"/><line x1="344" y1="0" x2="344" y2="400" style="stroke-width:0.5"/><line x1="352" y1="0" x2="352" y2="400" style="stroke-width:0.5"/><line x1="360" y1="0" x2="360" y2="400" style="stroke-width:0.5"/><line x1="368" y1="0" x2="368" y2="400" style="stroke-width:0.5"/><line x1="376" y1="0" x2="376" y2="400" style="stroke-width:0.5"/><line x1="384" y1="0" x2="384" y2="400" style="stroke-width:0.5"/><line x1="392" y1="0" x2="392" y2="400" style="stroke-width:0.5"/><circle cx="4" cy="4"/><circle cx="20" cy="12"/><circle cx="36" cy="4"/><circle cx="44" cy="20"/><circle cx="52" cy="36"/><circle cx="68" cy="28"/><circle cx="76" cy="12"/><circle cx="92" cy="4"/><circle cx="108" cy="12"/><circle cx="124" cy="4"/><circle cx="140" cy="12"/><circle cx="156" cy="4"/><circle cx="148" cy="20"/><circle cx="132" cy="28"/><circle cx="116" cy="20"/><circle cx="124" cy="36"/><circle cx="132" cy="20"/><circle cx="140" cy="4"/><circle cx="124" cy="12"/><circle cx="108" cy="4"/><circle cx="100" cy="20"/><circle cx="92" cy="36"/><circle cx="108" cy="44"/><circle cx="100" cy="28"/><circle cx="84" cy="20"/><circle cx="76" cy="4"/><circle cx="92" cy="12"/><circle cx="84" cy="28"/><circle cx="76" cy="44"/><circle cx="84" cy="60"/><circle cx="92" cy="76"/><circle cx="76" cy="84"/><circle cx="68" cy="68"/><circle cx="76" cy="52"/><circle cx="60" cy="44"/><circle cx="52" cy="60"/><circle cx="60" cy="76"/><circle cx="44" cy="68"/><circle cx="28" cy="76"/><circle cx="44" cy="84"/><circle cx="60" cy="92"/><circle cx="68" cy="108"/><circle cx="76" cy="124"/><circle cx="92" cy="132"/><circle cx="108" cy="124"/><circle cx="100" cy="140"/><circle cx="116" cy="132"/><circle cx="132" cy="124"/><circle cx="140" cy="108"/><circle cx="148" cy="92"/><circle cx="132" cy="100"/><circle cx="124" cy="116"/><circle cx="116" cy="100"/><circle cx="108" cy="84"/><circle cx="92" cy="92"/><circle cx="108" cy="100"/><circle cx="92" cy="108"/><circle cx="76" cy="100"/><circle cx="84" cy="84"/><circle cx="76" cy="68"/><circle cx="60" cy="60"/><circle cx="52" cy="44"/><circle cx="44" cy="28"/><circle cx="28" cy="20"/><circle cx="44" cy="12"/><circle cx="60" cy="20"/><circle cx="68" cy="4"/><circle cx="84" cy="12"/><circle cx="100" cy="4"/><circle cx="116" cy="12"/><circle cx="132" cy="4"/><circle cx="140" cy="20"/><circle cx="148" cy="4"/><circle cx="156" cy="20"/><circle cx="164" cy="4"/><circle cx="148" cy="12"/><circle cx="140" cy="28"/><circle cx="124" cy="20"/><circle cx="108" cy="28"/><circle cx="92" cy="20"/><circle cx="84" cy="4"/><circle cx="100" cy="12"/><circle cx="116" cy="4"/><circle cx="132" cy="12"/><circle cx="124" cy="28"/><circle cx="140" cy="36"/><circle cx="156" cy="28"/><circle cx="172" cy="36"/><circle cx="164" cy="52"/><circle cx="180" cy="44"/><circle cx="164" cy="36"/><circle cx="148" cy="44"/><circle cx="156" cy="60"/><circle cx="140" cy="68"/><circle cx="124" cy="60"/><circle cx="116" cy="44"/><circle cx="132" cy="52"/><circle cx="148" cy="60"/><circle cx="156" cy="76"/><circle cx="140" cy="84"/><circle cx="132" cy="68"/><circle cx="124" cy="52"/><circle cx="132" cy="36"/><circle cx="116" cy="28"/><circle cx="124" cy="44"/><circle cx="108" cy="52"/><circle cx="100" cy="36"/><circle cx="92" cy="52"/><circle cx="100" cy="68"/><circle cx="92" cy="84"/><circle cx="84" cy="68"/><circle cx="68" cy="60"/><circle cx="76" cy="76"/><circle cx="84" cy="92"/><circle cx="68" cy="84"/><circle cx="60" cy="100"/><circle cx="44" cy="108"/><circle cx="52" cy="124"/><circle cx="60" cy="108"/><circle cx="44" cy="100"/><circle cx="28" cy="92"/><circle cx="20" cy="108"/><circle cx="36" cy="116"/><circle cx="44" cy="132"/><circle cx="52" cy="116"/><circle cx="60" cy="132"/><circle cx="44" cy="140"/><circle cx="28" cy="148"/><circle cx="20" cy="132"/><circle cx="12" cy="148"/><circle cx="4" cy="164"/><circle cx="12" cy="180"/><circle cx="28" cy="172"/><circle cx="20" cy="156"/><circle cx="36" cy="164"/><circle cx="52" cy="156"/><circle cx="60" cy="172"/><circle cx="68" cy="188"/><circle cx="76" cy="172"/><circle cx="60" cy="164"/><circle cx="44" cy="156"/><circle cx="60" cy="148"/><circle cx="76" cy="140"/><circle cx="84" cy="124"/><circle cx="68" cy="116"/><circle cx="52" cy="108"/><circle cx="44" cy="124"/><circle cx="28" cy="132"/><circle cx="12" cy="140"/><circle cx="4" cy="124"/><circle cx="12" cy="108"/><circle cx="28" cy="116"/><circle cx="36" cy="132"/><circle cx="20" cy="124"/><circle cx="4" cy="132"/><circle cx="12" cy="116"/><circle cx="20" cy="100"/><circle cx="4" cy="92"/><circle cx="20" cy="84"/><circle cx="28" cy="100"/><circle cx="20" cy="116"/><circle cx="36" cy="108"/><circle cx="52" cy="100"/><circle cx="68" cy="92"/><circle cx="84" cy="100"/><circle cx="92" cy="116"/><circle cx="84" cy="132"/><circle cx="92" cy="148"/><circle cx="100" cy="164"/><circle cx="116" cy="172"/><circle cx="124" cy="156"/><circle cx="132" cy="140"/><circle cx="148" cy="148"/><circle cx="140" cy="164"/><circle cx="156" cy="172"/><circle cx="148" cy="188"/><circle cx="140" cy="172"/><circle cx="156" cy="180"/><circle cx="172" cy="172"/><circle cx="156" cy="164"/><circle cx="140" cy="156"/><circle cx="148" cy="172"/><circle cx="140" cy="188"/><circle cx="124" cy="180"/><circle cx="116" cy="164"/><circle cx="132" cy="156"/><circle cx="124" cy="172"/><circle cx="132" cy="188"/><circle cx="124" cy="204"/><circle cx="108" cy="212"/><circle cx="116" cy="196"/><circle cx="100" cy="204"/><circle cx="108" cy="188"/><circle cx="116" cy="204"/><circle cx="132" cy="212"/><circle cx="124" cy="196"/><circle cx="116" cy="180"/><circle cx="108" cy="164"/><circle cx="92" cy="172"/><circle cx="100" cy="188"/><circle cx="108" cy="204"/><circle cx="100" cy="220"/><circle cx="84" cy="212"/><circle cx="76" cy="196"/><circle cx="68" cy="212"/><circle cx="76" cy="228"/><circle cx="84" cy="244"/><circle cx="92" cy="228"/><circle cx="108" cy="236"/><circle cx="92" cy="244"/><circle cx="108" cy="252"/><circle cx="116" cy="268"/><circle cx="100" cy="276"/><circle cx="84" cy="284"/><circle cx="68" cy="276"/><circle cx="52" cy="268"/><circle cx="36" cy="276"/><circle cx="52" cy="284"/><circle cx="68" cy="292"/><circle cx="76" cy="308"/><circle cx="84" cy="324"/><circle cx="68" cy="316"/><circle cx="84" cy="308"/><circle cx="92" cy="324"/><circle cx="76" cy="332"/><circle cx="92" cy="340"/><circle cx="100" cy="356"/><circle cx="92" cy="372"/><circle cx="100" cy="388"/><circle cx="84" cy="380"/><circle cx="76" cy="396"/><circle cx="60" cy="388"/><circle cx="44" cy="396"/><circle cx="28" cy="388"/><circle cx="20" cy="372"/><circle cx="28" cy="356"/><circle cx="44" cy="348"/><circle cx="36" cy="364"/><circle cx="44" cy="380"/><circle cx="28" cy="372"/><circle cx="44" cy="364"/><circle cx="52" cy="348"/><circle cx="60" cy="364"/><circle cx="68" cy="348"/><circle cx="52" cy="340"/><circle cx="44" cy="356"/><circle cx="36" cy="340"/><circle cx="52" cy="332"/><circle cx="68" cy="324"/><circle cx="84" cy="332"/><circle cx="68" cy="340"/><circle cx="60" cy="356"/><circle cx="76" cy="364"/><circle cx="60" cy="372"/><circle cx="52" cy="356"/><circle cx="36" cy="348"/><circle cx="20" cy="340"/><circle cx="4" cy="332"/><circle cx="12" cy="348"/><circle cx="4" cy="364"/><circle cx="20" cy="356"/><circle cx="4" cy="348"/><circle cx="12" cy="364"/><circle cx="4" cy="380"/><circle cx="12" cy="396"/><circle cx="20" cy="380"/><circle cx="4" cy="372"/><circle cx="12" cy="388"/><circle cx="28" cy="396"/><circle cx="36" cy="380"/><circle cx="52" cy="372"/><circle cx="44" cy="388"/><circle cx="60" cy="380"/><circle cx="52" cy="396"/><circle cx="68" cy="388"/><circle cx="84" cy="396"/><circle cx="76" cy="380"/><circle cx="84" cy="364"/><circle cx="100" cy="372"/><circle cx="92" cy="388"/><circle cx="108" cy="396"/><circle cx="116" cy="380"/><circle cx="124" cy="396"/><circle cx="108" cy="388"/><circle cx="92" cy="396"/><circle cx="76" cy="388"/><circle cx="68" cy="372"/><circle cx="76" cy="356"/><circle cx="84" cy="372"/><circle cx="92" cy="356"/><circle cx="84" cy="340"/><circle cx="100" cy="332"/><circle cx="116" cy="340"/><circle cx="124" cy="356"/><circle cx="132" cy="372"/><circle cx="140" cy="388"/><circle cx="124" cy="380"/><circle cx="132" cy="396"/><circle cx="140" cy="380"/><circle cx="124" cy="372"/><circle cx="116" cy="356"/><circle cx="132" cy="348"/><circle cx="140" cy="364"/><circle cx="148" cy="380"/><circle cx="156" cy="396"/><circle cx="172" cy="388"/><circle cx="188" cy="396"/><circle cx="196" cy="380"/><circle cx="212" cy="388"/><circle cx="228" cy="396"/><circle cx="244" cy="388"/><circle cx="260" cy="396"/><circle cx="276" cy="388"/><circle cx="292" cy="396"/><circle cx="284" cy="380"/><circle cx="268" cy="388"/><circle cx="276" cy="372"/><circle cx="284" cy="388"/><circle cx="300" cy="380"/><circle cx="316" cy="388"/><circle cx="300" cy="396"/><circle cx="292" cy="380"/><circle cx="284" cy="364"/><circle cx="276" cy="348"/><circle cx="292" cy="340"/><circle cx="276" cy="332"/><circle cx="268" cy="316"/><circle cx="252" cy="324"/><circle cx="244" cy="340"/><circle cx="228" cy="348"/><circle cx="244" cy="356"/><circle cx="260" cy="364"/><circle cx="252" cy="348"/><circle cx="244" cy="364"/><circle cx="252" cy="380"/><circle cx="268" cy="372"/><circle cx="260" cy="388"/><circle cx="244" cy="396"/><circle cx="236" cy="380"/><circle cx="252" cy="372"/><circle cx="260" cy="356"/><circle cx="268" cy="340"/><circle cx="284" cy="348"/><circle cx="292" cy="332"/><circle cx="276" cy="324"/><circle cx="292" cy="316"/><circle cx="308" cy="308"/><circle cx="324" cy="300"/><circle cx="316" cy="316"/><circle cx="300" cy="324"/><circle cx="284" cy="332"/><circle cx="268" cy="324"/><circle cx="276" cy="308"/><circle cx="284" cy="324"/><circle cx="300" cy="332"/><circle cx="292" cy="348"/><circle cx="276" cy="340"/><circle cx="260" cy="332"/><circle cx="244" cy="324"/><circle cx="236" cy="308"/><circle cx="228" cy="324"/><circle cx="236" cy="340"/><circle cx="220" cy="332"/><circle cx="236" cy="324"/><circle cx="244" cy="308"/><circle cx="260" cy="300"/><circle cx="252" cy="316"/><circle cx="244" cy="332"/><circle cx="228" cy="340"/><circle cx="220" cy="324"/><circle cx="212" cy="340"/><circle cx="228" cy="332"/><circle cx="220" cy="348"/><circle cx="236" cy="356"/><circle cx="220" cy="364"/><circle cx="204" cy="356"/><circle cx="212" cy="372"/><circle cx="228" cy="380"/><circle cx="244" cy="372"/><circle cx="228" cy="364"/><circle cx="212" cy="356"/><circle cx="196" cy="348"/><circle cx="188" cy="332"/><circle cx="204" cy="340"/><circle cx="212" cy="324"/><circle cx="220" cy="308"/><circle cx="228" cy="292"/><circle cx="244" cy="284"/><circle cx="228" cy="276"/><circle cx="212" cy="284"/><circle cx="204" cy="268"/><circle cx="220" cy="260"/><circle cx="228" cy="244"/><circle cx="212" cy="252"/><circle cx="196" cy="260"/><circle cx="180" cy="268"/><circle cx="172" cy="252"/><circle cx="156" cy="244"/><circle cx="148" cy="228"/><circle cx="140" cy="244"/><circle cx="156" cy="252"/><circle cx="172" cy="260"/><circle cx="164" cy="244"/><circle cx="156" cy="228"/><circle cx="164" cy="212"/><circle cx="156" cy="196"/><circle cx="148" cy="212"/><circle cx="140" cy="196"/><circle cx="148" cy="180"/><circle cx="164" cy="188"/><circle cx="180" cy="180"/><circle cx="188" cy="164"/><circle cx="180" cy="148"/><circle cx="164" cy="156"/><circle cx="148" cy="164"/><circle cx="132" cy="172"/><circle cx="124" cy="188"/><circle cx="108" cy="180"/><circle cx="92" cy="188"/><circle cx="84" cy="204"/><circle cx="76" cy="220"/><circle cx="60" cy="212"/><circle cx="52" cy="196"/><circle cx="36" cy="204"/><circle cx="28" cy="188"/><circle cx="20" cy="172"/><circle cx="28" cy="156"/><circle cx="36" cy="140"/><circle cx="28" cy="124"/><circle cx="20" cy="140"/><circle cx="12" cy="156"/><circle cx="4" cy="172"/><circle cx="20" cy="180"/><circle cx="36" cy="188"/><circle cx="52" cy="180"/><circle cx="44" cy="164"/><circle cx="36" cy="148"/><circle cx="52" cy="140"/><circle cx="60" cy="124"/><circle cx="68" cy="140"/><circle cx="76" cy="156"/><circle cx="92" cy="164"/><circle cx="100" cy="148"/><circle cx="116" cy="140"/><circle cx="124" cy="124"/><circle cx="140" cy="116"/><circle cx="156" cy="108"/><circle cx="172" cy="116"/><circle cx="164" cy="100"/><circle cx="156" cy="116"/><circle cx="140" cy="124"/><circle cx="148" cy="108"/><circle cx="156" cy="124"/><circle cx="164" cy="108"/><circle cx="148" cy="116"/><circle cx="140" cy="132"/><circle cx="132" cy="116"/><circle cx="124" cy="100"/><circle cx="132" cy="84"/><circle cx="140" cy="100"/><circle cx="156" cy="92"/><circle cx="172" cy="100"/><circle cx="188" cy="92"/><circle cx="172" cy="84"/><circle cx="180" cy="100"/><circle cx="188" cy="84"/><circle cx="204" cy="92"/><circle cx="220" cy="100"/><circle cx="212" cy="116"/><circle cx="196" cy="124"/><circle cx="188" cy="108"/><circle cx="204" cy="100"/><circle cx="196" cy="116"/><circle cx="180" cy="124"/><circle cx="164" cy="132"/><circle cx="148" cy="124"/><circle cx="156" cy="140"/><circle cx="164" cy="124"/><circle cx="172" cy="108"/><circle cx="156" cy="100"/><circle cx="140" cy="92"/><circle cx="148" cy="76"/><circle cx="164" cy="84"/><circle cx="180" cy="92"/><circle cx="196" cy="100"/><circle cx="212" cy="108"/><circle cx="220" cy="124"/><circle cx="236" cy="132"/><circle cx="228" cy="116"/><circle cx="244" cy="124"/><circle cx="228" cy="132"/><circle cx="236" cy="148"/><circle cx="244" cy="164"/><circle cx="260" cy="172"/><circle cx="276" cy="164"/><circle cx="292" cy="156"/><circle cx="308" cy="164"/><circle cx="300" cy="180"/><circle cx="316" cy="172"/><circle cx="324" cy="156"/><circle cx="332" cy="140"/><circle cx="316" cy="148"/><circle cx="300" cy="156"/><circle cx="284" cy="148"/><circle cx="268" cy="156"/><circle cx="252" cy="148"/><circle cx="236" cy="156"/><circle cx="244" cy="140"/><circle cx="260" cy="132"/><circle cx="268" cy="116"/><circle cx="284" cy="108"/><circle cx="292" cy="92"/><circle cx="308" cy="100"/><circle cx="300" cy="116"/><circle cx="284" cy="124"/><circle cx="276" cy="140"/><circle cx="292" cy="132"/><circle cx="308" cy="140"/><circle cx="300" cy="124"/><circle cx="284" cy="132"/><circle cx="276" cy="148"/><circle cx="268" cy="132"/><circle cx="276" cy="116"/><circle cx="292" cy="108"/><circle cx="276" cy="100"/><circle cx="284" cy="116"/><circle cx="292" cy="100"/><circle cx="276" cy="92"/><circle cx="268" cy="76"/><circle cx="284" cy="84"/><circle cx="300" cy="92"/><circle cx="284" cy="100"/><circle cx="268" cy="108"/><circle cx="260" cy="92"/><circle cx="252" cy="108"/><circle cx="260" cy="124"/><circle cx="252" cy="140"/><circle cx="268" cy="148"/><circle cx="276" cy="132"/><circle cx="260" cy="140"/><circle cx="268" cy="124"/><circle cx="276" cy="108"/><circle cx="268" cy="92"/><circle cx="252" cy="100"/><circle cx="260" cy="84"/><circle cx="244" cy="92"/><circle cx="228" cy="100"/><circle cx="220" cy="84"/><circle cx="228" cy="68"/><circle cx="236" cy="84"/><circle cx="252" cy="76"/><circle cx="244" cy="60"/><circle cx="236" cy="76"/><circle cx="228" cy="60"/><circle cx="220" cy="44"/><circle cx="228" cy="28"/><circle cx="212" cy="20"/><circle cx="228" cy="12"/><circle cx="244" cy="20"/><circle cx="236" cy="36"/><circle cx="252" cy="44"/><circle cx="268" cy="52"/><circle cx="284" cy="44"/><circle cx="292" cy="28"/><circle cx="308" cy="20"/><circle cx="324" cy="28"/><circle cx="340" cy="20"/><circle cx="324" cy="12"/><circle cx="308" cy="4"/><circle cx="292" cy="12"/><circle cx="300" cy="28"/><circle cx="292" cy="44"/><circle cx="300" cy="60"/><circle cx="308" cy="44"/><circle cx="316" cy="28"/><circle cx="308" cy="12"/><circle cx="292" cy="20"/><circle cx="276" cy="28"/><circle cx="260" cy="20"/><circle cx="252" cy="4"/><circle cx="268" cy="12"/><circle cx="284" cy="4"/><circle cx="300" cy="12"/><circle cx="316" cy="4"/><circle cx="332" cy="12"/><circle cx="348" cy="4"/><circle cx="364" cy="12"/><circle cx="380" cy="4"/><circle cx="396" cy="12"/><circle cx="380" cy="20"/><circle cx="396" cy="28"/><circle cx="388" cy="12"/><circle cx="372" cy="4"/><circle cx="356" cy="12"/><circle cx="364" cy="28"/><circle cx="380" cy="36"/><circle cx="396" cy="44"/><circle cx="388" cy="28"/><circle cx="380" cy="12"/><circle cx="396" cy="4"/><circle cx="388" cy="20"/><circle cx="396" cy="36"/><circle cx="380" cy="44"/><circle cx="388" cy="60"/><circle cx="396" cy="76"/><circle cx="380" cy="84"/><circle cx="396" cy="92"/><circle cx="388" cy="76"/><circle cx="380" cy="92"/><circle cx="364" cy="84"/><circle cx="372" cy="68"/><circle cx="364" cy="52"/><circle cx="372" cy="36"/><circle cx="356" cy="44"/><circle cx="348" cy="28"/><circle cx="364" cy="36"/><circle cx="372" cy="52"/><circle cx="388" cy="44"/><circle cx="396" cy="60"/><circle cx="380" cy="52"/><circle cx="364" cy="44"/><circle cx="372" cy="60"/><circle cx="356" cy="68"/><circle cx="348" cy="52"/><circle cx="340" cy="68"/><circle cx="324" cy="76"/><circle cx="332" cy="60"/><circle cx="348" cy="68"/><circle cx="340" cy="84"/><circle cx="356" cy="76"/><circle cx="364" cy="92"/><circle cx="380" cy="100"/><circle cx="388" cy="84"/><circle cx="396" cy="68"/><circle cx="380" cy="60"/><circle cx="372" cy="76"/><circle cx="364" cy="60"/><circle cx="372" cy="44"/><circle cx="388" cy="52"/><circle cx="380" cy="68"/><circle cx="372" cy="84"/><circle cx="364" cy="100"/><circle cx="348" cy="92"/><circle cx="332" cy="100"/><circle cx="316" cy="92"/><circle cx="332" cy="84"/><circle cx="324" cy="100"/><circle cx="308" cy="108"/><circle cx="292" cy="116"/><circle cx="300" cy="100"/><circle cx="284" cy="92"/><circle cx="268" cy="100"/><circle cx="252" cy="92"/><circle cx="236" cy="100"/><circle cx="244" cy="84"/><circle cx="252" cy="68"/><circle cx="236" cy="60"/><circle cx="220" cy="68"/><circle cx="228" cy="52"/><circle cx="236" cy="68"/><circle cx="252" cy="60"/><circle cx="236" cy="52"/><circle cx="244" cy="68"/><circle cx="252" cy="84"/><circle cx="260" cy="100"/><circle cx="268" cy="84"/><circle cx="284" cy="76"/><circle cx="300" cy="84"/><circle cx="292" cy="68"/><circle cx="276" cy="60"/><circle cx="292" cy="52"/><circle cx="276" cy="44"/><circle cx="260" cy="36"/><circle cx="244" cy="44"/><circle cx="236" cy="28"/><circle cx="220" cy="36"/><circle cx="236" cy="44"/><circle cx="252" cy="36"/><circle cx="260" cy="52"/><circle cx="268" cy="68"/><circle cx="284" cy="60"/><circle cx="292" cy="76"/><circle cx="276" cy="84"/><circle cx="260" cy="76"/><circle cx="268" cy="60"/><circle cx="284" cy="68"/><circle cx="276" cy="52"/><circle cx="284" cy="36"/><circle cx="268" cy="44"/><circle cx="252" cy="52"/><circle cx="260" cy="68"/><circle cx="276" cy="76"/><circle cx="292" cy="84"/><circle cx="300" cy="68"/><circle cx="308" cy="84"/><circle cx="316" cy="68"/><circle cx="332" cy="76"/><circle cx="316" cy="84"/><circle cx="324" cy="68"/><circle cx="308" cy="76"/><circle cx="316" cy="60"/><circle cx="324" cy="44"/><circle cx="340" cy="36"/><circle cx="332" cy="20"/><circle cx="340" cy="4"/><circle cx="348" cy="20"/><circle cx="356" cy="36"/><circle cx="364" cy="20"/><circle cx="380" cy="28"/><circle cx="396" cy="20"/><circle cx="388" cy="4"/><circle cx="372" cy="12"/><circle cx="356" cy="4"/><circle cx="340" cy="12"/><circle cx="324" cy="4"/><circle cx="316" cy="20"/><circle cx="308" cy="36"/><circle cx="300" cy="52"/><circle cx="308" cy="68"/><circle cx="316" cy="52"/><circle cx="332" cy="44"/><circle cx="324" cy="60"/><circle cx="340" cy="52"/><circle cx="356" cy="60"/><circle cx="348" cy="76"/><circle cx="340" cy="92"/><circle cx="324" cy="84"/><circle cx="332" cy="68"/><circle cx="316" cy="76"/><circle cx="324" cy="92"/><circle cx="332" cy="108"/><circle cx="316" cy="116"/><circle cx="308" cy="132"/><circle cx="292" cy="140"/><circle cx="284" cy="156"/><circle cx="300" cy="148"/><circle cx="316" cy="140"/><circle cx="332" cy="148"/><circle cx="340" cy="132"/><circle cx="348" cy="116"/><circle cx="340" cy="100"/><circle cx="324" cy="108"/><circle cx="340" cy="116"/><circle cx="332" cy="132"/><circle cx="324" cy="148"/><circle cx="308" cy="156"/><circle cx="292" cy="148"/><circle cx="300" cy="164"/><circle cx="284" cy="172"/><circle cx="276" cy="156"/><circle cx="268" cy="172"/><circle cx="260" cy="156"/><circle cx="268" cy="140"/><circle cx="252" cy="132"/><circle cx="236" cy="124"/><circle cx="252" cy="116"/><circle cx="244" cy="100"/><circle cx="228" cy="92"/><circle cx="236" cy="108"/><circle cx="220" cy="116"/><circle cx="204" cy="108"/><circle cx="212" cy="92"/><circle cx="204" cy="76"/><circle cx="188" cy="68"/><circle cx="180" cy="84"/><circle cx="164" cy="76"/><circle cx="180" cy="68"/><circle cx="164" cy="60"/><circle cx="172" cy="76"/><circle cx="156" cy="68"/><circle cx="140" cy="76"/><circle cx="124" cy="68"/><circle cx="116" cy="84"/><circle cx="108" cy="68"/><circle cx="92" cy="60"/><circle cx="100" cy="44"/><circle cx="116" cy="36"/><circle cx="108" cy="20"/><circle cx="92" cy="28"/><circle cx="108" cy="36"/><circle cx="116" cy="52"/><circle cx="100" cy="60"/><circle cx="92" cy="44"/><circle cx="76" cy="36"/><circle cx="84" cy="52"/><circle cx="92" cy="68"/><circle cx="100" cy="52"/><circle cx="116" cy="60"/><circle cx="124" cy="76"/><circle cx="116" cy="92"/><circle cx="100" cy="100"/><circle cx="84" cy="108"/><circle cx="68" cy="100"/><circle cx="76" cy="116"/><circle cx="68" cy="132"/><circle cx="60" cy="116"/><circle cx="76" cy="108"/><circle cx="68" cy="124"/><circle cx="52" cy="132"/><circle cx="44" cy="116"/><circle cx="36" cy="100"/><circle cx="52" cy="92"/><circle cx="36" cy="84"/><circle cx="20" cy="76"/><circle cx="36" cy="68"/><circle cx="28" cy="52"/><circle cx="12" cy="60"/><circle cx="28" cy="68"/><circle cx="44" cy="76"/><circle cx="60" cy="84"/><circle cx="76" cy="92"/><circle cx="68" cy="76"/><circle cx="76" cy="60"/><circle cx="84" cy="76"/><circle cx="100" cy="84"/><circle cx="116" cy="76"/><circle cx="108" cy="60"/><circle cx="100" cy="76"/><circle cx="108" cy="92"/><circle cx="100" cy="108"/><circle cx="84" cy="116"/><circle cx="92" cy="100"/><circle cx="108" cy="108"/><circle cx="100" cy="92"/><circle cx="108" cy="76"/><circle cx="124" cy="84"/><circle cx="116" cy="68"/><circle cx="132" cy="60"/><circle cx="148" cy="52"/><circle cx="132" cy="44"/><circle cx="140" cy="60"/><circle cx="132" cy="76"/><circle cx="148" cy="84"/><circle cx="164" cy="92"/><circle cx="148" cy="100"/><circle cx="132" cy="92"/><circle cx="124" cy="108"/><circle cx="108" cy="116"/><circle cx="92" cy="124"/><circle cx="84" cy="140"/><circle cx="100" cy="132"/><circle cx="108" cy="148"/><circle cx="92" cy="140"/><circle cx="76" cy="132"/><circle cx="84" cy="148"/><circle cx="100" cy="156"/><circle cx="108" cy="172"/><circle cx="116" cy="188"/><circle cx="132" cy="180"/><circle cx="124" cy="164"/><circle cx="132" cy="148"/><circle cx="148" cy="156"/><circle cx="164" cy="164"/><circle cx="172" cy="180"/><circle cx="164" cy="196"/><circle cx="148" cy="204"/><circle cx="140" cy="220"/><circle cx="132" cy="204"/><circle cx="116" cy="212"/><circle cx="132" cy="220"/><circle cx="140" cy="204"/><circle cx="124" cy="212"/><circle cx="116" cy="228"/><circle cx="132" cy="236"/><circle cx="124" cy="252"/><circle cx="140" cy="260"/><circle cx="148" cy="244"/><circle cx="132" cy="252"/><circle cx="124" cy="268"/><circle cx="132" cy="284"/><circle cx="148" cy="292"/><circle cx="164" cy="284"/><circle cx="180" cy="292"/><circle cx="196" cy="284"/><circle cx="212" cy="292"/><circle cx="228" cy="300"/><circle cx="244" cy="292"/><circle cx="252" cy="308"/><circle cx="236" cy="316"/><circle cx="244" cy="300"/><circle cx="236" cy="284"/><circle cx="252" cy="276"/><circle cx="260" cy="292"/><circle cx="268" cy="308"/><circle cx="260" cy="324"/><circle cx="276" cy="316"/><circle cx="284" cy="300"/><circle cx="300" cy="292"/><circle cx="292" cy="276"/><circle cx="284" cy="260"/><circle cx="268" cy="268"/><circle cx="276" cy="284"/><circle cx="260" cy="276"/><circle cx="276" cy="268"/><circle cx="260" cy="260"/><circle cx="268" cy="276"/><circle cx="284" cy="284"/><circle cx="268" cy="292"/><circle cx="252" cy="300"/><circle cx="260" cy="316"/><circle cx="252" cy="332"/><circle cx="260" cy="348"/><circle cx="276" cy="356"/><circle cx="292" cy="364"/><circle cx="308" cy="372"/><circle cx="316" cy="356"/><circle cx="308" cy="340"/><circle cx="324" cy="348"/><circle cx="340" cy="356"/><circle cx="332" cy="340"/><circle cx="324" cy="356"/><circle cx="308" cy="348"/><circle cx="316" cy="332"/><circle cx="332" cy="324"/><circle cx="348" cy="332"/><circle cx="340" cy="316"/><circle cx="332" cy="300"/><circle cx="316" cy="292"/><circle cx="300" cy="300"/><circle cx="284" cy="308"/><circle cx="292" cy="324"/><circle cx="308" cy="316"/><circle cx="324" cy="308"/><circle cx="316" cy="324"/><circle cx="324" cy="340"/><circle cx="340" cy="332"/><circle cx="332" cy="316"/><circle cx="324" cy="332"/><circle cx="340" cy="340"/><circle cx="332" cy="356"/><circle cx="316" cy="348"/><circle cx="308" cy="364"/><circle cx="324" cy="372"/><circle cx="340" cy="364"/><circle cx="356" cy="356"/><circle cx="348" cy="340"/><circle cx="332" cy="332"/><circle cx="324" cy="316"/><circle cx="340" cy="324"/><circle cx="348" cy="308"/><circle cx="356" cy="324"/><circle cx="364" cy="340"/><circle cx="380" cy="348"/><circle cx="372" cy="364"/><circle cx="356" cy="372"/><circle cx="340" cy="380"/><circle cx="348" cy="396"/><circle cx="356" cy="380"/><circle cx="340" cy="372"/><circle cx="332" cy="388"/><circle cx="316" cy="396"/><circle cx="324" cy="380"/><circle cx="332" cy="396"/><circle cx="348" cy="388"/><circle cx="364" cy="396"/><circle cx="380" cy="388"/><circle cx="396" cy="396"/><circle cx="388" cy="380"/><circle cx="396" cy="364"/><circle cx="388" cy="348"/><circle cx="396" cy="332"/><circle cx="380" cy="340"/><circle cx="372" cy="324"/><circle cx="388" cy="316"/><circle cx="380" cy="332"/><circle cx="372" cy="316"/><circle cx="356" cy="308"/><circle cx="364" cy="292"/><circle cx="380" cy="284"/><circle cx="372" cy="300"/><circle cx="388" cy="292"/><circle cx="372" cy="284"/><circle cx="380" cy="300"/><circle cx="396" cy="308"/><circle cx="388" cy="324"/><circle cx="396" cy="340"/><circle cx="388" cy="356"/><circle cx="396" cy="372"/><circle cx="388" cy="388"/><circle cx="372" cy="396"/><circle cx="356" cy="388"/><circle cx="340" cy="396"/><circle cx="332" cy="380"/><circle cx="316" cy="372"/><circle cx="308" cy="388"/><circle cx="324" cy="396"/><circle cx="340" cy="388"/><circle cx="332" cy="372"/><circle cx="324" cy="388"/><circle cx="308" cy="396"/><circle cx="292" cy="388"/><circle cx="276" cy="396"/><circle cx="268" cy="380"/><circle cx="276" cy="364"/><circle cx="268" cy="348"/><circle cx="284" cy="356"/><circle cx="292" cy="372"/><circle cx="300" cy="356"/><circle cx="316" cy="364"/><circle cx="308" cy="380"/><circle cx="300" cy="364"/><circle cx="284" cy="372"/><circle cx="268" cy="364"/><circle cx="252" cy="356"/><circle cx="236" cy="348"/><circle cx="220" cy="340"/><circle cx="228" cy="356"/><circle cx="236" cy="372"/><circle cx="228" cy="388"/><circle cx="220" cy="372"/><circle cx="236" cy="364"/><circle cx="220" cy="356"/><circle cx="204" cy="364"/><circle cx="188" cy="372"/><circle cx="196" cy="388"/><circle cx="212" cy="396"/><circle cx="220" cy="380"/><circle cx="204" cy="372"/><circle cx="196" cy="356"/><circle cx="212" cy="364"/><circle cx="204" cy="380"/><circle cx="196" cy="396"/><circle cx="180" cy="388"/><circle cx="164" cy="396"/><circle cx="148" cy="388"/><circle cx="156" cy="372"/><circle cx="164" cy="356"/><circle cx="180" cy="348"/><circle cx="172" cy="332"/><circle cx="164" cy="316"/><circle cx="156" cy="300"/><circle cx="140" cy="292"/><circle cx="148" cy="276"/><circle cx="156" cy="260"/><circle cx="140" cy="268"/><circle cx="156" cy="276"/><circle cx="164" cy="292"/><circle cx="148" cy="284"/><circle cx="132" cy="276"/><circle cx="124" cy="260"/><circle cx="116" cy="244"/><circle cx="108" cy="260"/><circle cx="92" cy="252"/><circle cx="84" cy="268"/><circle cx="76" cy="284"/><circle cx="92" cy="276"/><circle cx="100" cy="260"/><circle cx="108" cy="244"/><circle cx="124" cy="236"/><circle cx="116" cy="252"/><circle cx="132" cy="244"/><circle cx="140" cy="228"/><circle cx="124" cy="220"/><circle cx="108" cy="228"/><circle cx="92" cy="220"/><circle cx="100" cy="236"/><circle cx="108" cy="220"/><circle cx="124" cy="228"/><circle cx="140" cy="236"/><circle cx="148" cy="220"/><circle cx="156" cy="204"/><circle cx="172" cy="196"/><circle cx="188" cy="188"/><circle cx="180" cy="204"/><circle cx="172" cy="220"/><circle cx="156" cy="212"/><circle cx="148" cy="196"/><circle cx="140" cy="180"/><circle cx="132" cy="196"/><circle cx="140" cy="212"/><circle cx="156" cy="220"/><circle cx="164" cy="236"/><circle cx="180" cy="244"/><circle cx="164" cy="252"/><circle cx="148" cy="260"/><circle cx="164" cy="268"/><circle cx="180" cy="276"/><circle cx="188" cy="260"/><circle cx="172" cy="268"/><circle cx="180" cy="284"/><circle cx="188" cy="268"/><circle cx="204" cy="276"/><circle cx="212" cy="260"/><circle cx="204" cy="244"/><circle cx="196" cy="228"/><circle cx="212" cy="236"/><circle cx="196" cy="244"/><circle cx="204" cy="260"/><circle cx="220" cy="268"/><circle cx="228" cy="252"/><circle cx="220" cy="236"/><circle cx="212" cy="220"/><circle cx="204" cy="236"/><circle cx="188" cy="244"/><circle cx="204" cy="252"/><circle cx="196" cy="236"/><circle cx="188" cy="252"/><circle cx="196" cy="268"/><circle cx="212" cy="276"/><circle cx="228" cy="284"/><circle cx="244" cy="276"/><circle cx="252" cy="260"/><circle cx="268" cy="252"/><circle cx="252" cy="244"/><circle cx="244" cy="228"/><circle cx="260" cy="220"/><circle cx="268" cy="236"/><circle cx="284" cy="244"/><circle cx="276" cy="228"/><circle cx="268" cy="212"/><circle cx="252" cy="204"/><circle cx="244" cy="188"/><circle cx="236" cy="204"/><circle cx="228" cy="188"/><circle cx="244" cy="196"/><circle cx="252" cy="212"/><circle cx="260" cy="228"/><circle cx="244" cy="220"/><circle cx="252" cy="236"/><circle cx="268" cy="244"/><circle cx="284" cy="252"/><circle cx="292" cy="268"/><circle cx="300" cy="284"/><circle cx="308" cy="300"/><circle cx="292" cy="308"/><circle cx="284" cy="292"/><circle cx="268" cy="300"/><circle cx="252" cy="292"/><circle cx="268" cy="284"/><circle cx="284" cy="276"/><circle cx="292" cy="292"/><circle cx="308" cy="284"/><circle cx="300" cy="268"/><circle cx="316" cy="260"/><circle cx="324" cy="244"/><circle cx="332" cy="228"/><circle cx="348" cy="236"/><circle cx="340" cy="220"/><circle cx="324" cy="212"/><circle cx="316" cy="228"/><circle cx="300" cy="236"/><circle cx="308" cy="220"/><circle cx="316" cy="204"/><circle cx="332" cy="212"/><circle cx="348" cy="220"/><circle cx="340" cy="204"/><circle cx="332" cy="220"/><circle cx="348" cy="228"/><circle cx="356" cy="212"/><circle cx="364" cy="228"/><circle cx="380" cy="236"/><circle cx="364" cy="244"/><circle cx="356" cy="260"/><circle cx="372" cy="268"/><circle cx="364" cy="284"/><circle cx="380" cy="276"/><circle cx="396" cy="268"/><circle cx="388" cy="252"/><circle cx="372" cy="244"/><circle cx="356" cy="236"/><circle cx="340" cy="228"/><circle cx="324" cy="220"/><circle cx="332" cy="204"/><circle cx="316" cy="196"/><circle cx="308" cy="212"/><circle cx="292" cy="220"/><circle cx="300" cy="204"/><circle cx="308" cy="188"/><circle cx="292" cy="196"/><circle cx="276" cy="188"/><circle cx="260" cy="180"/><circle cx="276" cy="172"/><circle cx="292" cy="164"/><circle cx="308" cy="172"/><circle cx="316" cy="156"/><circle cx="324" cy="140"/><circle cx="316" cy="124"/><circle cx="332" cy="116"/><circle cx="348" cy="108"/><circle cx="356" cy="92"/><circle cx="364" cy="76"/><circle cx="372" cy="92"/><circle cx="388" cy="100"/><circle cx="380" cy="116"/><circle cx="396" cy="108"/><circle cx="388" cy="124"/><circle cx="380" cy="140"/><circle cx="364" cy="148"/><circle cx="348" cy="140"/><circle cx="340" cy="124"/><circle cx="324" cy="132"/><circle cx="308" cy="124"/><circle cx="300" cy="140"/><circle cx="316" cy="132"/><circle cx="308" cy="148"/><circle cx="300" cy="132"/><circle cx="284" cy="140"/><circle cx="276" cy="124"/><circle cx="260" cy="116"/><circle cx="244" cy="108"/><circle cx="236" cy="92"/><circle cx="244" cy="76"/><circle cx="228" cy="84"/><circle cx="212" cy="76"/><circle cx="196" cy="84"/><circle cx="188" cy="100"/><circle cx="172" cy="92"/><circle cx="180" cy="76"/><circle cx="196" cy="68"/><circle cx="204" cy="52"/><circle cx="188" cy="44"/><circle cx="196" cy="60"/><circle cx="188" cy="76"/><circle cx="172" cy="68"/><circle cx="180" cy="52"/><circle cx="164" cy="44"/><circle cx="172" cy="60"/><circle cx="156" cy="52"/><circle cx="148" cy="36"/><circle cx="140" cy="52"/><circle cx="148" cy="68"/><circle cx="156" cy="84"/><circle cx="164" cy="68"/><circle cx="180" cy="60"/><circle cx="196" cy="52"/><circle cx="212" cy="60"/><circle cx="220" cy="76"/><circle cx="204" cy="84"/><circle cx="212" cy="68"/><circle cx="196" cy="76"/><circle cx="188" cy="60"/><circle cx="172" cy="52"/><circle cx="156" cy="44"/><circle cx="164" cy="28"/><circle cx="172" cy="44"/><circle cx="188" cy="52"/><circle cx="180" cy="36"/><circle cx="196" cy="44"/><circle cx="188" cy="28"/><circle cx="180" cy="12"/><circle cx="172" cy="28"/><circle cx="164" cy="12"/><circle cx="180" cy="4"/><circle cx="188" cy="20"/><circle cx="196" cy="36"/><circle cx="180" cy="28"/><circle cx="172" cy="12"/><circle cx="188" cy="4"/><circle cx="204" cy="12"/><circle cx="220" cy="4"/><circle cx="236" cy="12"/><circle cx="220" cy="20"/><circle cx="212" cy="4"/><circle cx="196" cy="12"/><circle cx="204" cy="28"/><circle cx="212" cy="44"/><circle cx="204" cy="60"/><circle cx="220" cy="52"/><circle cx="204" cy="44"/><circle cx="188" cy="36"/><circle cx="196" cy="20"/><circle cx="212" cy="28"/><circle cx="228" cy="36"/><circle cx="244" cy="28"/><circle cx="228" cy="20"/><circle cx="244" cy="12"/><circle cx="260" cy="4"/><circle cx="276" cy="12"/><circle cx="268" cy="28"/><circle cx="252" cy="20"/><circle cx="244" cy="4"/><circle cx="236" cy="20"/><circle cx="228" cy="4"/><circle cx="212" cy="12"/><circle cx="196" cy="4"/><circle cx="204" cy="20"/><circle cx="212" cy="36"/><circle cx="196" cy="28"/><circle cx="180" cy="20"/><circle cx="172" cy="4"/><circle cx="164" cy="20"/><circle cx="156" cy="36"/><circle cx="140" cy="44"/><circle cx="148" cy="28"/><circle cx="156" cy="12"/><circle cx="172" cy="20"/><circle cx="188" cy="12"/><circle cx="204" cy="4"/><circle cx="220" cy="12"/><circle cx="236" cy="4"/><circle cx="252" cy="12"/><circle cx="260" cy="28"/><circle cx="244" cy="36"/><circle cx="260" cy="44"/><circle cx="244" cy="52"/><circle cx="260" cy="60"/><circle cx="276" cy="68"/><circle cx="292" cy="60"/><circle cx="300" cy="44"/><circle cx="284" cy="52"/><circle cx="276" cy="36"/><circle cx="284" cy="20"/><circle cx="292" cy="4"/><circle cx="300" cy="20"/><circle cx="292" cy="36"/><circle cx="308" cy="28"/><circle cx="324" cy="20"/><circle cx="316" cy="36"/><circle cx="308" cy="52"/><circle cx="300" cy="36"/><circle cx="284" cy="28"/><circle cx="268" cy="20"/><circle cx="276" cy="4"/><circle cx="260" cy="12"/><circle cx="252" cy="28"/><circle cx="268" cy="36"/><circle cx="276" cy="20"/><circle cx="268" cy="4"/><circle cx="284" cy="12"/><circle cx="300" cy="4"/><circle cx="316" cy="12"/><circle cx="332" cy="4"/><circle cx="348" cy="12"/><circle cx="364" cy="4"/><circle cx="372" cy="20"/><circle cx="356" cy="28"/><circle cx="348" cy="44"/><circle cx="332" cy="36"/><circle cx="316" cy="44"/><circle cx="332" cy="52"/><circle cx="348" cy="60"/><circle cx="340" cy="76"/><circle cx="332" cy="92"/><circle cx="348" cy="84"/><circle cx="356" cy="100"/><circle cx="372" cy="108"/><circle cx="356" cy="116"/><circle cx="348" cy="132"/><circle cx="340" cy="148"/><circle cx="332" cy="164"/><circle cx="340" cy="180"/><circle cx="348" cy="164"/><circle cx="364" cy="172"/><circle cx="356" cy="188"/><circle cx="348" cy="204"/><circle cx="332" cy="196"/><circle cx="324" cy="180"/><circle cx="340" cy="188"/><circle cx="332" cy="172"/><circle cx="316" cy="180"/><circle cx="324" cy="196"/><circle cx="316" cy="212"/><circle cx="308" cy="228"/><circle cx="300" cy="244"/><circle cx="292" cy="260"/><circle cx="276" cy="252"/><circle cx="284" cy="236"/><circle cx="276" cy="220"/><circle cx="292" cy="212"/><circle cx="276" cy="204"/><circle cx="260" cy="212"/><circle cx="268" cy="196"/><circle cx="284" cy="204"/><circle cx="300" cy="196"/><circle cx="284" cy="188"/><circle cx="292" cy="172"/><circle cx="276" cy="180"/><circle cx="284" cy="164"/><circle cx="292" cy="180"/><circle cx="284" cy="196"/><circle cx="300" cy="188"/><circle cx="292" cy="204"/><circle cx="308" cy="196"/><circle cx="300" cy="212"/><circle cx="292" cy="228"/><circle cx="284" cy="212"/><circle cx="268" cy="204"/><circle cx="252" cy="196"/><circle cx="236" cy="188"/><circle cx="228" cy="204"/><circle cx="220" cy="188"/><circle cx="204" cy="196"/><circle cx="220" cy="204"/><circle cx="236" cy="196"/><circle cx="252" cy="188"/><circle cx="268" cy="180"/><circle cx="260" cy="196"/><circle cx="244" cy="204"/><circle cx="228" cy="212"/><circle cx="236" cy="228"/><circle cx="220" cy="220"/><circle cx="212" cy="204"/><circle cx="196" cy="212"/><circle cx="180" cy="220"/><circle cx="188" cy="204"/><circle cx="172" cy="212"/><circle cx="164" cy="228"/><circle cx="180" cy="236"/><circle cx="188" cy="220"/><circle cx="204" cy="212"/><circle cx="196" cy="196"/><circle cx="188" cy="212"/><circle cx="204" cy="220"/><circle cx="196" cy="204"/><circle cx="212" cy="196"/><circle cx="204" cy="180"/><circle cx="188" cy="172"/><circle cx="172" cy="164"/><circle cx="164" cy="148"/><circle cx="180" cy="140"/><circle cx="196" cy="148"/><circle cx="212" cy="140"/><circle cx="228" cy="148"/><circle cx="212" cy="156"/><circle cx="220" cy="172"/><circle cx="212" cy="188"/><circle cx="204" cy="204"/><circle cx="196" cy="188"/><circle cx="180" cy="196"/><circle cx="188" cy="180"/><circle cx="172" cy="188"/><circle cx="164" cy="204"/><circle cx="156" cy="188"/><circle cx="164" cy="172"/><circle cx="156" cy="156"/><circle cx="148" cy="140"/><circle cx="132" cy="132"/><circle cx="140" cy="148"/><circle cx="148" cy="132"/><circle cx="156" cy="148"/><circle cx="172" cy="140"/><circle cx="188" cy="132"/><circle cx="204" cy="140"/><circle cx="220" cy="132"/><circle cx="236" cy="140"/><circle cx="228" cy="156"/><circle cx="236" cy="172"/><circle cx="252" cy="164"/><circle cx="244" cy="180"/><circle cx="228" cy="172"/><circle cx="212" cy="164"/><circle cx="220" cy="180"/><circle cx="228" cy="196"/><circle cx="236" cy="212"/><circle cx="252" cy="220"/><circle cx="260" cy="204"/><circle cx="244" cy="212"/><circle cx="228" cy="220"/><circle cx="212" cy="212"/><circle cx="220" cy="228"/><circle cx="236" cy="236"/><circle cx="220" cy="244"/><circle cx="228" cy="228"/><circle cx="236" cy="244"/><circle cx="220" cy="252"/><circle cx="236" cy="260"/><circle cx="252" cy="268"/><circle cx="244" cy="252"/><circle cx="236" cy="268"/><circle cx="220" cy="276"/><circle cx="204" cy="284"/><circle cx="220" cy="292"/><circle cx="236" cy="300"/><circle cx="228" cy="316"/><circle cx="236" cy="332"/><circle cx="252" cy="340"/><circle cx="268" cy="332"/><circle cx="284" cy="340"/><circle cx="300" cy="348"/><circle cx="316" cy="340"/><circle cx="308" cy="324"/><circle cx="300" cy="308"/><circle cx="284" cy="316"/><circle cx="276" cy="300"/><circle cx="260" cy="308"/><circle cx="244" cy="316"/><circle cx="228" cy="308"/><circle cx="236" cy="292"/><circle cx="252" cy="284"/><circle cx="244" cy="268"/><circle cx="252" cy="252"/><circle cx="268" cy="260"/><circle cx="284" cy="268"/><circle cx="292" cy="284"/><circle cx="276" cy="292"/><circle cx="260" cy="284"/><circle cx="276" cy="276"/><circle cx="260" cy="268"/><circle cx="276" cy="260"/><circle cx="292" cy="252"/><circle cx="308" cy="244"/><circle cx="324" cy="252"/><circle cx="332" cy="268"/><circle cx="316" cy="276"/><circle cx="332" cy="284"/><circle cx="348" cy="292"/><circle cx="356" cy="276"/><circle cx="340" cy="268"/><circle cx="348" cy="284"/><circle cx="364" cy="276"/><circle cx="356" cy="292"/><circle cx="364" cy="308"/><circle cx="348" cy="300"/><circle cx="340" cy="284"/><circle cx="324" cy="276"/><circle cx="332" cy="292"/><circle cx="316" cy="284"/><circle cx="308" cy="268"/><circle cx="300" cy="252"/><circle cx="292" cy="236"/><circle cx="276" cy="244"/><circle cx="260" cy="252"/><circle cx="244" cy="260"/><circle cx="228" cy="268"/><circle cx="236" cy="252"/><circle cx="244" cy="236"/><circle cx="236" cy="220"/><circle cx="220" cy="212"/><circle cx="212" cy="228"/><circle cx="228" cy="236"/><circle cx="244" cy="244"/><circle cx="260" cy="236"/><circle cx="268" cy="220"/><circle cx="252" cy="228"/><circle cx="260" cy="244"/><circle cx="276" cy="236"/><circle cx="284" cy="220"/><circle cx="268" cy="228"/><circle cx="276" cy="212"/><circle cx="284" cy="228"/><circle cx="292" cy="244"/><circle cx="300" cy="228"/><circle cx="316" cy="220"/><circle cx="324" cy="236"/><circle cx="340" cy="244"/><circle cx="348" cy="260"/><circle cx="364" cy="252"/><circle cx="356" cy="268"/><circle cx="340" cy="276"/><circle cx="332" cy="260"/><circle cx="348" cy="268"/><circle cx="332" cy="276"/><circle cx="324" cy="260"/><circle cx="340" cy="252"/><circle cx="356" cy="244"/><circle cx="372" cy="236"/><circle cx="364" cy="220"/><circle cx="348" cy="212"/><circle cx="356" cy="228"/><circle cx="372" cy="220"/><circle cx="388" cy="212"/><circle cx="380" cy="196"/><circle cx="396" cy="204"/><circle cx="388" cy="220"/><circle cx="372" cy="228"/><circle cx="364" cy="212"/><circle cx="356" cy="196"/><circle cx="364" cy="180"/><circle cx="372" cy="196"/><circle cx="380" cy="180"/><circle cx="396" cy="188"/><circle cx="388" cy="204"/><circle cx="396" cy="220"/><circle cx="380" cy="212"/><circle cx="364" cy="204"/><circle cx="356" cy="220"/><circle cx="364" cy="236"/><circle cx="372" cy="252"/><circle cx="388" cy="244"/><circle cx="396" cy="228"/><circle cx="380" cy="220"/><circle cx="396" cy="212"/><circle cx="388" cy="228"/><circle cx="396" cy="244"/><circle cx="388" cy="260"/><circle cx="396" cy="276"/><circle cx="380" cy="268"/><circle cx="396" cy="260"/><circle cx="388" cy="276"/><circle cx="396" cy="292"/><circle cx="388" cy="308"/><circle cx="396" cy="324"/><circle cx="380" cy="316"/><circle cx="388" cy="332"/><circle cx="396" cy="348"/><circle cx="388" cy="364"/><circle cx="396" cy="380"/><circle cx="388" cy="396"/><circle cx="372" cy="388"/><circle cx="380" cy="372"/><circle cx="372" cy="356"/><circle cx="356" cy="348"/><circle cx="364" cy="364"/><circle cx="372" cy="348"/><circle cx="388" cy="340"/><circle cx="372" cy="332"/><circle cx="356" cy="340"/><circle cx="340" cy="348"/><circle cx="348" cy="364"/><circle cx="364" cy="372"/><circle cx="380" cy="380"/><circle cx="396" cy="388"/><circle cx="388" cy="372"/><circle cx="396" cy="356"/><circle cx="380" cy="364"/><circle cx="372" cy="380"/><circle cx="380" cy="396"/><circle cx="364" cy="388"/><circle cx="372" cy="372"/><circle cx="364" cy="356"/><circle cx="372" cy="340"/><circle cx="380" cy="356"/><circle cx="364" cy="348"/><circle cx="356" cy="332"/><circle cx="348" cy="348"/><circle cx="356" cy="364"/><circle cx="348" cy="380"/><circle cx="356" cy="396"/><circle cx="364" cy="380"/><circle cx="348" cy="372"/><circle cx="332" cy="364"/><circle cx="348" cy="356"/><circle cx="332" cy="348"/><circle cx="324" cy="364"/><circle cx="308" cy="356"/><circle cx="300" cy="340"/><circle cx="292" cy="356"/><circle cx="300" cy="372"/><circle cx="316" cy="380"/><circle cx="300" cy="388"/><circle cx="284" cy="396"/><circle cx="276" cy="380"/><circle cx="268" cy="396"/><circle cx="260" cy="380"/><circle cx="252" cy="396"/><circle cx="236" cy="388"/><circle cx="228" cy="372"/><circle cx="244" cy="380"/><circle cx="252" cy="364"/><circle cx="244" cy="348"/><circle cx="260" cy="340"/><circle cx="268" cy="356"/><circle cx="260" cy="372"/><circle cx="252" cy="388"/><circle cx="236" cy="396"/><circle cx="220" cy="388"/><circle cx="204" cy="396"/><circle cx="212" cy="380"/><circle cx="220" cy="396"/><circle cx="204" cy="388"/><circle cx="196" cy="372"/><circle cx="188" cy="388"/><circle cx="180" cy="372"/><circle cx="188" cy="356"/><circle cx="204" cy="348"/><circle cx="196" cy="332"/><circle cx="204" cy="316"/><circle cx="212" cy="332"/><circle cx="220" cy="316"/><circle cx="212" cy="300"/><circle cx="220" cy="284"/><circle cx="236" cy="276"/><circle cx="228" cy="260"/><circle cx="212" cy="268"/><circle cx="196" cy="276"/><circle cx="188" cy="292"/><circle cx="204" cy="300"/><circle cx="188" cy="308"/><circle cx="196" cy="324"/><circle cx="188" cy="340"/><circle cx="180" cy="324"/><circle cx="196" cy="316"/><circle cx="188" cy="300"/><circle cx="172" cy="308"/><circle cx="156" cy="316"/><circle cx="140" cy="324"/><circle cx="132" cy="308"/><circle cx="148" cy="316"/><circle cx="156" cy="332"/><circle cx="172" cy="324"/><circle cx="188" cy="316"/><circle cx="204" cy="308"/><circle cx="220" cy="300"/><circle cx="212" cy="316"/><circle cx="204" cy="332"/><circle cx="212" cy="348"/><circle cx="196" cy="340"/><circle cx="204" cy="324"/><circle cx="196" cy="308"/><circle cx="188" cy="324"/><circle cx="180" cy="340"/><circle cx="164" cy="348"/><circle cx="172" cy="364"/><circle cx="164" cy="380"/><circle cx="148" cy="372"/><circle cx="132" cy="380"/><circle cx="116" cy="372"/><circle cx="124" cy="388"/><circle cx="140" cy="396"/><circle cx="156" cy="388"/><circle cx="172" cy="396"/><circle cx="180" cy="380"/><circle cx="188" cy="364"/><circle cx="172" cy="372"/><circle cx="164" cy="388"/><circle cx="180" cy="396"/><circle cx="172" cy="380"/><circle cx="180" cy="364"/><circle cx="188" cy="380"/><circle cx="196" cy="364"/><circle cx="188" cy="348"/><circle cx="180" cy="332"/><circle cx="172" cy="348"/><circle cx="164" cy="364"/><circle cx="180" cy="356"/><circle cx="172" cy="340"/><circle cx="156" cy="348"/><circle cx="140" cy="356"/><circle cx="156" cy="364"/><circle cx="148" cy="348"/><circle cx="140" cy="332"/><circle cx="132" cy="316"/><circle cx="148" cy="308"/><circle cx="156" cy="324"/><circle cx="164" cy="308"/><circle cx="180" cy="316"/><circle cx="172" cy="300"/><circle cx="156" cy="308"/><circle cx="164" cy="324"/><circle cx="148" cy="332"/><circle cx="132" cy="340"/><circle cx="124" cy="324"/><circle cx="108" cy="332"/><circle cx="116" cy="316"/><circle cx="124" cy="332"/><circle cx="108" cy="340"/><circle cx="100" cy="324"/><circle cx="108" cy="308"/><circle cx="116" cy="292"/><circle cx="124" cy="276"/><circle cx="132" cy="292"/><circle cx="116" cy="300"/><circle cx="100" cy="292"/><circle cx="108" cy="276"/><circle cx="92" cy="284"/><circle cx="108" cy="292"/><circle cx="124" cy="284"/><circle cx="140" cy="276"/><circle cx="156" cy="284"/><circle cx="148" cy="268"/><circle cx="164" cy="276"/><circle cx="172" cy="292"/><circle cx="188" cy="284"/><circle cx="204" cy="292"/><circle cx="212" cy="308"/><circle cx="196" cy="300"/><circle cx="180" cy="308"/><circle cx="164" cy="300"/><circle cx="172" cy="284"/><circle cx="188" cy="276"/><circle cx="196" cy="292"/><circle cx="180" cy="300"/><circle cx="172" cy="316"/><circle cx="164" cy="332"/><circle cx="148" cy="324"/><circle cx="156" cy="340"/><circle cx="148" cy="356"/><circle cx="132" cy="364"/><circle cx="124" cy="348"/><circle cx="116" cy="364"/><circle cx="108" cy="348"/><circle cx="100" cy="364"/><circle cx="84" cy="356"/><circle cx="100" cy="348"/><circle cx="92" cy="364"/><circle cx="108" cy="372"/><circle cx="116" cy="388"/><circle cx="100" cy="380"/><circle cx="108" cy="364"/><circle cx="116" cy="348"/><circle cx="100" cy="340"/><circle cx="84" cy="348"/><circle cx="68" cy="356"/><circle cx="60" cy="340"/><circle cx="44" cy="332"/><circle cx="52" cy="316"/><circle cx="36" cy="324"/><circle cx="20" cy="332"/><circle cx="4" cy="324"/><circle cx="12" cy="308"/><circle cx="4" cy="292"/><circle cx="20" cy="284"/><circle cx="4" cy="276"/><circle cx="20" cy="268"/><circle cx="12" cy="284"/><circle cx="20" cy="300"/><circle cx="28" cy="316"/><circle cx="44" cy="308"/><circle cx="60" cy="300"/><circle cx="68" cy="284"/><circle cx="52" cy="292"/><circle cx="68" cy="300"/><circle cx="84" cy="292"/><circle cx="100" cy="300"/><circle cx="92" cy="316"/><circle cx="76" cy="324"/><circle cx="68" cy="308"/><circle cx="60" cy="324"/><circle cx="44" cy="316"/><circle cx="52" cy="300"/><circle cx="60" cy="316"/><circle cx="44" cy="324"/><circle cx="28" cy="332"/><circle cx="12" cy="324"/><circle cx="4" cy="308"/><circle cx="12" cy="292"/><circle cx="28" cy="300"/><circle cx="20" cy="316"/><circle cx="36" cy="308"/><circle cx="28" cy="324"/><circle cx="12" cy="316"/><circle cx="4" cy="300"/><circle cx="20" cy="308"/><circle cx="28" cy="292"/><circle cx="44" cy="284"/><circle cx="36" cy="300"/><circle cx="28" cy="284"/><circle cx="44" cy="292"/><circle cx="60" cy="284"/><circle cx="76" cy="276"/><circle cx="84" cy="260"/><circle cx="100" cy="268"/><circle cx="108" cy="284"/><circle cx="92" cy="292"/><circle cx="76" cy="300"/><circle cx="84" cy="316"/><circle cx="100" cy="308"/><circle cx="84" cy="300"/><circle cx="76" cy="316"/><circle cx="60" cy="308"/><circle cx="44" cy="300"/><circle cx="60" cy="292"/><circle cx="52" cy="308"/><circle cx="36" cy="316"/><circle cx="52" cy="324"/><circle cx="68" cy="332"/><circle cx="76" cy="348"/><circle cx="68" cy="364"/><circle cx="60" cy="348"/><circle cx="44" cy="340"/><circle cx="60" cy="332"/><circle cx="76" cy="340"/><circle cx="92" cy="348"/><circle cx="108" cy="356"/><circle cx="124" cy="364"/><circle cx="140" cy="372"/><circle cx="156" cy="380"/><circle cx="148" cy="396"/><circle cx="132" cy="388"/><circle cx="116" cy="396"/><circle cx="108" cy="380"/><circle cx="100" cy="396"/><circle cx="92" cy="380"/><circle cx="76" cy="372"/><circle cx="84" cy="388"/><circle cx="68" cy="396"/><circle cx="52" cy="388"/><circle cx="68" cy="380"/><circle cx="60" cy="396"/><circle cx="52" cy="380"/><circle cx="36" cy="372"/><circle cx="52" cy="364"/><circle cx="36" cy="356"/><circle cx="20" cy="364"/><circle cx="12" cy="380"/><circle cx="4" cy="396"/><circle cx="20" cy="388"/><circle cx="36" cy="396"/><circle cx="28" cy="380"/><circle cx="12" cy="372"/><circle cx="4" cy="388"/><circle cx="20" cy="396"/><circle cx="36" cy="388"/><circle cx="44" cy="372"/><circle cx="28" cy="364"/><circle cx="12" cy="356"/><circle cx="4" cy="340"/><circle cx="20" cy="348"/><circle cx="4" cy="356"/><circle cx="12" cy="340"/><circle cx="28" cy="348"/><circle cx="36" cy="332"/><circle cx="20" cy="324"/><circle cx="28" cy="340"/><circle cx="12" cy="332"/><circle cx="4" cy="316"/><circle cx="12" cy="300"/><circle cx="4" cy="284"/><circle cx="20" cy="276"/><circle cx="36" cy="284"/><circle cx="52" cy="276"/><circle cx="68" cy="268"/><circle cx="76" cy="252"/><circle cx="84" cy="236"/><circle cx="100" cy="228"/><circle cx="116" cy="220"/><circle cx="100" cy="212"/><circle cx="108" cy="196"/><circle cx="92" cy="204"/><circle cx="76" cy="212"/><circle cx="84" cy="196"/><circle cx="76" cy="180"/><circle cx="60" cy="188"/><circle cx="44" cy="180"/><circle cx="52" cy="164"/><circle cx="60" cy="180"/><circle cx="68" cy="196"/><circle cx="84" cy="188"/><circle cx="76" cy="204"/><circle cx="68" cy="220"/><circle cx="52" cy="228"/><circle cx="68" cy="236"/><circle cx="84" cy="228"/><circle cx="92" cy="212"/><circle cx="100" cy="196"/><circle cx="92" cy="180"/><circle cx="84" cy="164"/><circle cx="68" cy="156"/><circle cx="52" cy="148"/><circle cx="36" cy="156"/><circle cx="44" cy="172"/><circle cx="52" cy="188"/><circle cx="60" cy="204"/><circle cx="52" cy="220"/><circle cx="44" cy="204"/><circle cx="60" cy="196"/><circle cx="68" cy="180"/><circle cx="84" cy="172"/><circle cx="100" cy="180"/><circle cx="92" cy="196"/><circle cx="84" cy="180"/><circle cx="76" cy="164"/><circle cx="68" cy="148"/><circle cx="84" cy="156"/><circle cx="68" cy="164"/><circle cx="52" cy="172"/><circle cx="60" cy="156"/><circle cx="68" cy="172"/><circle cx="76" cy="188"/><circle cx="68" cy="204"/><circle cx="60" cy="220"/><circle cx="44" cy="228"/><circle cx="60" cy="236"/><circle cx="52" cy="252"/><circle cx="36" cy="260"/><circle cx="28" cy="276"/><circle cx="36" cy="292"/><circle cx="28" cy="308"/><circle cx="20" cy="292"/><circle cx="12" cy="276"/><circle cx="4" cy="260"/><circle cx="12" cy="244"/><circle cx="4" cy="228"/><circle cx="12" cy="212"/><circle cx="4" cy="196"/><circle cx="20" cy="188"/><circle cx="12" cy="204"/><circle cx="4" cy="188"/><circle cx="20" cy="196"/><circle cx="28" cy="212"/><circle cx="12" cy="220"/><circle cx="4" cy="204"/><circle cx="20" cy="212"/><circle cx="4" cy="220"/><circle cx="20" cy="228"/><circle cx="28" cy="244"/><circle cx="20" cy="260"/><circle cx="4" cy="268"/><circle cx="12" cy="252"/><circle cx="4" cy="236"/><circle cx="20" cy="244"/><circle cx="4" cy="252"/><circle cx="12" cy="236"/><circle cx="20" cy="220"/><circle cx="28" cy="236"/><circle cx="36" cy="252"/><circle cx="44" cy="236"/><circle cx="28" cy="228"/><circle cx="36" cy="212"/><circle cx="28" cy="196"/><circle cx="44" cy="188"/><circle cx="36" cy="172"/><circle cx="20" cy="164"/><circle cx="4" cy="156"/><circle cx="12" cy="172"/><circle cx="28" cy="180"/><circle cx="12" cy="188"/><circle cx="20" cy="204"/><circle cx="28" cy="220"/><circle cx="36" cy="236"/><circle cx="44" cy="252"/><circle cx="36" cy="268"/><circle cx="52" cy="260"/><circle cx="60" cy="244"/><circle cx="76" cy="236"/><circle cx="60" cy="228"/><circle cx="68" cy="244"/><circle cx="60" cy="260"/><circle cx="52" cy="244"/><circle cx="68" cy="252"/><circle cx="76" cy="268"/><circle cx="92" cy="260"/><circle cx="84" cy="276"/><circle cx="76" cy="292"/><circle cx="92" cy="300"/><circle cx="100" cy="284"/><circle cx="108" cy="268"/><circle cx="116" cy="284"/><circle cx="124" cy="300"/><circle cx="140" cy="308"/><circle cx="124" cy="316"/><circle cx="116" cy="332"/><circle cx="132" cy="324"/><circle cx="140" cy="340"/><circle cx="132" cy="356"/><circle cx="148" cy="364"/><circle cx="164" cy="372"/><circle cx="172" cy="356"/><circle cx="164" cy="340"/><circle cx="156" cy="356"/><circle cx="148" cy="340"/><circle cx="132" cy="332"/><circle cx="140" cy="348"/><circle cx="124" cy="340"/><circle cx="116" cy="324"/><circle cx="124" cy="308"/><circle cx="108" cy="316"/><circle cx="92" cy="308"/><circle cx="108" cy="300"/><circle cx="100" cy="316"/><circle cx="92" cy="332"/><circle cx="108" cy="324"/><circle cx="116" cy="308"/><circle cx="132" cy="300"/><circle cx="140" cy="316"/><circle cx="148" cy="300"/><circle cx="140" cy="284"/><circle cx="156" cy="292"/><circle cx="140" cy="300"/><circle cx="124" cy="292"/><circle cx="116" cy="276"/><circle cx="132" cy="268"/><circle cx="140" cy="252"/><circle cx="148" cy="236"/><circle cx="132" cy="228"/><circle cx="116" cy="236"/><circle cx="100" cy="244"/><circle cx="84" cy="252"/><circle cx="92" cy="236"/><circle cx="84" cy="220"/><circle cx="68" cy="228"/><circle cx="76" cy="244"/><circle cx="68" cy="260"/><circle cx="60" cy="276"/><circle cx="44" cy="268"/><circle cx="28" cy="260"/><circle cx="12" cy="268"/><circle cx="20" cy="252"/><circle cx="36" cy="244"/><circle cx="44" cy="260"/><circle cx="60" cy="252"/><circle cx="52" cy="236"/><circle cx="44" cy="220"/><circle cx="52" cy="204"/><circle cx="36" cy="196"/><circle cx="44" cy="212"/><circle cx="28" cy="204"/><circle cx="36" cy="220"/><circle cx="52" cy="212"/><circle cx="44" cy="196"/><circle cx="36" cy="180"/><circle cx="28" cy="164"/><circle cx="20" cy="148"/><circle cx="4" cy="140"/><circle cx="12" cy="124"/><circle cx="4" cy="108"/><circle cx="12" cy="92"/><circle cx="4" cy="76"/><circle cx="20" cy="68"/><circle cx="36" cy="76"/><circle cx="28" cy="60"/><circle cx="20" cy="44"/><circle cx="28" cy="28"/><circle cx="36" cy="12"/><circle cx="52" cy="4"/><circle cx="68" cy="12"/><circle cx="76" cy="28"/><circle cx="68" cy="44"/><circle cx="84" cy="36"/><circle cx="76" cy="20"/><circle cx="60" cy="12"/><circle cx="44" cy="4"/><circle cx="28" cy="12"/><circle cx="12" cy="4"/><circle cx="4" cy="20"/><circle cx="20" cy="28"/><circle cx="4" cy="36"/><circle cx="12" cy="52"/><circle cx="4" cy="68"/><circle cx="12" cy="84"/><circle cx="4" cy="100"/><circle cx="20" cy="92"/><circle cx="12" cy="76"/><circle cx="28" cy="84"/><circle cx="44" cy="92"/><circle cx="52" cy="76"/><circle cx="44" cy="60"/><circle cx="36" cy="44"/><circle cx="20" cy="36"/><circle cx="4" cy="44"/><circle cx="20" cy="52"/><circle cx="4" cy="60"/><circle cx="12" cy="44"/><circle cx="4" cy="28"/><circle cx="12" cy="12"/><circle cx="28" cy="4"/><circle cx="20" cy="20"/><circle cx="36" cy="28"/><circle cx="44" cy="44"/><circle cx="60" cy="52"/><circle cx="68" cy="36"/><circle cx="84" cy="44"/><circle cx="68" cy="52"/><circle cx="60" cy="68"/><circle cx="52" cy="84"/><circle cx="36" cy="92"/><circle cx="28" cy="108"/><circle cx="36" cy="124"/><circle cx="28" cy="140"/><circle cx="44" cy="148"/><circle cx="60" cy="140"/><circle cx="76" cy="148"/><circle cx="92" cy="156"/><circle cx="100" cy="172"/><circle cx="108" cy="156"/><circle cx="124" cy="148"/><circle cx="132" cy="164"/><circle cx="116" cy="156"/><circle cx="108" cy="140"/><circle cx="100" cy="124"/><circle cx="116" cy="116"/><circle cx="132" cy="108"/><circle cx="124" cy="92"/><circle cx="116" cy="108"/><circle cx="100" cy="116"/><circle cx="116" cy="124"/><circle cx="124" cy="140"/><circle cx="108" cy="132"/><circle cx="116" cy="148"/><circle cx="124" cy="132"/><circle cx="140" cy="140"/><circle cx="156" cy="132"/><circle cx="164" cy="116"/><circle cx="172" cy="132"/><circle cx="180" cy="116"/><circle cx="196" cy="108"/><circle cx="212" cy="100"/><circle cx="196" cy="92"/><circle cx="212" cy="84"/><circle cx="204" cy="68"/><circle cx="212" cy="52"/><circle cx="204" cy="36"/><circle cx="220" cy="28"/><circle cx="228" cy="44"/><circle cx="220" cy="60"/><circle cx="228" cy="76"/><circle cx="220" cy="92"/><circle cx="228" cy="108"/><circle cx="244" cy="116"/><circle cx="260" cy="108"/><circle cx="252" cy="124"/><circle cx="236" cy="116"/><circle cx="220" cy="108"/><circle cx="204" cy="116"/><circle cx="188" cy="124"/><circle cx="180" cy="108"/><circle cx="172" cy="124"/><circle cx="164" cy="140"/><circle cx="172" cy="156"/><circle cx="188" cy="148"/><circle cx="180" cy="132"/><circle cx="188" cy="116"/><circle cx="204" cy="124"/><circle cx="196" cy="140"/><circle cx="204" cy="156"/><circle cx="212" cy="172"/><circle cx="196" cy="180"/><circle cx="188" cy="196"/><circle cx="204" cy="188"/><circle cx="220" cy="196"/><circle cx="228" cy="180"/><circle cx="244" cy="172"/><circle cx="252" cy="156"/><circle cx="268" cy="164"/><circle cx="260" cy="148"/><circle cx="244" cy="156"/><circle cx="260" cy="164"/><circle cx="252" cy="180"/><circle cx="268" cy="188"/><circle cx="284" cy="180"/><circle cx="300" cy="172"/><circle cx="316" cy="164"/><circle cx="332" cy="156"/><circle cx="324" cy="172"/><circle cx="340" cy="164"/><circle cx="348" cy="148"/><circle cx="364" cy="156"/><circle cx="372" cy="172"/><circle cx="364" cy="188"/><circle cx="348" cy="180"/><circle cx="356" cy="164"/><circle cx="372" cy="156"/><circle cx="388" cy="164"/><circle cx="396" cy="180"/><circle cx="380" cy="172"/><circle cx="396" cy="164"/><circle cx="388" cy="180"/><circle cx="396" cy="196"/><circle cx="380" cy="204"/><circle cx="388" cy="188"/><circle cx="396" cy="172"/><circle cx="388" cy="156"/><circle cx="372" cy="164"/><circle cx="388" cy="172"/><circle cx="396" cy="156"/><circle cx="380" cy="164"/><circle cx="388" cy="148"/><circle cx="396" cy="132"/><circle cx="380" cy="124"/><circle cx="396" cy="116"/><circle cx="388" cy="132"/><circle cx="396" cy="148"/><circle cx="380" cy="156"/><circle cx="372" cy="140"/><circle cx="356" cy="132"/><circle cx="372" cy="124"/><circle cx="388" cy="116"/><circle cx="396" cy="100"/><circle cx="380" cy="108"/><circle cx="388" cy="92"/><circle cx="372" cy="100"/><circle cx="388" cy="108"/><circle cx="396" cy="124"/><circle cx="388" cy="140"/><circle cx="372" cy="132"/><circle cx="364" cy="116"/><circle cx="348" cy="124"/><circle cx="340" cy="140"/><circle cx="332" cy="124"/><circle cx="340" cy="108"/><circle cx="324" cy="116"/><circle cx="316" cy="100"/><circle cx="300" cy="108"/><circle cx="292" cy="124"/><circle cx="308" cy="116"/><circle cx="324" cy="124"/><circle cx="316" cy="108"/><circle cx="308" cy="92"/><circle cx="300" cy="76"/><circle cx="308" cy="60"/><circle cx="324" cy="52"/><circle cx="340" cy="60"/><circle cx="356" cy="52"/><circle cx="348" cy="36"/><circle cx="332" cy="28"/><circle cx="340" cy="44"/><circle cx="324" cy="36"/><circle cx="340" cy="28"/><circle cx="356" cy="20"/><circle cx="372" cy="28"/><circle cx="388" cy="36"/><circle cx="396" cy="52"/><circle cx="388" cy="68"/><circle cx="396" cy="84"/><circle cx="380" cy="76"/><circle cx="364" cy="68"/><circle cx="356" cy="84"/><circle cx="348" cy="100"/><circle cx="364" cy="108"/><circle cx="356" cy="124"/><circle cx="364" cy="140"/><circle cx="380" cy="148"/><circle cx="396" cy="140"/><circle cx="380" cy="132"/><circle cx="372" cy="116"/><circle cx="356" cy="108"/><circle cx="364" cy="124"/><circle cx="356" cy="140"/><circle cx="348" cy="156"/><circle cx="356" cy="172"/><circle cx="372" cy="180"/><circle cx="364" cy="196"/><circle cx="380" cy="188"/><circle cx="372" cy="204"/><circle cx="388" cy="196"/><circle cx="372" cy="188"/><circle cx="356" cy="180"/><circle cx="364" cy="164"/><circle cx="348" cy="172"/><circle cx="356" cy="156"/><circle cx="372" cy="148"/><circle cx="364" cy="132"/><circle cx="356" cy="148"/><circle cx="340" cy="156"/><circle cx="324" cy="164"/><circle cx="332" cy="180"/><circle cx="316" cy="188"/><circle cx="308" cy="204"/><circle cx="300" cy="220"/><circle cx="308" cy="236"/><circle cx="316" cy="252"/><circle cx="300" cy="260"/><circle cx="316" cy="268"/><circle cx="308" cy="252"/><circle cx="316" cy="236"/><circle cx="332" cy="244"/><circle cx="324" cy="228"/><circle cx="316" cy="244"/><circle cx="332" cy="236"/><circle cx="348" cy="244"/><circle cx="332" cy="252"/><circle cx="340" cy="236"/><circle cx="348" cy="252"/><circle cx="364" cy="260"/><circle cx="380" cy="252"/><circle cx="388" cy="236"/><circle cx="396" cy="252"/><circle cx="380" cy="260"/><circle cx="364" cy="268"/><circle cx="356" cy="284"/><circle cx="372" cy="276"/><circle cx="388" cy="268"/><circle cx="396" cy="284"/><circle cx="388" cy="300"/><circle cx="396" cy="316"/><circle cx="380" cy="324"/><circle cx="364" cy="316"/><circle cx="356" cy="300"/><circle cx="340" cy="308"/><circle cx="348" cy="324"/><circle cx="364" cy="332"/><circle cx="356" cy="316"/><circle cx="364" cy="300"/><circle cx="380" cy="308"/><circle cx="372" cy="292"/><circle cx="388" cy="284"/><circle cx="396" cy="300"/><circle cx="380" cy="292"/><circle cx="372" cy="308"/><circle cx="364" cy="324"/><circle cx="348" cy="316"/><circle cx="340" cy="300"/><circle cx="324" cy="292"/><circle cx="316" cy="308"/><circle cx="324" cy="324"/><circle cx="308" cy="332"/><circle cx="300" cy="316"/><circle cx="292" cy="300"/><circle cx="308" cy="292"/><circle cx="300" cy="276"/><circle cx="308" cy="260"/><circle cx="324" cy="268"/><circle cx="308" cy="276"/><circle cx="324" cy="284"/><circle cx="316" cy="300"/><circle cx="332" cy="308"/><circle cx="340" cy="292"/><circle cx="348" cy="276"/><circle cx="340" cy="260"/><circle cx="356" cy="252"/><circle cx="372" cy="260"/><circle cx="380" cy="244"/><circle cx="396" cy="236"/><circle cx="380" cy="228"/><circle cx="372" cy="212"/><circle cx="356" cy="204"/><circle cx="348" cy="188"/><circle cx="340" cy="172"/><circle cx="332" cy="188"/><circle cx="348" cy="196"/><circle cx="340" cy="212"/><circle cx="324" cy="204"/><circle cx="340" cy="196"/><circle cx="324" cy="188"/><circle cx="308" cy="180"/><circle cx="292" cy="188"/><circle cx="276" cy="196"/><circle cx="260" cy="188"/><circle cx="252" cy="172"/><circle cx="236" cy="180"/><circle cx="228" cy="164"/><circle cx="220" cy="148"/><circle cx="212" cy="132"/><circle cx="228" cy="124"/><circle cx="244" cy="132"/><circle cx="228" cy="140"/><circle cx="244" cy="148"/><circle cx="236" cy="164"/><circle cx="220" cy="156"/><circle cx="204" cy="148"/><circle cx="196" cy="132"/><circle cx="212" cy="124"/><circle cx="220" cy="140"/><circle cx="204" cy="132"/><circle cx="212" cy="148"/><circle cx="204" cy="164"/><circle cx="188" cy="156"/><circle cx="196" cy="172"/><circle cx="212" cy="180"/><circle cx="220" cy="164"/><circle cx="204" cy="172"/><circle cx="196" cy="156"/><circle cx="180" cy="164"/><circle cx="172" cy="148"/><circle cx="188" cy="140"/><circle cx="180" cy="156"/><circle cx="196" cy="164"/><circle cx="180" cy="172"/><circle cx="164" cy="180"/><circle cx="180" cy="188"/><circle cx="172" cy="204"/><circle cx="164" cy="220"/><circle cx="156" cy="236"/><circle cx="172" cy="228"/><circle cx="180" cy="212"/><circle cx="188" cy="228"/><circle cx="172" cy="236"/><circle cx="180" cy="252"/><circle cx="164" cy="260"/><circle cx="172" cy="244"/><circle cx="180" cy="228"/><circle cx="196" cy="220"/><circle cx="188" cy="236"/><circle cx="204" cy="228"/><circle cx="212" cy="244"/><circle cx="196" cy="252"/><circle cx="180" cy="260"/><circle cx="172" cy="276"/><circle cx="156" cy="268"/><circle cx="148" cy="252"/><circle cx="132" cy="260"/><circle cx="124" cy="244"/><circle cx="116" cy="260"/><circle cx="100" cy="252"/><circle cx="92" cy="268"/><circle cx="76" cy="260"/><circle cx="60" cy="268"/><circle cx="44" cy="276"/><circle cx="28" cy="268"/><circle cx="12" cy="260"/><circle cx="28" cy="252"/><circle cx="44" cy="244"/><circle cx="36" cy="228"/><circle cx="20" cy="236"/><circle cx="4" cy="244"/><circle cx="12" cy="228"/><circle cx="4" cy="212"/><circle cx="12" cy="196"/><circle cx="4" cy="180"/><circle cx="12" cy="164"/><circle cx="4" cy="148"/><circle cx="12" cy="132"/><circle cx="4" cy="116"/><circle cx="12" cy="100"/><circle cx="4" cy="84"/><circle cx="12" cy="68"/><circle cx="4" cy="52"/><circle cx="12" cy="36"/><circle cx="28" cy="44"/><circle cx="20" cy="60"/><circle cx="36" cy="52"/><circle cx="44" cy="36"/><circle cx="60" cy="28"/><circle cx="52" cy="12"/><circle cx="68" cy="20"/><circle cx="60" cy="4"/><circle cx="52" cy="20"/><circle cx="60" cy="36"/><circle cx="52" cy="52"/><circle cx="36" cy="60"/><circle cx="52" cy="68"/><circle cx="44" cy="52"/><circle cx="36" cy="36"/><circle cx="52" cy="28"/><circle cx="36" cy="20"/><circle cx="28" cy="36"/><circle cx="12" cy="28"/><circle cx="4" cy="12"/><circle cx="20" cy="4"/><circle cx="12" cy="20"/><polyline points="4 4 20 12 36 4 44 20 52 36 68 28 76 12 92 4 108 12 124 4 140 12 156 4 148 20 132 28 116 20 124 36 132 20 140 4 124 12 108 4 100 20 92 36 108 44 100 28 84 20 76 4 92 12 84 28 76 44 84 60 92 76 76 84 68 68 76 52 60 44 52 60 60 76 44 68 28 76 44 84 60 92 68 108 76 124 92 132 108 124 100 140 116 132 132 124 140 108 148 92 132 100 124 116 116 100 108 84 92 92 108 100 92 108 76 100 84 84 76 68 60 60 52 44 44 28 28 20 44 12 60 20 68 4 84 12 100 4 116 12 132 4 140 20 148 4 156 20 164 4 148 12 140 28 124 20 108 28 92 20 84 4 100 12 116 4 132 12 124 28 140 36 156 28 172 36 164 52 180 44 164 36 148 44 156 60 140 68 124 60 116 44 132 52 148 60 156 76 140 84 132 68 124 52 132 36 116 28 124 44 108 52 100 36 92 52 100 68 92 84 84 68 68 60 76 76 84 92 68 84 60 100 44 108 52 124 60 108 44 100 28 92 20 108 36 116 44 132 52 116 60 132 44 140 28 148 20 132 12 148 4 164 12 180 28 172 20 156 36 164 52 156 60 172 68 188 76 172 60 164 44 156 60 148 76 140 84 124 68 116 52 108 44 124 28 132 12 140 4 124 12 108 28 116 36 132 20 124 4 132 12 116 20 100 4 92 20 84 28 100 20 116 36 108 52 100 68 92 84 100 92 116 84 132 92 148 100 164 116 172 124 156 132 140 148 148 140 164 156 172 148 188 140 172 156 180 172 172 156 164 140 156 148 172 140 188 124 180 116 164 132 156 124 172 132 188 124 204 108 212 116 196 100 204 108 188 116 204 132 212 124 196 116 180 108 164 92 172 100 188 108 204 100 220 84 212 76 196 68 212 76 228 84 244 92 228 108 236 92 244 108 252 116 268 100 276 84 284 68 276 52 268 36 276 52 284 68 292 76 308 84 324 68 316 84 308 92 324 76 332 92 340 100 356 92 372 100 388 84 380 76 396 60 388 44 396 28 388 20 372 28 356 44 348 36 364 44 380 28 372 44 364 52 348 60 364 68 348 52 340 44 356 36 340 52 332 68 324 84 332 68 340 60 356 76 364 60 372 52 356 36 348 20 340 4 332 12 348 4 364 20 356 4 348 12 364 4 380 12 396 20 380 4 372 12 388 28 396 36 380 52 372 44 388 60 380 52 396 68 388 84 396 76 380 84 364 100 372 92 388 108 396 116 380 124 396 108 388 92 396 76 388 68 372 76 356 84 372 92 356 84 340 100 332 116 340 124 356 132 372 140 388 124 380 132 396 140 380 124 372 116 356 132 348 140 364 148 380 156 396 172 388 188 396 196 380 212 388 228 396 244 388 260 396 276 388 292 396 284 380 268 388 276 372 284 388 300 380 316 388 300 396 292 380 284 364 276 348 292 340 276 332 268 316 252 324 244 340 228 348 244 356 260 364 252 348 244 364 252 380 268 372 260 388 244 396 236 380 252 372 260 356 268 340 284 348 292 332 276 324 292 316 308 308 324 300 316 316 300 324 284 332 268 324 276 308 284 324 300 332 292 348 276 340 260 332 244 324 236 308 228 324 236 340 220 332 236 324 244 308 260 300 252 316 244 332 228 340 220 324 212 340 228 332 220 348 236 356 220 364 204 356 212 372 228 380 244 372 228 364 212 356 196 348 188 332 204 340 212 324 220 308 228 292 244 284 228 276 212 284 204 268 220 260 228 244 212 252 196 260 180 268 172 252 156 244 148 228 140 244 156 252 172 260 164 244 156 228 164 212 156 196 148 212 140 196 148 180 164 188 180 180 188 164 180 148 164 156 148 164 132 172 124 188 108 180 92 188 84 204 76 220 60 212 52 196 36 204 28 188 20 172 28 156 36 140 28 124 20 140 12 156 4 172 20 180 36 188 52 180 44 164 36 148 52 140 60 124 68 140 76 156 92 164 100 148 116 140 124 124 140 116 156 108 172 116 164 100 156 116 140 124 148 108 156 124 164 108 148 116 140 132 132 116 124 100 132 84 140 100 156 92 172 100 188 92 172 84 180 100 188 84 204 92 220 100 212 116 196 124 188 108 204 100 196 116 180 124 164 132 148 124 156 140 164 124 172 108 156 100 140 92 148 76 164 84 180 92 196 100 212 108 220 124 236 132 228 116 244 124 228 132 236 148 244 164 260 172 276 164 292 156 308 164 300 180 316 172 324 156 332 140 316 148 300 156 284 148 268 156 252 148 236 156 244 140 260 132 268 116 284 108 292 92 308 100 300 116 284 124 276 140 292 132 308 140 300 124 284 132 276 148 268 132 276 116 292 108 276 100 284 116 292 100 276 92 268 76 284 84 300 92 284 100 268 108 260 92 252 108 260 124 252 140 268 148 276 132 260 140 268 124 276 108 268 92 252 100 260 84 244 92 228 100 220 84 228 68 236 84 252 76 244 60 236 76 228 60 220 44 228 28 212 20 228 12 244 20 236 36 252 44 268 52 284 44 292 28 308 20 324 28 340 20 324 12 308 4 292 12 300 28 292 44 300 60 308 44 316 28 308 12 292 20 276 28 260 20 252 4 268 12 284 4 300 12 316 4 332 12 348 4 364 12 380 4 396 12 380 20 396 28 388 12 372 4 356 12 364 28 380 36 396 44 388 28 380 12 396 4 388 20 396 36 380 44 388 60 396 76 380 84 396 92 388 76 380 92 364 84 372 68 364 52 372 36 356 44 348 28 364 36 372 52 388 44 396 60 380 52 364 44 372 60 356 68 348 52 340 68 324 76 332 60 348 68 340 84 356 76 364 92 380 100 388 84 396 68 380 60 372 76 364 60 372 44 388 52 380 68 372 84 364 100 348 92 332 100 316 92 332 84 324 100 308 108 292 116 300 100 284 92 268 100 252 92 236 100 244 84 252 68 236 60 220 68 228 52 236 68 252 60 236 52 244 68 252 84 260 100 268 84 284 76 300 84 292 68 276 60 292 52 276 44 260 36 244 44 236 28 220 36 236 44 252 36 260 52 268 68 284 60 292 76 276 84 260 76 268 60 284 68 276 52 284 36 268 44 252 52 260 68 276 76 292 84 300 68 308 84 316 68 332 76 316 84 324 68 308 76 316 60 324 44 340 36 332 20 340 4 348 20 356 36 364 20 380 28 396 20 388 4 372 12 356 4 340 12 324 4 316 20 308 36 300 52 308 68 316 52 332 44 324 60 340 52 356 60 348 76 340 92 324 84 332 68 316 76 324 92 332 108 316 116 308 132 292 140 284 156 300 148 316 140 332 148 340 132 348 116 340 100 324 108 340 116 332 132 324 148 308 156 292 148 300 164 284 172 276 156 268 172 260 156 268 140 252 132 236 124 252 116 244 100 228 92 236 108 220 116 204 108 212 92 204 76 188 68 180 84 164 76 180 68 164 60 172 76 156 68 140 76 124 68 116 84 108 68 92 60 100 44 116 36 108 20 92 28 108 36 116 52 100 60 92 44 76 36 84 52 92 68 100 52 116 60 124 76 116 92 100 100 84 108 68 100 76 116 68 132 60 116 76 108 68 124 52 132 44 116 36 100 52 92 36 84 20 76 36 68 28 52 12 60 28 68 44 76 60 84 76 92 68 76 76 60 84 76 100 84 116 76 108 60 100 76 108 92 100 108 84 116 92 100 108 108 100 92 108 76 124 84 116 68 132 60 148 52 132 44 140 60 132 76 148 84 164 92 148 100 132 92 124 108 108 116 92 124 84 140 100 132 108 148 92 140 76 132 84 148 100 156 108 172 116 188 132 180 124 164 132 148 148 156 164 164 172 180 164 196 148 204 140 220 132 204 116 212 132 220 140 204 124 212 116 228 132 236 124 252 140 260 148 244 132 252 124 268 132 284 148 292 164 284 180 292 196 284 212 292 228 300 244 292 252 308 236 316 244 300 236 284 252 276 260 292 268 308 260 324 276 316 284 300 300 292 292 276 284 260 268 268 276 284 260 276 276 268 260 260 268 276 284 284 268 292 252 300 260 316 252 332 260 348 276 356 292 364 308 372 316 356 308 340 324 348 340 356 332 340 324 356 308 348 316 332 332 324 348 332 340 316 332 300 316 292 300 300 284 308 292 324 308 316 324 308 316 324 324 340 340 332 332 316 324 332 340 340 332 356 316 348 308 364 324 372 340 364 356 356 348 340 332 332 324 316 340 324 348 308 356 324 364 340 380 348 372 364 356 372 340 380 348 396 356 380 340 372 332 388 316 396 324 380 332 396 348 388 364 396 380 388 396 396 388 380 396 364 388 348 396 332 380 340 372 324 388 316 380 332 372 316 356 308 364 292 380 284 372 300 388 292 372 284 380 300 396 308 388 324 396 340 388 356 396 372 388 388 372 396 356 388 340 396 332 380 316 372 308 388 324 396 340 388 332 372 324 388 308 396 292 388 276 396 268 380 276 364 268 348 284 356 292 372 300 356 316 364 308 380 300 364 284 372 268 364 252 356 236 348 220 340 228 356 236 372 228 388 220 372 236 364 220 356 204 364 188 372 196 388 212 396 220 380 204 372 196 356 212 364 204 380 196 396 180 388 164 396 148 388 156 372 164 356 180 348 172 332 164 316 156 300 140 292 148 276 156 260 140 268 156 276 164 292 148 284 132 276 124 260 116 244 108 260 92 252 84 268 76 284 92 276 100 260 108 244 124 236 116 252 132 244 140 228 124 220 108 228 92 220 100 236 108 220 124 228 140 236 148 220 156 204 172 196 188 188 180 204 172 220 156 212 148 196 140 180 132 196 140 212 156 220 164 236 180 244 164 252 148 260 164 268 180 276 188 260 172 268 180 284 188 268 204 276 212 260 204 244 196 228 212 236 196 244 204 260 220 268 228 252 220 236 212 220 204 236 188 244 204 252 196 236 188 252 196 268 212 276 228 284 244 276 252 260 268 252 252 244 244 228 260 220 268 236 284 244 276 228 268 212 252 204 244 188 236 204 228 188 244 196 252 212 260 228 244 220 252 236 268 244 284 252 292 268 300 284 308 300 292 308 284 292 268 300 252 292 268 284 284 276 292 292 308 284 300 268 316 260 324 244 332 228 348 236 340 220 324 212 316 228 300 236 308 220 316 204 332 212 348 220 340 204 332 220 348 228 356 212 364 228 380 236 364 244 356 260 372 268 364 284 380 276 396 268 388 252 372 244 356 236 340 228 324 220 332 204 316 196 308 212 292 220 300 204 308 188 292 196 276 188 260 180 276 172 292 164 308 172 316 156 324 140 316 124 332 116 348 108 356 92 364 76 372 92 388 100 380 116 396 108 388 124 380 140 364 148 348 140 340 124 324 132 308 124 300 140 316 132 308 148 300 132 284 140 276 124 260 116 244 108 236 92 244 76 228 84 212 76 196 84 188 100 172 92 180 76 196 68 204 52 188 44 196 60 188 76 172 68 180 52 164 44 172 60 156 52 148 36 140 52 148 68 156 84 164 68 180 60 196 52 212 60 220 76 204 84 212 68 196 76 188 60 172 52 156 44 164 28 172 44 188 52 180 36 196 44 188 28 180 12 172 28 164 12 180 4 188 20 196 36 180 28 172 12 188 4 204 12 220 4 236 12 220 20 212 4 196 12 204 28 212 44 204 60 220 52 204 44 188 36 196 20 212 28 228 36 244 28 228 20 244 12 260 4 276 12 268 28 252 20 244 4 236 20 228 4 212 12 196 4 204 20 212 36 196 28 180 20 172 4 164 20 156 36 140 44 148 28 156 12 172 20 188 12 204 4 220 12 236 4 252 12 260 28 244 36 260 44 244 52 260 60 276 68 292 60 300 44 284 52 276 36 284 20 292 4 300 20 292 36 308 28 324 20 316 36 308 52 300 36 284 28 268 20 276 4 260 12 252 28 268 36 276 20 268 4 284 12 300 4 316 12 332 4 348 12 364 4 372 20 356 28 348 44 332 36 316 44 332 52 348 60 340 76 332 92 348 84 356 100 372 108 356 116 348 132 340 148 332 164 340 180 348 164 364 172 356 188 348 204 332 196 324 180 340 188 332 172 316 180 324 196 316 212 308 228 300 244 292 260 276 252 284 236 276 220 292 212 276 204 260 212 268 196 284 204 300 196 284 188 292 172 276 180 284 164 292 180 284 196 300 188 292 204 308 196 300 212 292 228 284 212 268 204 252 196 236 188 228 204 220 188 204 196 220 204 236 196 252 188 268 180 260 196 244 204 228 212 236 228 220 220 212 204 196 212 180 220 188 204 172 212 164 228 180 236 188 220 204 212 196 196 188 212 204 220 196 204 212 196 204 180 188 172 172 164 164 148 180 140 196 148 212 140 228 148 212 156 220 172 212 188 204 204 196 188 180 196 188 180 172 188 164 204 156 188 164 172 156 156 148 140 132 132 140 148 148 132 156 148 172 140 188 132 204 140 220 132 236 140 228 156 236 172 252 164 244 180 228 172 212 164 220 180 228 196 236 212 252 220 260 204 244 212 228 220 212 212 220 228 236 236 220 244 228 228 236 244 220 252 236 260 252 268 244 252 236 268 220 276 204 284 220 292 236 300 228 316 236 332 252 340 268 332 284 340 300 348 316 340 308 324 300 308 284 316 276 300 260 308 244 316 228 308 236 292 252 284 244 268 252 252 268 260 284 268 292 284 276 292 260 284 276 276 260 268 276 260 292 252 308 244 324 252 332 268 316 276 332 284 348 292 356 276 340 268 348 284 364 276 356 292 364 308 348 300 340 284 324 276 332 292 316 284 308 268 300 252 292 236 276 244 260 252 244 260 228 268 236 252 244 236 236 220 220 212 212 228 228 236 244 244 260 236 268 220 252 228 260 244 276 236 284 220 268 228 276 212 284 228 292 244 300 228 316 220 324 236 340 244 348 260 364 252 356 268 340 276 332 260 348 268 332 276 324 260 340 252 356 244 372 236 364 220 348 212 356 228 372 220 388 212 380 196 396 204 388 220 372 228 364 212 356 196 364 180 372 196 380 180 396 188 388 204 396 220 380 212 364 204 356 220 364 236 372 252 388 244 396 228 380 220 396 212 388 228 396 244 388 260 396 276 380 268 396 260 388 276 396 292 388 308 396 324 380 316 388 332 396 348 388 364 396 380 388 396 372 388 380 372 372 356 356 348 364 364 372 348 388 340 372 332 356 340 340 348 348 364 364 372 380 380 396 388 388 372 396 356 380 364 372 380 380 396 364 388 372 372 364 356 372 340 380 356 364 348 356 332 348 348 356 364 348 380 356 396 364 380 348 372 332 364 348 356 332 348 324 364 308 356 300 340 292 356 300 372 316 380 300 388 284 396 276 380 268 396 260 380 252 396 236 388 228 372 244 380 252 364 244 348 260 340 268 356 260 372 252 388 236 396 220 388 204 396 212 380 220 396 204 388 196 372 188 388 180 372 188 356 204 348 196 332 204 316 212 332 220 316 212 300 220 284 236 276 228 260 212 268 196 276 188 292 204 300 188 308 196 324 188 340 180 324 196 316 188 300 172 308 156 316 140 324 132 308 148 316 156 332 172 324 188 316 204 308 220 300 212 316 204 332 212 348 196 340 204 324 196 308 188 324 180 340 164 348 172 364 164 380 148 372 132 380 116 372 124 388 140 396 156 388 172 396 180 380 188 364 172 372 164 388 180 396 172 380 180 364 188 380 196 364 188 348 180 332 172 348 164 364 180 356 172 340 156 348 140 356 156 364 148 348 140 332 132 316 148 308 156 324 164 308 180 316 172 300 156 308 164 324 148 332 132 340 124 324 108 332 116 316 124 332 108 340 100 324 108 308 116 292 124 276 132 292 116 300 100 292 108 276 92 284 108 292 124 284 140 276 156 284 148 268 164 276 172 292 188 284 204 292 212 308 196 300 180 308 164 300 172 284 188 276 196 292 180 300 172 316 164 332 148 324 156 340 148 356 132 364 124 348 116 364 108 348 100 364 84 356 100 348 92 364 108 372 116 388 100 380 108 364 116 348 100 340 84 348 68 356 60 340 44 332 52 316 36 324 20 332 4 324 12 308 4 292 20 284 4 276 20 268 12 284 20 300 28 316 44 308 60 300 68 284 52 292 68 300 84 292 100 300 92 316 76 324 68 308 60 324 44 316 52 300 60 316 44 324 28 332 12 324 4 308 12 292 28 300 20 316 36 308 28 324 12 316 4 300 20 308 28 292 44 284 36 300 28 284 44 292 60 284 76 276 84 260 100 268 108 284 92 292 76 300 84 316 100 308 84 300 76 316 60 308 44 300 60 292 52 308 36 316 52 324 68 332 76 348 68 364 60 348 44 340 60 332 76 340 92 348 108 356 124 364 140 372 156 380 148 396 132 388 116 396 108 380 100 396 92 380 76 372 84 388 68 396 52 388 68 380 60 396 52 380 36 372 52 364 36 356 20 364 12 380 4 396 20 388 36 396 28 380 12 372 4 388 20 396 36 388 44 372 28 364 12 356 4 340 20 348 4 356 12 340 28 348 36 332 20 324 28 340 12 332 4 316 12 300 4 284 20 276 36 284 52 276 68 268 76 252 84 236 100 228 116 220 100 212 108 196 92 204 76 212 84 196 76 180 60 188 44 180 52 164 60 180 68 196 84 188 76 204 68 220 52 228 68 236 84 228 92 212 100 196 92 180 84 164 68 156 52 148 36 156 44 172 52 188 60 204 52 220 44 204 60 196 68 180 84 172 100 180 92 196 84 180 76 164 68 148 84 156 68 164 52 172 60 156 68 172 76 188 68 204 60 220 44 228 60 236 52 252 36 260 28 276 36 292 28 308 20 292 12 276 4 260 12 244 4 228 12 212 4 196 20 188 12 204 4 188 20 196 28 212 12 220 4 204 20 212 4 220 20 228 28 244 20 260 4 268 12 252 4 236 20 244 4 252 12 236 20 220 28 236 36 252 44 236 28 228 36 212 28 196 44 188 36 172 20 164 4 156 12 172 28 180 12 188 20 204 28 220 36 236 44 252 36 268 52 260 60 244 76 236 60 228 68 244 60 260 52 244 68 252 76 268 92 260 84 276 76 292 92 300 100 284 108 268 116 284 124 300 140 308 124 316 116 332 132 324 140 340 132 356 148 364 164 372 172 356 164 340 156 356 148 340 132 332 140 348 124 340 116 324 124 308 108 316 92 308 108 300 100 316 92 332 108 324 116 308 132 300 140 316 148 300 140 284 156 292 140 300 124 292 116 276 132 268 140 252 148 236 132 228 116 236 100 244 84 252 92 236 84 220 68 228 76 244 68 260 60 276 44 268 28 260 12 268 20 252 36 244 44 260 60 252 52 236 44 220 52 204 36 196 44 212 28 204 36 220 52 212 44 196 36 180 28 164 20 148 4 140 12 124 4 108 12 92 4 76 20 68 36 76 28 60 20 44 28 28 36 12 52 4 68 12 76 28 68 44 84 36 76 20 60 12 44 4 28 12 12 4 4 20 20 28 4 36 12 52 4 68 12 84 4 100 20 92 12 76 28 84 44 92 52 76 44 60 36 44 20 36 4 44 20 52 4 60 12 44 4 28 12 12 28 4 20 20 36 28 44 44 60 52 68 36 84 44 68 52 60 68 52 84 36 92 28 108 36 124 28 140 44 148 60 140 76 148 92 156 100 172 108 156 124 148 132 164 116 156 108 140 100 124 116 116 132 108 124 92 116 108 100 116 116 124 124 140 108 132 116 148 124 132 140 140 156 132 164 116 172 132 180 116 196 108 212 100 196 92 212 84 204 68 212 52 204 36 220 28 228 44 220 60 228 76 220 92 228 108 244 116 260 108 252 124 236 116 220 108 204 116 188 124 180 108 172 124 164 140 172 156 188 148 180 132 188 116 204 124 196 140 204 156 212 172 196 180 188 196 204 188 220 196 228 180 244 172 252 156 268 164 260 148 244 156 260 164 252 180 268 188 284 180 300 172 316 164 332 156 324 172 340 164 348 148 364 156 372 172 364 188 348 180 356 164 372 156 388 164 396 180 380 172 396 164 388 180 396 196 380 204 388 188 396 172 388 156 372 164 388 172 396 156 380 164 388 148 396 132 380 124 396 116 388 132 396 148 380 156 372 140 356 132 372 124 388 116 396 100 380 108 388 92 372 100 388 108 396 124 388 140 372 132 364 116 348 124 340 140 332 124 340 108 324 116 316 100 300 108 292 124 308 116 324 124 316 108 308 92 300 76 308 60 324 52 340 60 356 52 348 36 332 28 340 44 324 36 340 28 356 20 372 28 388 36 396 52 388 68 396 84 380 76 364 68 356 84 348 100 364 108 356 124 364 140 380 148 396 140 380 132 372 116 356 108 364 124 356 140 348 156 356 172 372 180 364 196 380 188 372 204 388 196 372 188 356 180 364 164 348 172 356 156 372 148 364 132 356 148 340 156 324 164 332 180 316 188 308 204 300 220 308 236 316 252 300 260 316 268 308 252 316 236 332 244 324 228 316 244 332 236 348 244 332 252 340 236 348 252 364 260 380 252 388 236 396 252 380 260 364 268 356 284 372 276 388 268 396 284 388 300 396 316 380 324 364 316 356 300 340 308 348 324 364 332 356 316 364 300 380 308 372 292 388 284 396 300 380 292 372 308 364 324 348 316 340 300 324 292 316 308 324 324 308 332 300 316 292 300 308 292 300 276 308 260 324 268 308 276 324 284 316 300 332 308 340 292 348 276 340 260 356 252 372 260 380 244 396 236 380 228 372 212 356 204 348 188 340 172 332 188 348 196 340 212 324 204 340 196 324 188 308 180 292 188 276 196 260 188 252 172 236 180 228 164 220 148 212 132 228 124 244 132 228 140 244 148 236 164 220 156 204 148 196 132 212 124 220 140 204 132 212 148 204 164 188 156 196 172 212 180 220 164 204 172 196 156 180 164 172 148 188 140 180 156 196 164 180 172 164 180 180 188 172 204 164 220 156 236 172 228 180 212 188 228 172 236 180 252 164 260 172 244 180 228 196 220 188 236 204 228 212 244 196 252 180 260 172 276 156 268 148 252 132 260 124 244 116 260 100 252 92 268 76 260 60 268 44 276 28 268 12 260 28 252 44 244 36 228 20 236 4 244 12 228 4 212 12 196 4 180 12 164 4 148 12 132 4 116 12 100 4 84 12 68 4 52 12 36 28 44 20 60 36 52 44 36 60 28 52 12 68 20 60 4 52 20 60 36 52 52 36 60 52 68 44 52 36 36 52 28 36 20 28 36 12 28 4 12 20 4 12 20 4 4 "/></svg>
